<?xml version="1.0" encoding="UTF-8" standalone="no"?>
<!-- Created with Inkscape (http://www.inkscape.org/) -->

<svg
   xmlns:dc="http://purl.org/dc/elements/1.1/"
   xmlns:cc="http://creativecommons.org/ns#"
   xmlns:rdf="http://www.w3.org/1999/02/22-rdf-syntax-ns#"
   xmlns:svg="http://www.w3.org/2000/svg"
   xmlns="http://www.w3.org/2000/svg"
   xmlns:sodipodi="http://sodipodi.sourceforge.net/DTD/sodipodi-0.dtd"
   xmlns:inkscape="http://www.inkscape.org/namespaces/inkscape"
   width="258.14853mm"
   height="214.57581mm"
   viewBox="0 0 258.14853 214.57581"
   version="1.1"
   id="svg8"
   inkscape:version="0.92.1 r15371"
   sodipodi:docname="L.svg"
   inkscape:export-filename="E:\Sayem_Work\~Media Source\laker_reddit\SourceFiles\logo.png"
   inkscape:export-xdpi="19.68"
   inkscape:export-ydpi="19.68">
  <defs
     id="defs2" />
  <sodipodi:namedview
     id="base"
     pagecolor="#ffffff"
     bordercolor="#666666"
     borderopacity="1.0"
     inkscape:pageopacity="0.0"
     inkscape:pageshadow="2"
     inkscape:zoom="0.175"
     inkscape:cx="-2510.6852"
     inkscape:cy="-749.03074"
     inkscape:document-units="mm"
     inkscape:current-layer="g4496"
     showgrid="false"
     inkscape:window-width="1920"
     inkscape:window-height="1017"
     inkscape:window-x="-8"
     inkscape:window-y="-8"
     inkscape:window-maximized="1"
     fit-margin-top="0"
     fit-margin-left="0"
     fit-margin-right="0"
     fit-margin-bottom="0" />
  <metadata
     id="metadata5">
    <rdf:RDF>
      <cc:Work
         rdf:about="">
        <dc:format>image/svg+xml</dc:format>
        <dc:type
           rdf:resource="http://purl.org/dc/dcmitype/StillImage" />
        <dc:title></dc:title>
      </cc:Work>
    </rdf:RDF>
  </metadata>
  <g
     inkscape:label="Layer 1"
     inkscape:groupmode="layer"
     id="layer1"
     transform="translate(27.463371,-85.427652)">
    <g
       id="g4496"
       transform="translate(24.190481,42.333333)">
      <path
         style="fill:#fbb528;stroke-width:0.35277778"
         d="m -43.114214,257.28533 c -5.23717,-1.4174 -8.573515,-5.72307 -8.539379,-11.02037 0.02228,-3.45711 0.607754,-4.62637 7.407286,-14.79312 6.02405,-9.00724 7.376267,-10.62428 9.941235,-11.88814 1.562249,-0.76977 2.06318,-0.80639 13.440783,-0.98232 11.3534406,-0.17556 11.8887738,-0.2145 13.6168064,-0.99063 0.9893124,-0.44435 2.442898,-1.47336 3.2301887,-2.28671 1.0570951,-1.09207 17.6956269,-27.817 20.4253749,-32.80738 0.259243,-0.47393 0.0056,-1.6619 -0.991016,-4.64255 -4.642591,-13.88413 -4.918897,-29.63571 -0.773744,-44.10943 6.873748,-24.00121 23.898645,-43.865859 46.862578,-54.679263 l 3.877134,-1.825689 -1.436935,-0.907097 c -3.272945,-2.066117 -5.08188,-5.438203 -5.063677,-9.439335 0.0066,-1.455209 0.219086,-3.225429 0.472144,-3.933824 0.790377,-2.21254 8.690197,-14.856192 10.369289,-16.596034 0.879129,-0.910936 2.406752,-2.022186 3.394721,-2.469444 l 1.796305,-0.813198 h 55.03333 c 62.57587,0 56.81065,-0.293922 60.37605,3.078084 3.03703,2.872303 4.27547,7.133505 3.21419,11.059377 -0.59411,2.197699 -8.70342,15.587454 -10.62137,17.537559 -0.7474,0.759933 -2.25553,1.80206 -3.35139,2.315838 l -1.99247,0.934142 -12.34723,0.182026 c -13.88996,0.20477 -13.78703,0.186764 -16.38169,2.865561 -1.30948,1.35195 -4.25581,5.776623 -4.25581,6.391208 0,0.124043 1.60528,1.781683 3.56728,3.683645 6.16614,5.977453 10.37853,11.763994 14.07377,19.333114 7.5407,15.44591 9.27138,33.31223 4.90384,50.62361 -0.56295,2.23132 -1.02397,4.21327 -1.02449,4.40434 -3.6e-4,0.19106 0.94745,-0.64928 2.1066,-1.86743 3.54262,-3.72293 4.23486,-3.92144 15.81515,-4.53507 11.73173,-0.62167 13.73725,-0.53718 16.13452,0.67969 2.15589,1.09434 4.54757,3.60934 5.55611,5.84261 1.02509,2.26988 1.0322,6.30524 0.0151,8.55649 -0.40139,0.88844 -11.71613,18.90656 -25.14385,40.04027 -26.00937,40.9358 -26.26344,41.29881 -29.88835,42.70299 -1.65084,0.63949 -4.78288,0.66297 -96.955953,0.72685 -74.731846,0.0518 -95.597341,-0.028 -96.862427,-0.37037 z"
         id="path4508"
         inkscape:connector-curvature="0" />
      <path
         style="fill:#532481;stroke:#532481;stroke-width:1.55299997;stroke-miterlimit:4;stroke-dasharray:none;stroke-opacity:1"
         d="m -44.392685,255.96643 c -2.444956,-0.93999 -5.176464,-3.89175 -5.92081,-6.39824 -1.001783,-3.37337 -0.558306,-6.53905 1.312795,-9.37116 8.476111,-12.82951 11.602704,-17.29498 12.923369,-18.45748 2.582391,-2.27311 3.603092,-2.42626 16.170744,-2.42626 h 11.0601991 l 1.7839867,-0.90401 c 2.9880596,-1.51417 4.6830299,-3.42475 8.3349996,-9.39526 9.5836746,-15.6681 12.1947136,-19.94889 12.7311226,-20.87265 0.322386,-0.55518 1.163793,-1.92224 1.869786,-3.03792 0.705996,-1.11568 1.382444,-2.33984 1.503217,-2.72037 0.122132,-0.38479 -0.174744,-1.7765 -0.668894,-3.13568 -2.593898,-7.13465 -4.058868,-15.99601 -4.056603,-24.53771 0.0028,-10.95355 1.923518,-20.32651 6.243613,-30.47001 1.418213,-3.32993 4.600603,-9.64277 5.479366,-10.8693 0.439455,-0.61337 0.984299,-1.46744 1.210772,-1.89795 0.355812,-0.67638 2.264696,-3.27178 6.677484,-9.07898 1.834885,-2.414692 8.579273,-8.908643 12.41878,-11.957631 5.232703,-4.155341 14.836341,-9.862731 20.095849,-11.942854 0.822103,-0.325138 1.494733,-0.821743 1.494733,-1.103566 0,-0.281824 -0.866803,-1.109395 -1.92623,-1.839052 -4.081357,-2.810937 -5.748355,-7.513889 -4.239083,-11.959342 0.672613,-1.981142 8.739067,-15.425045 10.028865,-16.714545 0.524514,-0.524393 1.816756,-1.390004 2.871647,-1.923581 l 1.917985,-0.970138 h 54.877232 c 62.2788,0 56.91919,-0.265025 60.1152,2.972608 2.13023,2.157968 3.00581,4.379651 3.00336,7.620677 -0.002,2.612067 -0.8704,4.631335 -4.50492,10.474958 -1.11277,1.789132 -2.69645,4.336269 -3.51929,5.660305 -1.75148,2.818301 -3.17509,4.262693 -5.4253,5.504506 l -1.62971,0.899379 -10.71751,0.05228 c -16.32904,0.07966 -17.44396,0.439106 -21.62052,6.970377 -2.37681,3.716831 -2.40385,3.547403 1.02522,6.423575 1.75834,1.47483 6.17014,6.357433 8.12577,8.992923 5.9675,8.042031 10.73336,18.642971 12.45329,27.700421 1.35814,7.15225 1.57831,9.93227 1.37491,17.36042 -0.2125,7.75995 -0.80858,11.72946 -2.80932,18.70796 -1.31037,4.57051 -1.05905,5.39753 0.97686,3.21461 5.57938,-5.98225 5.36618,-5.89332 15.50905,-6.46936 12.38609,-0.70343 15.22179,-0.65853 17.28611,0.27374 5.73583,2.59038 7.838,9.11208 4.80413,14.90421 -1.10661,2.11269 -2.42401,4.21074 -7.95557,12.66974 -1.20536,1.84327 -3.17677,4.93889 -4.38092,6.87917 -4.41157,7.10848 -11.59711,18.45067 -14.1918,22.40139 -1.46545,2.23132 -3.04389,4.69194 -3.50764,5.46805 -0.46375,0.77611 -2.04069,3.26936 -3.5043,5.54055 -1.46362,2.2712 -3.28318,5.1287 -4.04347,6.35 -5.26096,8.45108 -10.83547,16.99462 -12.12261,18.57923 -0.80903,0.996 -2.01249,1.90153 -3.39879,2.55736 l -2.14625,1.01536 -95.779174,-0.0181 c -94.864331,-0.0179 -95.796672,-0.0248 -97.611731,-0.72265 z M 148.2847,251.72815 c 1.5668,-0.43498 3.39211,-2.16678 4.81542,-4.5687 1.15392,-1.94733 4.64686,-7.46735 10.85864,-17.16034 2.63726,-4.11523 5.43001,-8.5164 6.20612,-9.78038 1.6239,-2.6447 4.02009,-6.38919 11.52831,-18.01516 1.25306,-1.94028 3.44681,-5.43278 4.87501,-7.76111 1.4282,-2.32833 2.86557,-4.55083 3.19417,-4.93889 0.32858,-0.38805 0.65732,-0.87409 0.73053,-1.08009 0.0732,-0.20599 1.79997,-2.95164 3.83726,-6.10142 6.69014,-10.3434 6.82853,-10.61203 6.61456,-12.83892 -0.18572,-1.93275 -0.98436,-3.21589 -2.76644,-4.44469 -1.17788,-0.81219 -1.32043,-0.82471 -7.02312,-0.61665 -10.91258,0.39814 -14.99242,0.59485 -15.78034,0.76083 -1.12656,0.23734 -3.03334,2.01343 -5.65339,5.26595 -2.97935,3.69854 -5.78692,6.8809 -10.27106,11.64214 -9.48393,10.07 -21.92989,20.87573 -30.07335,26.11007 -15.31048,9.84106 -25.75866,14.44587 -35.23575,15.52941 -2.412013,0.27577 -37.557852,0.21973 -38.289563,-0.061 -0.435987,-0.16731 -0.285006,-0.66275 0.829264,-2.72118 0.749265,-1.38414 1.938553,-3.41372 2.642856,-4.51017 l 1.280555,-1.99355 3.098303,1.00262 c 3.478639,1.12569 5.045308,1.53539 7.860806,2.05568 1.067153,0.1972 2.852805,0.53786 3.968112,0.75703 3.200153,0.62884 16.757992,0.53313 20.549944,-0.14506 6.420883,-1.14838 13.592923,-3.16411 17.590833,-4.94396 2.04576,-0.91077 9.28382,-7.14475 13.00554,-11.2014 4.00732,-4.36794 8.26251,-9.38863 9.59962,-11.32654 0.7,-1.01453 1.78911,-2.55898 2.42024,-3.4321 4.16308,-5.75929 10.39857,-18.26097 9.96657,-19.98221 -0.58652,-2.33685 -7.22724,0.29354 -13.3301,5.28004 -1.3964,1.14097 -2.70327,2.26871 -2.90414,2.5061 -0.69293,0.81888 -12.30672,9.98758 -16.89951,13.3416 -16.525093,12.06793 -25.748574,16.62004 -38.499053,19.00062 -2.482155,0.46343 -12.113684,1.19525 -12.369105,0.93983 -0.116421,-0.11641 -0.03447,-0.54276 0.1821,-0.94744 0.341771,-0.6386 0.720916,-0.73577 2.871047,-0.73577 3.072296,0 6.548049,-0.48272 13.196514,-1.83275 5.82773,-1.18339 14.356345,-4.90516 20.637497,-9.00594 2.03729,-1.33009 4.44145,-2.88832 5.34258,-3.46274 2.73804,-1.74535 10.1671,-7.20198 15.11043,-11.09857 1.59997,-1.26118 3.72477,-2.89837 4.72177,-3.63821 0.997,-0.73984 2.99423,-2.40568 4.43829,-3.70186 6.52296,-5.855 11.39877,-8.67061 15.71542,-9.07512 3.27097,-0.30651 3.40516,-0.46191 4.61385,-5.34315 0.94538,-3.81784 1.10459,-6.32192 0.41669,-6.55359 -0.24253,-0.0817 -12.23767,-0.0727 -26.65585,0.02 -17.77965,0.11431 -26.332109,0.0513 -26.579208,-0.19579 -0.250593,-0.2506 -0.240119,-0.59643 0.03355,-1.10776 l 0.397863,-0.74344 h 26.807425 26.80743 l 0.40586,-0.97014 c 0.22323,-0.53358 0.47332,-3.52969 0.55577,-6.65803 0.14839,-5.63044 0.14163,-5.69369 -0.66948,-6.26181 -0.55238,-0.3869 -1.56973,-0.57472 -3.12213,-0.57639 -7.95756,-0.009 -20.66549,-6.23842 -30.62605,-15.01399 -1.10675,-0.97508 -1.1851,-1.16155 -0.79464,-1.89115 l 0.43318,-0.80939 1.2896,1.22007 c 2.25306,2.1316 8.78387,6.92524 11.07466,8.12883 1.21516,0.63845 2.62286,1.43621 3.12821,1.77281 3.05448,2.03443 12.02796,4.83141 15.5005,4.83141 3.84526,0 3.88203,-0.21964 1.68323,-10.05417 -0.64857,-2.90082 -2.32496,-8.50441 -3.06061,-10.23055 -3.75237,-8.80457 -5.85319,-12.85725 -9.98429,-19.260668 -1.3265,-2.056144 -2.41182,-3.952611 -2.41182,-4.214372 0,-0.261761 0.36967,-1.040087 0.8215,-1.729613 0.45182,-0.689525 1.42573,-2.285559 2.16424,-3.546739 3.92689,-6.706073 6.57384,-9.856897 9.44786,-11.246376 3.19832,-1.546259 5.6659,-1.806402 17.1346,-1.806402 7.21326,0 10.94569,-0.128875 11.46541,-0.395882 1.98483,-1.019729 3.28615,-2.861799 9.52031,-13.476421 1.58144,-2.692631 1.6856,-3.019686 1.56497,-4.913472 -0.10592,-1.662701 -0.31617,-2.225441 -1.16504,-3.1183 -2.13053,-2.240933 2.13421,-2.084813 -56.95108,-2.084813 -58.312297,0 -54.897394,-0.109566 -56.680185,1.818564 -0.682738,0.738395 -4.410967,6.678274 -7.815594,12.451937 -2.233944,3.788388 -1.664385,7.101233 1.532139,8.911643 1.366901,0.774171 1.674459,0.795291 11.663874,0.800941 5.642977,0.0032 10.365931,0.111778 10.495457,0.241303 0.239366,0.23937 -1.561917,3.715156 -2.451524,4.730493 -0.268062,0.30595 -1.559225,0.746008 -2.869247,0.977907 -12.312961,2.179644 -23.840229,7.080828 -33.426306,14.212256 -3.267717,2.430974 -3.788996,2.955332 -3.650897,3.672466 0.130623,0.678331 0.747557,0.69088 38.316133,0.779201 28.16547,0.06622 38.18338,0.194681 38.18338,0.489642 0,0.219928 -0.84972,1.687657 -1.88826,3.261615 -1.03854,1.57397 -2.49879,3.93078 -3.24499,5.23736 l -1.35674,2.3756 -20.126536,0.0938 c -11.069596,0.0516 -20.253544,0.0399 -20.408781,-0.0261 -0.155236,-0.066 0.09769,-0.62159 0.562056,-1.23472 0.464365,-0.61314 1.599731,-2.42842 2.523035,-4.03397 1.371445,-2.38482 1.599675,-3.01443 1.246833,-3.439584 -0.370825,-0.446832 -3.09833,-0.520425 -19.287134,-0.520425 H 42.58608 l -2.225135,2.381249 c -5.314763,5.68765 -9.180371,10.88614 -8.810907,11.84895 0.24445,0.63702 -1.817275,0.61629 59.308084,0.59641 12.067258,-0.004 22.020438,0.12226 22.118188,0.28043 0.0978,0.15816 -0.40921,1.17618 -1.12657,2.26228 -0.71737,1.0861 -1.78055,2.78698 -2.36264,3.77975 -0.58208,0.99276 -1.53458,2.58925 -2.11666,3.54775 l -1.05834,1.74273 -20.226684,0.009 -20.226691,0.009 0.86281,-1.49931 c 0.474546,-0.82461 1.549305,-2.6654 2.388351,-4.09064 1.191239,-2.02348 1.444872,-2.71924 1.157426,-3.175 -0.334363,-0.53014 -2.21463,-0.59201 -20.506098,-0.67473 l -20.137978,-0.0911 -0.863201,1.14941 c -1.100406,1.46526 -2.666782,4.59999 -4.206265,8.41784 -1.590774,3.94505 -1.773093,4.73345 -1.203869,5.20586 0.324094,0.26897 12.251825,0.45182 39.772285,0.6097 21.620149,0.12403 39.333644,0.24711 39.363314,0.27353 0.0785,0.0699 -6.897549,11.57454 -7.346293,12.11525 -0.30172,0.36356 -4.460557,0.45641 -20.44391,0.45641 -11.035827,0 -20.065139,-0.0828 -20.065139,-0.18396 0,-0.10117 0.373485,-0.77586 0.829966,-1.4993 2.357247,-3.73584 4.4617,-7.56998 4.4617,-8.12886 0,-1.47 -0.08741,-1.47677 -19.065879,-1.47677 -20.834474,0 -19.032111,-0.30731 -19.893358,3.39193 -0.971769,4.17395 -1.962986,10.06144 -1.962986,11.65944 0,0.56941 0.1905,1.22579 0.423333,1.45863 0.323688,0.32368 8.835123,0.42333 36.159724,0.42333 19.655014,0 35.736389,0.071 35.736389,0.15777 0,0.0868 -1.532572,2.66645 -3.40572,5.73263 -1.873144,3.06618 -5.167207,8.47895 -7.320139,12.02837 -2.152929,3.54942 -5.057574,8.31192 -6.454765,10.58333 -1.39719,2.27141 -2.872472,4.68547 -3.278399,5.36457 -0.405931,0.67909 -1.326525,2.20059 -2.045765,3.38111 -0.719244,1.18051 -1.999531,3.32364 -2.84509,4.7625 -0.845555,1.43886 -2.225248,3.67168 -3.065981,4.96182 -0.840733,1.29013 -2.979131,4.78263 -4.751994,7.76111 -1.772864,2.97847 -3.585436,5.97103 -4.027943,6.65012 -3.655579,5.61008 -6.542243,11.54106 -6.822846,14.01834 -0.245561,2.16791 1.007322,3.70864 3.712316,4.56523 1.872407,0.59293 3.713607,0.64282 23.72577,0.64282 23.511726,0 22.297557,0.0818 29.104169,-1.96007 10.95474,-3.2862 25.32924,-11.13545 36.86528,-20.13043 11.27043,-8.78788 23.1207,-20.29625 32.87603,-31.92752 l 3.88253,-4.62914 6.05058,-0.43497 c 3.32782,-0.23924 6.7905,-0.37863 7.69485,-0.30976 l 1.64427,0.12523 -5.4191,8.46666 c -4.62019,7.21847 -10.01465,15.71506 -11.27927,17.76551 -1.15046,1.86535 -6.57763,10.39485 -7.18816,11.29713 -0.31277,0.46222 -0.72743,1.09807 -0.92145,1.41299 -1.74295,2.82894 -4.23749,6.77387 -5.99369,9.47858 -1.16611,1.79593 -3.23145,5.02617 -4.58965,7.17832 -1.35819,2.15214 -3.75418,5.9215 -5.32441,8.37634 -1.57023,2.45484 -3.59109,5.61429 -4.4908,7.02099 l -1.63583,2.55764 H 54.108106 c -50.5481493,0 -91.905729,-0.12242 -91.905729,-0.27206 0,-0.33314 4.503169,-7.16992 8.177657,-12.41545 l 0.945711,-1.35005 11.225123,-0.14501 11.2251213,-0.145 2.9986112,-1.18152 c 3.51112322,-1.38346 7.1802556,-4.05315 9.6074691,-6.99047 1.5938994,-1.92888 2.6706619,-3.62346 8.9039914,-14.01294 1.513332,-2.52236 3.57075,-5.85611 4.572039,-7.40833 1.617797,-2.50794 9.320904,-15.17141 12.505849,-20.55889 0.656435,-1.11039 2.651682,-4.40014 4.433888,-7.31056 1.782208,-2.91041 3.769832,-6.16479 4.416947,-7.23194 0.647114,-1.06715 2.585007,-4.24215 4.306432,-7.05556 1.764669,-2.88407 3.087437,-5.42303 3.032598,-5.82083 -0.09549,-0.69266 -0.364874,-0.70555 -14.737546,-0.70555 H 19.17599 l 0.02018,4.23333 c 0.02307,4.83858 0.702412,9.86965 1.893482,14.02292 0.208661,0.7276 0.51472,1.83885 0.680131,2.46944 0.165414,0.63059 0.706659,2.1784 1.202771,3.43958 0.496111,1.26118 0.994286,2.61185 1.107052,3.00148 0.219241,0.75751 0.39146,0.45213 -8.25469,14.63741 -2.77918,4.55965 -6.7839345,11.14778 -8.8994547,14.64028 -6.18424754,10.20954 -7.58180496,11.78019 -12.443926,13.98525 -1.6902889,0.76658 -2.2643748,0.80809 -13.7583333,0.99489 -11.526142,0.18732 -12.041159,0.22479 -13.190918,0.95948 -1.101028,0.70356 -2.594957,2.80802 -11.223621,15.81038 -0.901328,1.35819 -1.853352,3.07974 -2.115608,3.82566 -0.924085,2.62833 0.34269,5.66426 2.894035,6.93579 1.399013,0.69724 2.218633,0.70325 95.60278,0.70158 67.63463,-0.001 94.58728,-0.11152 95.59482,-0.39123 z M 86.732936,91.412576 c 0,-0.10734 0.689998,-1.258277 1.533331,-2.557639 2.424187,-3.735063 5.84477,-9.510451 7.515804,-12.689857 2.894027,-5.506331 1.846763,-8.600578 -3.40469,-10.059519 C 91.698283,65.916897 86.916726,65.664268 81.7517,65.544165 l -9.390963,-0.218369 1.882267,-3.175 c 1.035248,-1.74625 2.365213,-3.929063 2.955477,-4.850694 l 1.07321,-1.675695 h 50.973679 c 28.03552,0 50.97368,0.05909 50.97368,0.131315 0,0.212338 -3.67036,6.246341 -4.90929,8.070768 l -1.13792,1.675695 -9.41181,0.0062 c -12.51177,0.0082 -16.47888,0.663912 -20.87709,3.450773 -1.9539,1.238059 -5.88855,4.990394 -6.80857,6.493088 -1.85852,3.035575 -5.35985,8.690359 -6.94513,11.216646 -1.03491,1.649237 -2.10596,3.435174 -2.3801,3.96875 l -0.49843,0.970139 h -20.25889 c -11.142386,0 -20.258884,-0.08782 -20.258884,-0.195164 z M 132.98289,202.03474 c 6.01499,-4.51826 15.5467,-15.33661 18.96676,-21.527 1.97497,-3.57473 3.92773,-7.65513 3.92773,-8.2072 0,-0.91864 -1.85819,-3.52969 -2.91415,-4.09482 -1.03514,-0.55399 -2.01999,-0.4276 -2.39653,0.30757 -0.14907,0.29105 -1.02547,2.27542 -1.94756,4.40973 -2.25758,5.22549 -3.84097,8.17443 -6.70482,12.48723 -0.56649,0.85312 -1.18874,1.80185 -1.38277,2.10829 -2.16957,3.42658 -3.66848,5.44618 -6.70972,9.04059 -4.57253,5.40421 -4.97353,6.01506 -4.40132,6.70454 0.66216,0.79784 1.0358,0.66895 3.56238,-1.22893 z M 157.9769,167.5281 c 0.70803,-1.55395 2.00338,-5.74696 2.47474,-8.01064 0.24241,-1.16417 0.58238,-2.57692 0.75547,-3.13945 0.52011,-1.69027 0.38022,-2.97428 -0.36765,-3.37453 -1.01261,-0.54193 -5.16803,-0.46162 -5.74059,0.11095 -0.26188,0.26188 -0.84414,2.12719 -1.29391,4.14514 -0.44977,2.01795 -1.0406,4.37197 -1.31295,5.23115 -0.27235,0.85918 -0.49518,1.82869 -0.49518,2.15445 0,0.7241 4.48408,4.23791 5.10436,3.99988 0.24449,-0.0938 0.63856,-0.59644 0.87571,-1.11695 z m 3.90111,-17.3656 c 0.51247,-0.95758 0.80503,-9.32726 0.45473,-13.00923 -0.1949,-2.04858 -0.44928,-3.0667 -0.82526,-3.303 -0.70684,-0.44424 -5.86828,1.95069 -6.10009,2.83047 -0.35939,1.36394 -0.21465,13.26463 0.16692,13.72439 0.26352,0.31751 1.28416,0.46928 3.15608,0.46928 2.41379,0 2.8152,-0.0908 3.14762,-0.71191 z m -3.15928,-17.57229 c 2.32618,-1.48033 2.57212,-1.89497 2.28324,-3.84941 -0.52179,-3.53018 -2.38843,-9.33886 -4.37258,-13.60672 -3.06574,-6.59434 -10.05973,-16.578505 -11.94481,-17.05163 -1.9076,-0.478776 -1.78082,0.382616 0.82708,5.61921 5.32191,10.68625 7.46616,16.98305 8.95546,26.29855 0.19633,1.22802 0.52016,2.53771 0.71963,2.91042 0.50938,0.95178 1.70303,0.8435 3.53198,-0.32042 z"
         id="path4498"
         inkscape:connector-curvature="0" />
      <path
         style="fill:#fbb528;fill-opacity:1;stroke-width:0.35277778"
         d="m -235.26794,301.48513 c -12.23676,-1.57385 -25.77394,-7.42493 -35.67017,-15.41751 -5.47204,-4.41942 -12.50721,-12.56635 -14.91414,-17.27102 -0.32262,-0.63059 -0.83002,-1.14652 -1.12751,-1.14652 -0.2975,0 -0.43995,-0.1634 -0.31652,-0.36312 0.12344,-0.19971 -0.34942,-1.69919 -1.05082,-3.33218 -0.70139,-1.63299 -1.51563,-3.77853 -1.80943,-4.76786 -0.39641,-1.33484 -0.76284,-1.88574 -1.42078,-2.13588 -0.49484,-0.18814 -5.75662,-0.33707 -11.90868,-0.33707 -9.04646,0 -11.14485,-0.0911 -11.7069,-0.50851 -0.54804,-0.40696 -0.60674,-0.63591 -0.294,-1.14653 0.36015,-0.58804 1.28002,-0.65184 11.74309,-0.81441 12.29896,-0.1911 12.26167,-0.18445 11.86879,-2.11667 -0.76966,-3.78494 -1.6394,-9.45949 -2.10877,-13.75833 -0.75498,-6.91447 -0.83188,-7.29767 -1.53056,-7.62462 -0.33426,-0.15642 -5.0358,-0.37018 -10.4478,-0.47503 -8.99453,-0.17425 -9.87358,-0.24545 -10.23055,-0.82865 -0.31246,-0.51049 -0.25365,-0.73966 0.29425,-1.14653 0.55534,-0.41236 2.42683,-0.5085 9.89855,-0.5085 7.18094,0 9.35754,-0.10514 9.86547,-0.47654 0.5806,-0.42454 0.62534,-0.79983 0.40993,-3.43958 -0.68354,-8.37657 -2.59849,-18.38259 -4.42331,-23.11273 -2.23565,-5.79499 -5.11746,-8.52488 -9.3588,-8.86533 l -2.24392,-0.18012 -0.874,1.3684 c -0.48073,0.75262 -5.7537,10.63731 -11.71769,21.96599 -11.56124,21.96062 -11.52681,21.87899 -10.2622,24.32449 0.75099,1.45223 2.04762,2.39238 3.65372,2.64921 2.79237,0.44652 3.78156,3.0794 1.73009,4.60493 -0.98471,0.73223 -1.25646,0.74156 -24.49224,0.84071 -16.38702,0.0699 -24.07422,-0.0197 -25.40596,-0.29615 -2.25506,-0.46815 -3.34603,-1.39772 -3.19066,-2.71865 0.18051,-1.53469 1.82322,-2.20797 6.18077,-2.53324 4.20412,-0.31383 5.81216,-0.8399 7.20782,-2.35808 0.80172,-0.87212 16.72621,-29.30857 18.52358,-33.07772 0.62227,-1.30484 0.62124,-1.35345 -0.0387,-1.83602 -0.48599,-0.35536 -1.78823,-0.49568 -4.59998,-0.49568 -4.34816,0 -5.64554,-0.43806 -4.90171,-1.65504 0.3422,-0.5599 1.08663,-0.66015 6.07999,-0.81876 5.0715,-0.1611 5.7652,-0.25697 6.38193,-0.88195 1.11777,-1.13274 14.13563,-24.90965 14.13563,-25.81848 0,-1.21714 -1.19599,-1.51744 -6.04337,-1.51744 -4.45481,0 -5.5983,-0.28939 -5.5983,-1.4168 0,-0.92034 0.54373,-1.00337 7.43835,-1.13572 4.67523,-0.0897 6.02707,-0.22779 6.72797,-0.68704 0.97515,-0.63893 12.5259,-21.12502 12.8639,-22.81502 0.49428,-2.47134 -1.81624,-4.54932 -5.58447,-5.02248 -3.67005,-0.46083 -5.03072,-1.54786 -4.20522,-3.3596 0.86014,-1.8878 1.01194,-1.89945 24.74006,-1.89945 h 21.89491 l 8.48861,0.0927 c 0,0 7.87661,0.2675 10.89145,1.11327 8.29052,2.32579 15.11438,7.38419 17.67685,13.10354 2.42499,5.4125 2.27651,13.08606 -0.36241,18.72523 -3.52164,7.52564 -12.22386,15.13337 -23.66444,20.68817 -2.42535,1.17759 -4.46264,2.27166 -4.5273,2.43127 -0.0647,0.1596 -0.4764,0.29019 -0.91493,0.29019 -0.43851,0 -1.71719,0.31649 -2.84149,0.7033 -1.1243,0.38682 -3.41136,0.95638 -5.08233,1.2657 -1.67096,0.30931 -3.15305,0.67134 -3.29357,0.80451 -0.14051,0.13316 0.8146,1.66703 2.12246,3.4086 1.30785,1.74158 5.19433,7.65788 5.19433,7.65788 l 6.9355,11.7689 c 0,0 4.97854,9.29406 6.7521,12.93208 1.77359,3.63803 3.33297,6.61459 3.46537,6.61459 0.37864,0 4.18433,-6.18633 4.18433,-6.80183 0,-0.3195 -0.52825,-0.72613 -1.25479,-0.96591 -0.98707,-0.32576 -1.23173,-0.57624 -1.14653,-1.17389 0.0924,-0.64817 0.41173,-0.79236 2.17428,-0.98169 1.5175,-0.16301 2.29132,-0.44729 2.91489,-1.07083 0.46687,-0.46689 3.5287,-5.05015 6.80399,-10.18501 3.2753,-5.13487 6.21016,-9.38745 6.52191,-9.45018 0.83891,-0.16882 0.73406,1.68997 -0.33845,6.00061 -1.20598,4.8472 -1.55494,12.94551 -0.72539,16.83443 1.42269,6.66964 5.00137,10.95944 10.80287,12.94955 2.58061,0.88524 10.94888,0.89013 14.64028,0.009 6.75781,-1.61387 10.86979,-5.44757 13.04978,-12.16664 0.56875,-1.7529 0.57097,-1.92906 0.0314,-2.46945 -0.37744,-0.3779 -1.41062,-0.64373 -2.94721,-0.75828 -1.9563,-0.14585 -2.38792,-0.29126 -2.49227,-0.83967 -0.18302,-0.96146 0.54148,-1.2655 3.02997,-1.2716 3.0075,-0.007 3.79586,-0.74567 3.46439,-3.24443 -0.57736,-4.35234 -3.85181,-10.99072 -8.50181,-17.23598 -3.64447,-4.89459 -1.52213,-4.36889 -18.45903,-4.57223 l -14.69189,-0.17639 v -0.88194 -0.88194 l 12.17084,-0.20761 c 6.69396,-0.11418 12.51705,-0.32826 12.94017,-0.47574 0.42316,-0.14747 0.85475,-0.49066 0.95913,-0.76264 0.16785,-0.43741 -4.46433,-6.39132 -8.54985,-10.98943 l -1.33216,-1.49931 h -3.44293 c -3.53173,0 -4.80769,-0.3333 -4.80769,-1.25586 0,-0.79465 1.52297,-1.21358 4.41187,-1.21358 1.43111,0 2.69854,-0.15612 2.81644,-0.34692 0.11793,-0.19081 -0.17361,-1.57987 -0.64788,-3.08681 -1.29512,-4.11519 -1.75267,-7.66641 -1.5663,-12.15661 0.13593,-3.27418 0.36774,-4.58456 1.29389,-7.31389 0.62057,-1.82879 1.0476,-3.53535 0.949,-3.79236 -0.11857,-0.30893 -0.83213,-0.4673 -2.10548,-0.4673 -1.29822,0 -2.11085,-0.18469 -2.49269,-0.56654 -0.95233,-0.95234 -0.0557,-1.54423 2.41141,-1.59187 3.76717,-0.0727 4.09526,-0.2362 5.93993,-2.95953 2.83023,-4.17832 4.23594,-5.79605 6.93448,-7.98045 6.46021,-5.22933 14.13814,-7.45446 25.79977,-7.47696 9.11546,-0.0176 13.43001,1.19745 20.89761,5.88509 2.08103,1.30634 4.28346,2.54938 4.89429,2.76231 1.73585,0.60513 8.06913,0.1076 11.8926,-0.93426 1.80877,-0.49287 3.74209,-0.89612 4.29631,-0.89612 1.27215,0 2.22793,0.91882 1.98063,1.90407 -0.22803,0.90852 -17.87694,32.46384 -18.68466,33.40721 -0.75981,0.88741 -1.39711,0.8477 -2.56872,-0.16007 l -0.96738,-0.83212 0.95426,-5.42968 c 0.52483,-2.98633 0.95134,-5.70192 0.94774,-6.03464 -0.01,-0.8985 -1.12332,-1.33468 -3.42297,-1.34073 -2.33959,-0.006 -3.05724,-0.32339 -2.87676,-1.2716 0.10707,-0.56247 0.54335,-0.69009 2.87062,-0.83967 3.172,-0.20387 3.40925,-0.41304 3.41715,-3.01268 0.0233,-7.62169 -5.72707,-14.38607 -14.13119,-16.62348 -3.40769,-0.90721 -9.6871,-0.80088 -12.65364,0.21426 -4.31239,1.47568 -6.96423,4.22772 -8.71107,9.0402 -1.21384,3.34416 -1.40607,6.08533 -0.6802,9.69994 1.50732,7.5057 5.64741,14.5357 13.57754,23.05505 14.41439,15.48538 19.76748,31.45629 14.72653,43.93648 -4.58325,11.34691 -17.7885,20.52999 -32.00837,22.25896 -8.05085,0.97889 -22.46317,-2.13413 -31.37984,-6.77798 l -3.62246,-1.88658 -4.09554,0.009 c -4.77086,0.0103 -7.48997,0.67671 -9.17198,2.24793 -1.43562,1.34108 -1.41058,1.95837 0.32333,7.97379 4.18994,14.53617 6.43971,19.32381 12.07914,25.70548 8.25366,9.33994 23.50301,14.82961 36.95373,13.30311 12.46035,-1.41411 25.2482,-6.39853 33.79096,-13.17098 1.65837,-1.31471 2.19632,-1.95296 2.11666,-2.51127 -0.0987,-0.69193 -0.37373,-0.76191 -3.63459,-0.92495 -3.48076,-0.17404 -3.52778,-0.18815 -3.52778,-1.05833 v -0.88195 l 6.22236,-0.17639 6.2224,-0.17639 2.24427,-1.92435 c 5.22485,-4.48 8.53581,-7.64953 11.35874,-10.87355 5.06331,-5.78276 9.47656,-11.4383 9.16718,-11.74769 -0.16165,-0.16166 -1.64239,-0.34065 -3.29054,-0.39777 -2.93352,-0.10167 -2.99663,-0.12243 -2.99663,-0.9858 0,-0.87355 0.0353,-0.88363 3.70416,-1.05834 2.86611,-0.13648 3.98354,-0.33951 4.93889,-0.89739 2.52557,-1.47478 11.61542,-14.89338 13.34269,-19.69666 0.83517,-2.32256 0.38429,-2.68928 -3.30651,-2.68928 -2.22017,0 -3.06751,-0.13728 -3.49677,-0.56654 -1.04458,-1.04458 -0.0818,-1.42906 4.14592,-1.65563 2.19223,-0.11748 4.24963,-0.31481 4.572,-0.43851 0.32233,-0.1237 1.07078,-1.08377 1.66324,-2.1335 0.59242,-1.04973 1.23846,-1.9086 1.43563,-1.9086 0.19716,0 0.52645,0.43656 0.73173,0.97014 0.57891,1.50471 -0.41737,4.47957 -3.5148,10.49514 -9.50577,18.46131 -30.47816,43.04128 -47.32313,55.46343 -14.62532,10.78527 -30.70973,17.66155 -46.00131,19.66611 -4.38936,0.57539 -13.26091,0.65657 -17.14591,0.1569 z m -59.68623,-115.14748 c 5.01033,-2.33251 10.18389,-6.97966 13.56138,-12.18151 2.29291,-3.97829 6.18911,-12.61585 6.91974,-14.50938 1.17471,-3.08975 1.44364,-9.26058 0.53682,-12.31807 -0.41208,-1.38936 -1.02859,-2.37678 -2.24268,-3.59181 -1.39764,-1.18812 -6.99513,-2.94882 -9.08544,-0.88248 -0.87432,0.94936 -20.91192,37.49465 -20.91192,38.13992 0,0.24643 0.61672,0.79467 1.3705,1.21831 0.75375,0.42365 2.69844,1.72154 4.32153,2.88422 1.62306,1.16267 3.10977,2.11374 3.3038,2.11347 0.19403,-2.6e-4 1.19585,-0.39296 2.22627,-0.87267 z m -422.73741,96.83465 c -52.78975,-0.1404 -66.48253,-0.26802 -67.10789,-0.62545 -1.88962,-1.08003 -1.73868,-2.72426 0.35515,-3.86882 1.01042,-0.55232 2.62064,-0.64052 14.5582,-0.7974 11.97724,-0.1574 13.52294,-0.24251 14.35854,-0.79063 1.72059,-1.12866 2.74171,-2.5302 4.94994,-6.79409 2.84056,-5.48485 2.79182,-5.3494 2.15409,-5.98713 -0.43703,-0.43703 -1.56674,-0.53926 -5.95915,-0.53926 -5.53794,0 -7.22971,-0.28398 -7.22971,-1.21358 0,-1.03958 1.36013,-1.25586 7.89771,-1.25586 4.07963,0 6.85939,-0.14873 7.40217,-0.39604 0.62797,-0.28612 1.90533,-2.34663 4.60271,-7.42463 2.05344,-3.86574 3.73352,-7.15542 3.73352,-7.31041 0,-0.15499 -0.33408,-0.58421 -0.7424,-0.95383 -0.71212,-0.64462 -1.70378,-0.67603 -24.30642,-0.76981 -20.2397,-0.084 -23.62485,-0.17107 -23.99524,-0.61736 -0.34014,-0.40984 -0.33846,-0.63136 0.008,-1.04876 0.38223,-0.46055 3.44643,-0.52916 23.63116,-0.52916 23.55693,0 26.20011,-0.12669 27.83387,-1.33408 0.83445,-0.61668 12.03498,-21.18238 12.03498,-22.09785 0,-1.20696 -1.08141,-1.43731 -7.30766,-1.55658 -4.92046,-0.0943 -6.18116,-0.218 -6.33614,-0.62186 -0.10641,-0.2773 0.002,-0.74028 0.24197,-1.02885 0.35308,-0.42543 1.53208,-0.52467 6.23325,-0.52467 6.23512,0 8.28519,-0.32138 9.73387,-1.52593 0.82166,-0.6832 9.42915,-16.35931 9.42915,-17.17254 0,-0.9354 -1.92985,-1.05729 -16.82194,-1.06249 -8.50148,-0.003 -15.67128,-0.14106 -15.93291,-0.30686 -0.26162,-0.1658 -0.41834,-0.59993 -0.34825,-0.96473 0.12202,-0.63511 0.83897,-0.67078 16.87985,-0.83968 14.41827,-0.15181 16.8932,-0.25442 17.76277,-0.73648 1.45588,-0.80708 15.83655,-27.74993 15.67756,-29.37264 -0.19167,-1.95618 -0.41284,-1.98274 -16.55652,-1.98845 -12.56293,-0.004 -14.74821,-0.081 -15.12072,-0.52988 -0.23949,-0.28857 -0.34668,-0.75599 -0.23819,-1.03871 0.16794,-0.43763 2.59874,-0.53005 16.35545,-0.62185 17.92477,-0.11961 17.85892,-0.11136 19.58347,-2.45164 1.42041,-1.92754 8.03999,-14.61085 8.03999,-15.40485 0,-1.08927 -0.55878,-1.28432 -4.23333,-1.47772 -3.29259,-0.17329 -3.35139,-0.19186 -3.35139,-1.05833 v -0.88195 l 4.6383,-0.17732 c 3.91673,-0.14974 4.75441,-0.2824 5.38464,-0.85275 0.9868,-0.89304 10.26178,-18.19938 10.26178,-19.14763 0,-0.4054 -0.25111,-0.83345 -0.55802,-0.95122 -0.30691,-0.11778 -3.44222,-0.21656 -6.96736,-0.21953 -3.52514,-0.003 -6.6234,-0.14106 -6.88502,-0.30686 -0.26163,-0.1658 -0.41847,-0.59993 -0.34853,-0.96474 0.11859,-0.61865 0.64913,-0.67528 7.88401,-0.84159 5.59566,-0.12862 8.02129,-0.31373 8.70592,-0.66437 0.65502,-0.33549 1.6652,-1.8104 3.26058,-4.76059 1.27135,-2.35098 2.31271,-4.53288 2.31415,-4.84868 0.007,-1.48308 -0.47699,-1.53444 -16.19082,-1.71888 l -15.02741,-0.17639 v -0.88195 -0.88194 l 16.24393,-0.17639 c 14.5612,-0.158124 16.33946,-0.239044 17.16623,-0.781134 1.09836,-0.72016 3.8079,-5.47361 3.8079,-6.68033 0,-0.46652 -0.25887,-1.21781 -0.57527,-1.66953 -1.15202,-1.64474 -2.24578,-1.80512 -12.30996,-1.80512 -10.00216,0 -11.94915,-0.2344 -13.22462,-1.59206 -1.06313,-1.13166 -0.6493,-2.18597 1.18491,-3.01882 1.37539,-0.62451 2.60177,-0.66577 20.00369,-0.67304 12.86946,-0.005 18.65575,-0.12503 18.92199,-0.39126 0.27617,-0.27618 0.44986,-0.27618 0.62054,0 0.1671,0.27037 7.67502,0.38351 25.45115,0.38351 26.44091,0 26.70964,0.0147 27.96488,1.52827 0.71977,0.86791 0.20619,2.24786 -1.10284,2.96323 -0.99972,0.54634 -2.49902,0.64568 -12.07752,0.80017 -10.35172,0.16696 -11.01152,0.21708 -12.34723,0.93783 -0.77611,0.41879 -2.34958,1.76389 -2.34958,1.76389 l -80.37517,150.013594 c 0,0 16.75938,-1.64144 23.23633,-4.22847 7.74193,-3.69085 13.66601,-13.30186 17.53046,-18.14819 10.35294,-12.99835 12.65425,-16.13202 12.08458,-16.45543 -0.062,-0.0352 -3.60523,-0.15426 -7.87384,-0.26458 l -7.76111,-0.20058 v -0.88195 -0.88194 l 9.01621,-0.17639 c 7.22064,-0.14127 9.16998,-0.28177 9.78831,-0.70556 1.06644,-0.7309 17.37357,-21.25904 17.23472,-21.69583 -0.0617,-0.19403 -1.20412,-0.40048 -2.53876,-0.45877 -2.55652,-0.11166 -3.33798,-0.45978 -3.33798,-1.48696 0,-0.89372 0.68575,-1.05288 4.53647,-1.05288 2.44677,0 3.63233,-0.14842 4.16483,-0.5214 0.89482,-0.62676 18.10981,-22.20472 18.10981,-22.69957 0,-0.8261 -2.51445,-1.1207 -9.56523,-1.1207 -6.71611,0 -7.37237,-0.0543 -7.68385,-0.63637 -0.83188,-1.55438 -0.31424,-1.6461 10.34477,-1.83307 8.32539,-0.14604 10.13981,-0.26745 10.54433,-0.70556 0.26873,-0.29104 2.10486,-2.55184 4.0803,-5.02401 1.97544,-2.47216 4.05487,-4.73435 4.62095,-5.02708 1.40955,-0.72891 22.05836,-0.77494 23.01084,-0.0513 1.57916,1.19977 1.70182,-0.0406 -4.87183,49.26507 -4.29383,32.20586 -6.16241,47.20681 -5.99285,48.11061 0.31763,1.69312 1.32358,2.68504 2.72302,2.68504 1.27823,0 3.17932,-1.07202 3.92104,-2.21107 1.36339,-2.09375 34.47614,-62.71759 34.663,-63.46209 0.15443,-0.61528 3.6e-4,-1.05057 -0.54706,-1.54644 -0.67025,-0.60703 -1.4478,-0.71136 -6.45818,-0.86651 l -5.69619,-0.17639 v -0.88194 -0.88195 l 6.87917,-0.19951 c 7.74481,-0.22463 8.58506,-0.45351 9.98888,-2.72096 0.44705,-0.72207 2.90681,-5.13504 5.46614,-9.80661 3.12756,-5.70877 4.65331,-8.85051 4.65331,-9.58183 0,-1.53349 -1.68993,-2.9147 -3.56617,-2.9147 -1.79123,0 -3.67331,-0.78921 -4.19162,-1.75768 -0.32462,-0.60656 -0.28937,-0.93744 0.17544,-1.64683 1.2319,-1.88013 1.31858,-1.88715 23.28096,-1.88715 21.87756,0 22.40071,0.0414 23.05987,1.82325 0.6464,1.74738 -0.35745,2.89605 -3.16231,3.61852 -1.43542,0.36974 -2.19836,0.82545 -3.09068,1.8461 -1.52291,1.74191 -47.56101,83.27067 -48.47568,85.84546 -0.54087,1.52255 -0.65059,2.51998 -0.50962,4.63291 0.30171,4.52224 1.65539,6.33826 5.22995,7.01616 2.27545,0.43153 3.40743,1.13325 3.69843,2.29269 0.35999,1.43431 -0.6222,2.51749 -2.68366,2.95959 -1.24563,0.26714 -16.44938,0.38476 -49.73449,0.38476 h -47.94042 l -0.55934,0.79375 c -0.30764,0.43657 -4.61539,7.86882 -9.57279,16.51612 -4.9574,8.6473 -9.51689,16.34668 -10.1322,17.10972 l -1.11873,1.38736 z m 33.3375,-7.5788 c 9.52054,-1.31848 19.27516,-4.75714 23.19514,-7.80996 8.38984,-5.92183 18.3727,-16.7489 25.84306,-25.49266 4.34381,-5.11929 8.38254,-9.60756 8.97496,-9.97391 0.64779,-0.40059 1.56928,-0.62778 2.31185,-0.56997 1.10221,0.0858 1.24629,0.21528 1.34255,1.20628 0.0822,0.84618 -0.52596,2.24336 -2.55763,5.87598 -2.72725,4.87629 -2.99364,5.53916 -2.22451,5.53523 1.29358,-0.007 8.90508,-2.29411 11.11799,-3.34134 3.09023,-1.46239 6.0167,-4.12492 7.07346,-6.43547 0.52148,-1.14019 1.55583,-6.25564 3.19426,-15.79733 1.33267,-7.76111 2.35499,-14.23017 2.27181,-14.37569 -0.0832,-0.14552 -7.34731,-0.26458 -16.14252,-0.26458 h -15.99128 l -9.91071,13.23064 c -5.4509,7.27685 -10.012,13.63418 -10.1358,14.1274 -0.45451,1.81093 0.0472,4.6449 1.08834,6.14722 1.78531,2.5762 3.9918,3.8419 7.71831,4.42744 2.85822,0.4491 3.92033,3.02102 1.87574,4.54213 -0.93674,0.6969 -1.54873,0.75089 -10.40695,0.91799 -5.17642,0.0976 -9.67905,0.058 -10.00585,-0.0882 -0.32679,-0.14616 -7.88951,-0.26574 -16.80605,-0.26574 -14.92936,0 -16.26907,0.0488 -16.9347,0.61736 -0.39754,0.33954 -3.7754,6.3176 -7.50634,13.28456 -6.52863,12.19118 -6.76444,12.70124 -6.27512,13.57303 0.92933,1.65571 2.30161,1.81627 14.07333,1.64654 7.08827,-0.1022 12.14404,-0.34684 14.81666,-0.71696 z m 83.11801,-76.44514 c 0.34165,-0.55282 8.2687,-50.48474 8.04959,-50.70385 -0.0938,-0.0938 -0.47197,0.13816 -0.84041,0.51544 -1.53002,1.56672 -38.05174,50.06992 -37.89382,50.32544 0.2961,0.47911 30.38689,0.34473 30.68464,-0.13703 z m 99.6987,48.02207 c -1.95302,-0.38939 -3.45719,-1.47944 -4.27492,-3.09798 -0.35936,-0.71126 -2.99005,-12.14962 -5.846,-25.41855 l -5.19262,-24.12535 1.00328,-0.96818 c 0.55181,-0.53249 11.87766,-9.58011 25.16857,-20.10581 13.2909,-10.52571 24.70066,-19.633 25.355,-20.23843 1.68243,-1.55664 2.85956,-4.21817 2.86377,-6.47507 0.003,-1.51943 -0.16865,-2.03913 -0.96808,-2.93385 -0.81979,-0.91751 -1.3335,-1.13223 -3.28903,-1.37475 -2.67436,-0.33167 -3.79114,-0.90483 -4.09477,-2.10157 -0.28025,-1.1046 0.19038,-1.83079 1.67897,-2.59069 1.13675,-0.58028 4.87146,-0.61684 63.0675,-0.61736 57.05398,-3.5e-4 61.95562,0.0452 63.10066,0.58858 1.59629,0.75749 2.65691,2.42095 2.43604,3.8206 -0.15332,0.97144 -17.08101,34.69385 -17.92704,35.71328 -0.4898,0.59017 -4.31274,0.59454 -4.78335,0.005 -0.22017,-0.27559 -0.24359,-1.16866 -0.0625,-2.38125 0.15942,-1.06715 0.4015,-4.40871 0.53796,-7.42568 0.71515,-15.80943 -3.59153,-24.15958 -13.26237,-25.71425 -1.26118,-0.20275 -4.31345,-0.36983 -6.78282,-0.3713 -4.2683,-0.002 -4.51545,0.0365 -5.00973,0.79109 -1.32295,2.01962 -23.40875,44.55296 -23.2597,44.79408 0.2902,0.46957 8.40031,0.29845 11.19474,-0.23621 3.11576,-0.59615 6.16189,-1.76672 8.90584,-3.42235 2.42806,-1.46504 6.89892,-5.57463 8.933,-8.21121 0.83936,-1.08795 1.90398,-2.07294 2.36587,-2.18886 0.90678,-0.22759 1.88891,0.36521 1.88891,1.14009 0,0.83127 -21.66302,38.64116 -22.35108,39.01076 -1.24996,0.67147 -1.32221,-0.19206 -0.37656,-4.50105 1.1586,-5.27925 1.29664,-9.93859 0.35222,-11.89068 -1.39908,-2.89198 -3.20086,-3.48669 -10.15411,-3.35156 l -5.0413,0.098 -11.60043,23.12212 c -9.2232,18.38384 -11.54748,23.2889 -11.34209,23.936 0.15942,0.50238 0.88628,1.10374 1.89904,1.57118 1.47126,0.67909 2.22363,0.75456 7.28514,0.73081 10.60842,-0.0498 17.99703,-2.45579 26.10556,-8.50094 3.93485,-2.93355 12.7991,-11.74514 18.30814,-18.19938 4.34482,-5.09026 5.8582,-6.25562 8.12374,-6.25562 1.64024,0 2.18221,0.92577 1.4926,2.54958 -0.80684,1.89985 -18.2124,31.77684 -19.04312,32.68793 -0.4221,0.46291 -1.48185,1.17729 -2.35497,1.5875 l -1.5875,0.74582 -50.97639,0.053 c -28.03702,0.0292 -51.65576,-0.0824 -52.48609,-0.24796 z m 30.51155,-6.31901 c 0.62283,-0.37976 1.51574,-1.29198 1.98425,-2.02715 1.57612,-2.47321 23.16529,-44.06208 23.16529,-44.62507 0,-0.94321 -1.01117,-1.10955 -7.65743,-1.25969 -4.94991,-0.11182 -6.51706,-0.25878 -6.83417,-0.64087 -0.31469,-0.37919 -0.30818,-0.62024 0.0277,-1.02495 0.35802,-0.43139 1.52309,-0.52955 6.30499,-0.53121 7.20683,-0.002 9.82532,-0.37093 10.83109,-1.52391 0.40252,-0.46146 4.83044,-8.66709 9.83978,-18.23474 7.04646,-13.45847 9.02822,-17.52245 8.75581,-17.9557 -0.27958,-0.44471 -1.24457,-0.59632 -4.68722,-0.73639 -3.59509,-0.14627 -4.40041,-0.28013 -4.71731,-0.78404 -0.7541,-1.19919 0.23142,-1.49894 5.54457,-1.68645 4.06139,-0.14333 5.21621,-0.3009 6.00809,-0.81976 1.03537,-0.67838 3.04169,-4.46805 3.04215,-5.7462 0,-1.0485 -1.31643,-2.60177 -2.69346,-3.17713 -1.75878,-0.73486 -12.58916,-0.67672 -14.84465,0.0797 -2.5104,0.84191 -6.69572,3.43636 -11.14125,6.90635 -2.17378,1.69675 -12.31928,9.55988 -22.54558,17.47363 -10.22629,7.91375 -18.68098,14.63667 -18.78819,14.93983 -0.21788,0.61612 10.93089,58.62316 11.45564,59.60367 0.18344,0.34276 0.82554,1.0372 1.42688,1.5432 1.37727,1.15889 3.82927,1.25962 5.52302,0.22689 z m -49.55093,-125.79366 c -7.72312,-2.07966 -12.51601,-9.6974 -10.90331,-17.329554 0.76798,-3.63448 2.18799,-6.30092 4.69726,-8.82035 3.84837,-3.86393 9.97597,-6.15166 16.52035,-6.16784 5.53053,-0.0137 9.32997,1.36791 12.40811,4.51194 5.5777,5.6971 4.46983,15.309574 -2.53092,21.959604 -5.45161,5.1785 -13.74918,7.58096 -20.19149,5.8462 z m 6.98626,-6.44907 c 3.47527,-2.20908 7.09285,-7.45768 8.06629,-11.703064 0.46596,-2.03219 0.48373,-6.03451 0.0321,-7.2225 -0.6072,-1.59707 -2.061,-2.65528 -3.64789,-2.65528 -5.39676,0 -11.87792,9.12924 -11.87792,16.731004 0,5.10961 3.46226,7.37033 7.42746,4.84984 z m 174.78227,5.93321 c -3.61767,-0.51172 -7.41419,-3.5993 -9.40957,-7.65243 -1.08127,-2.19636 -1.17376,-2.6496 -1.17376,-5.75051 0,-3.083564 0.0961,-3.561414 1.14434,-5.690714 4.27443,-8.68257 11.79216,-13.32978 21.78621,-13.46751 4.51697,-0.0622 7.11144,0.51107 11.06816,2.44581 2.13646,1.04469 2.87613,1.24111 4.13805,1.09887 0.97091,-0.10944 1.76646,-0.002 2.16104,0.29156 0.58812,0.43773 0.56448,0.57361 -0.40661,2.33712 -1.84298,3.34698 -2.67247,4.5182 -3.19994,4.5182 -0.28487,0 -0.87817,-0.74467 -1.31847,-1.65481 -1.05255,-2.17568 -2.12267,-2.89702 -4.87581,-3.28667 -8.50329,-1.20346 -16.2202,4.52935 -17.59593,13.071784 -0.85848,5.33065 1.52217,8.5616 5.86935,7.96575 3.36363,-0.46103 4.80331,-2.20118 4.84155,-5.85195 0.024,-2.27228 0.007,-2.31412 -1.12236,-2.81124 -0.82395,-0.362664 -1.14653,-0.737314 -1.14653,-1.331654 0,-1.36067 1.29657,-1.57662 8.71936,-1.45228 5.7966,0.0971 6.86545,0.20001 7.37482,0.71001 0.55919,0.55984 0.42665,1.01036 -2.1603,7.343164 -1.51585,3.7107 -3.07386,7.15075 -3.4623,7.64455 -1.00027,1.27164 -2.76501,0.97042 -5.30412,-0.90533 -1.07929,-0.79731 -2.21174,-1.44966 -2.51661,-1.44966 -0.30488,0 -1.46259,0.44979 -2.57271,0.99953 -4.84854,2.40103 -8.10267,3.26529 -10.83786,2.87841 z m -139.34237,-0.56644 c -1.16149,-0.28093 -3.58014,-1.22031 -5.37478,-2.08752 -3.68327,-1.77986 -4.52927,-1.8855 -6.69677,-0.83623 -1.70837,0.82701 -2.57359,0.6984 -2.57359,-0.38255 0,-1.1308 3.78688,-8.39691 4.60418,-8.83431 0.92791,-0.4966 1.61247,0.0106 1.92308,1.42473 0.36709,1.67134 2.05192,3.63478 4.08328,4.7585 1.65353,0.9147 2.27202,1.05733 4.55891,1.05132 3.23599,-0.009 4.7032,-0.67933 5.27497,-2.4118 0.71728,-2.17337 -0.0373,-3.07596 -4.53743,-5.42738 -5.53344,-2.891354 -7.53561,-6.328124 -6.25432,-10.735624 1.16613,-4.01131 4.21921,-7.14564 7.98622,-8.19871 5.19584,-1.45251 9.12424,-1.02235 13.96777,1.52949 2.37368,1.25058 2.81347,1.36689 4.50731,1.19207 1.52632,-0.15753 1.91814,-0.0865 2.09729,0.38038 0.26523,0.69116 -1.36299,4.69698 -2.31154,5.68696 l -0.67603,0.70556 -0.51674,-0.70556 c -0.2842,-0.38805 -0.87034,-1.25624 -1.30252,-1.92929 -1.66741,-2.59673 -6.96442,-4.59758 -9.25947,-3.4976 -3.24414,1.55488 -1.92529,5.55945 2.58975,7.86359 4.58725,2.34098 6.58805,4.91736 6.59731,8.495154 0.004,1.52353 -0.2287,2.59652 -0.82592,3.80939 -1.05363,2.1398 -3.9433,5.31702 -5.83014,6.41033 -3.14924,1.82478 -8.48659,2.59632 -12.03082,1.7391 z m 189.83337,0.2871 c -0.19512,-0.31569 -3.21116,-0.4236 -11.83947,-0.4236 -10.13318,0 -11.63549,-0.0697 -12.04136,-0.55873 -0.70612,-0.85085 -0.0152,-1.60141 1.92913,-2.09505 0.99148,-0.25175 2.10474,-0.85203 2.68168,-1.44597 0.5425,-0.55854 2.84155,-4.42865 5.10896,-8.60025 3.82404,-7.035444 4.09564,-7.661374 3.7507,-8.643054 -0.34117,-0.9709 -0.32907,-1.00176 0.14665,-0.37355 0.51329,0.67787 0.52384,0.67787 1.04309,0 0.80751,-1.05422 1.35777,-3.16355 1.09668,-4.20385 -0.15688,-0.62499 -0.64234,-1.10725 -1.45739,-1.44781 -1.39425,-0.58256 -1.64017,-1.66375 -0.51534,-2.26575 0.48228,-0.2581 6.00671,-0.3461 17.39029,-0.27699 15.38054,0.0934 16.75927,0.15095 17.6537,0.7373 1.73634,1.13826 1.90193,2.09357 0.77255,4.45653 -2.14175,4.48106 -3.10123,4.80377 -5.27724,1.77493 -1.62066,-2.25582 -3.67802,-3.72372 -5.88137,-4.19625 -1.92645,-0.41315 -6.61825,-0.51032 -7.54112,-0.15618 -0.72855,0.27957 -5.58743,9.91599 -5.3335,10.57773 0.13818,0.36011 0.91196,0.48695 2.93281,0.48075 4.04446,-0.0124 5.03633,-0.30478 7.72376,-2.27671 0.31227,-0.22913 0.60222,-0.2126 0.86409,0.0493 0.2903,0.29031 -0.14852,1.44977 -1.66596,4.4018 -1.66751,3.243884 -2.22211,4.030574 -2.91017,4.127794 -0.52592,0.0743 -0.97695,-0.10662 -1.18279,-0.47446 -0.60039,-1.07282 -3.08917,-1.92267 -5.65482,-1.93096 l -2.39599,-0.008 -1.06931,2.38125 c -0.7063,1.57289 -1.00471,2.70526 -0.87912,3.33573 0.14464,0.72607 0.0706,0.90861 -0.30942,0.76279 -0.49262,-0.18905 -1.59322,1.82249 -1.59322,2.91192 0,0.61689 2.49979,0.66741 3.10445,0.0628 0.32924,-0.32926 0.42333,-0.32926 0.42333,0 0,0.28866 0.7801,0.42333 2.45209,0.42333 4.69029,0 8.41678,-1.28768 11.8727,-4.10257 1.92458,-1.56757 3.3141,-1.98699 3.3141,-1.00034 0,0.73185 -4.44154,6.58168 -5.40508,7.11888 -0.49841,0.27788 -2.52508,0.43287 -5.76623,0.44098 -3.5657,0.009 -5.03812,0.13387 -5.13888,0.4361 -0.10985,0.3296 -0.19928,0.3296 -0.40298,0 z m 120.06546,-1.07049 c -1.4616,-0.5281 -3.39485,-1.39234 -4.29617,-1.92053 -1.98642,-1.16414 -3.82562,-1.23911 -5.70371,-0.23252 -1.53282,0.82153 -2.33574,0.69438 -2.33574,-0.36986 0,-1.04902 3.79907,-8.46274 4.46821,-8.71951 0.85016,-0.32625 1.54397,0.27669 2.06615,1.79561 1.00884,2.93452 4.1819,5.13346 7.83015,5.42631 2.97512,0.23881 5.1101,-0.55441 5.88448,-2.18626 1.08394,-2.28428 -0.0268,-3.64861 -5.02574,-6.17196 -5.55922,-2.806304 -7.35736,-7.359854 -4.85571,-12.296604 2.40044,-4.73708 6.07879,-6.76127 12.3783,-6.8118 3.65799,-0.0293 6.64288,0.77949 9.43028,2.55536 1.51423,0.96474 1.83304,1.03662 3.61164,0.8144 2.55256,-0.31892 2.7281,0.13777 1.33251,3.46676 -1.33318,3.18011 -2.08654,3.46241 -3.30913,1.24006 -1.51966,-2.7623 -5.513,-4.77693 -8.74631,-4.4125 -1.94995,0.21979 -2.83983,1.1937 -2.83983,3.108 0,1.78857 1.65308,3.66185 4.633,5.25013 5.93813,3.16499 7.70043,7.325024 5.21236,12.304114 -1.27579,2.55311 -3.82683,5.30586 -5.89463,6.36078 -4.02104,2.05139 -9.50024,2.36811 -13.84011,0.80002 z m -406.25294,0.13833 c -0.42645,-1.11132 0.0969,-1.81116 2.05068,-2.74243 l 2.00977,-0.95794 5.13398,-10.229694 c 2.82369,-5.62633 5.13398,-10.62686 5.13398,-11.11229 0,-0.55625 -0.2935,-1.03716 -0.79375,-1.3006 -1.47362,-0.77603 -1.63509,-1.41132 -0.61736,-2.42904 0.66792,-0.66793 1.17592,-0.70556 9.525,-0.70556 8.34908,0 8.85708,0.0376 9.525,0.70556 0.38806,0.38805 0.70556,0.8553 0.70556,1.03833 0,0.46088 -1.44653,1.43111 -2.13367,1.43111 -0.31106,0 -0.89211,0.35719 -1.29122,0.79375 -0.97168,1.06288 -11.3895,21.855104 -11.14698,22.247514 0.251,0.40612 5.37374,-0.0222 8.00837,-0.66961 2.88322,-0.70849 5.2715,-2.08744 7.73865,-4.46818 2.0177,-1.94703 3.05818,-2.49636 3.05818,-1.61459 0,0.89327 -6.00774,9.70822 -6.89073,10.11053 -0.64164,0.29235 -5.09487,0.4117 -15.36194,0.4117 -12.26607,0 -14.48796,-0.0771 -14.65352,-0.50856 z m 127.15765,0.0676 c -1.57226,-1.26681 -0.68661,-3.08681 1.50209,-3.08681 0.77135,0 1.98262,-0.24241 2.69173,-0.53869 1.34684,-0.56274 9.62417,-7.06985 9.62417,-7.5659 0,-0.15672 -1.20625,-0.34587 -2.68058,-0.42032 -2.13434,-0.10778 -2.7813,-0.27314 -3.175,-0.81154 -0.95624,-1.307754 -0.44648,-2.227634 1.48244,-2.675094 0.756,-0.17537 3.27953,-0.32425 5.60786,-0.33086 l 4.23334,-0.012 8.69611,-7.17711 c 4.78286,-3.94742 8.96303,-7.27955 9.28924,-7.40474 0.99903,-0.38336 3.54154,-0.25312 4.16511,0.21335 0.36004,0.26935 1.94983,4.88556 4.08484,11.861 1.92243,6.281024 3.71158,11.557034 3.97588,11.724464 0.99473,0.63024 2.35716,0.33756 3.04853,-0.6549 1.16547,-1.67304 9.60279,-18.307634 9.60279,-18.932394 0,-0.34607 -0.51604,-0.81021 -1.23472,-1.11049 -1.27731,-0.53368 -1.6007,-1.41046 -0.81139,-2.19976 0.29968,-0.29967 2.38647,-0.42317 7.14375,-0.42279 5.71429,3.6e-4 6.89627,0.0929 7.89517,0.61736 0.86236,0.45281 2.5123,2.58164 6.20529,8.00632 2.7668,4.06422 5.18908,7.44233 5.38282,7.50691 0.19375,0.0646 1.40977,-1.8461 2.70235,-4.24596 3.17761,-5.89991 3.1145,-7.60114 -0.3369,-9.08058 -1.58567,-0.6797 -1.98272,-1.52158 -1.12304,-2.38126 0.54219,-0.54217 12.3577,-0.5936 13.35818,-0.0582 1.42515,0.76271 0.44849,2.45704 -1.41626,2.45704 -1.57177,0 -3.17955,2.34238 -9.56455,13.934724 -3.52668,6.40292 -6.73851,11.99886 -7.13736,12.43542 -0.63497,0.69498 -1.07206,0.79375 -3.51265,0.79375 -2.4469,0 -2.87341,-0.097 -3.49126,-0.79375 -0.38714,-0.43656 -2.89804,-5.0497 -5.57982,-10.25141 -2.68178,-5.201724 -4.97617,-9.557904 -5.09869,-9.680404 -0.12249,-0.12249 -0.4383,0.006 -0.70179,0.28544 -0.90212,0.95691 -7.21342,13.559244 -7.45588,14.887844 -0.22112,1.21164 -0.13145,1.4283 1.03258,2.49449 0.70111,0.64218 1.27472,1.4024 1.27472,1.68936 0,1.32544 -0.47187,1.36843 -15.02043,1.36843 -12.11347,0 -14.23702,-0.0762 -14.60909,-0.52459 -0.76532,-0.92216 -0.1058,-2.13684 1.84206,-3.39264 1.69838,-1.09496 1.8675,-1.32418 1.96515,-2.66384 0.0896,-1.22916 -0.0759,-1.67389 -1.02496,-2.75482 -2.03771,-2.32084 -3.15553,-2.65854 -8.79976,-2.65854 h -4.98348 l -2.30173,2.20486 c -1.26595,1.21267 -2.43914,2.56268 -2.6071,3.00001 -0.45403,1.18217 0.26299,2.39461 1.83543,3.10369 1.19207,0.53755 1.37058,0.77025 1.37058,1.78677 0,0.79444 -0.21855,1.28569 -0.68238,1.53392 -1.03621,0.55457 -15.96535,0.48667 -16.66339,-0.0758 z m 34.2791,-19.314584 c 0,-2.92119 -0.11183,-3.88056 -0.45233,-3.88056 -0.4572,0 -8.14412,6.11311 -9.03168,7.18256 -0.44118,0.53157 -0.0756,0.57855 4.50194,0.57855 h 4.98207 z m 147.47986,19.248944 c -0.64823,-0.78106 0.14054,-1.9042 1.85815,-2.64585 0.811,-0.35016 1.73034,-0.93505 2.043,-1.29974 0.31271,-0.36469 2.84068,-5.10808 5.61771,-10.540854 5.40272,-10.56935 5.60603,-11.23436 3.70004,-12.10279 -0.94771,-0.4318 -1.16516,-1.41608 -0.46708,-2.11416 0.30769,-0.30769 2.94591,-0.42333 9.65821,-0.42333 7.64272,0 9.30814,0.0883 9.65997,0.51224 0.70129,0.84501 0.11582,1.85959 -1.21744,2.1097 -0.70315,0.13192 -1.52146,0.6258 -1.95943,1.18259 -1.02426,1.30213 -10.9202,21.067254 -10.9202,21.810864 0,0.53182 0.35045,0.56967 3.33311,0.36001 5.79575,-0.4074 9.45865,-1.98065 12.82242,-5.50735 1.70243,-1.78493 2.54169,-2.20093 2.54169,-1.25988 0,0.28102 -1.3371,2.56308 -2.9713,5.07124 -2.38245,3.65658 -3.19688,4.63894 -4.10958,4.95711 -0.76917,0.26814 -5.68304,0.39681 -15.15357,0.39681 -11.7504,0 -14.08321,-0.0819 -14.4357,-0.50661 z m 40.35354,-0.002 c -0.94915,-0.70481 -0.28663,-1.72056 1.29388,-1.98382 1.48213,-0.24687 2.38633,-0.72964 3.36533,-1.79681 0.95303,-1.03888 10.29031,-18.216684 10.7939,-19.857574 0.44048,-1.43515 -0.25971,-2.83226 -1.69245,-3.37697 -1.05646,-0.40167 -1.14409,-1.58189 -0.15667,-2.11033 0.48229,-0.25811 6.00672,-0.34611 17.39029,-0.277 15.3785,0.0934 16.75938,0.15102 17.65339,0.73709 1.76848,1.15933 1.84799,2.17525 0.39063,4.9897 -0.70866,1.36861 -1.49691,2.7074 -1.75161,2.97509 -0.7741,0.81352 -2.03606,0.16955 -3.16869,-1.61694 -1.39372,-2.19834 -3.59812,-3.82818 -5.82302,-4.30534 -2.46581,-0.52882 -7.13295,-0.49559 -7.82426,0.0557 -0.9357,0.74623 -5.33336,9.70738 -5.08345,10.35864 0.19787,0.51566 0.68294,0.56646 3.86016,0.4043 3.62095,-0.1848 5.23688,-0.66166 6.20822,-1.83204 0.61394,-0.73976 1.43552,-0.7019 1.40935,0.0649 -0.0116,0.33955 -0.85521,2.28424 -1.87466,4.321534 -2.08383,4.16422 -2.81401,4.67733 -4.32975,3.04265 -1.05061,-1.13301 -3.10261,-1.69623 -5.68554,-1.56055 l -2.00646,0.1054 -2.01429,4.40972 c -1.10787,2.42535 -2.02456,4.60816 -2.03708,4.8507 -0.0173,0.33098 1.1026,0.44097 4.48916,0.44097 6.47129,0 9.67328,-0.97893 13.75477,-4.20517 1.82796,-1.44492 3.25269,-1.86153 3.25269,-0.95112 0,0.75702 -4.65413,6.66847 -5.64445,7.1693 -1.38391,0.6999 -33.82215,0.65132 -34.76939,-0.0521 z"
         id="path4531"
         inkscape:connector-curvature="0"
         sodipodi:nodetypes="cccsccccsccscccsccscscscccccccccccccscccssscccscsccsscscscccccccssccccsccccccccccccscccsccccssscccccsccccccccsccccccccscccccscsccccccscccsccccccsscccsscccscsscccccccccsccccsscscssssscssccccssscccscscccscccccscscsccssccccccccscccscscscccccsccsscccccscccccccssssscsccccscscccscccccsssccscccsssccsccsccscccscccccsccscsccccccscccscccscccccsccscccscccccccccccccccccscccccscccscssccccccccssccccscscscccscsccccccsccssccccssccccsccccccscsscccssccccsscccssccccsscccsccccccccccccsccccccccccccccccccccccccccccscsscsccccccccscsccccccscccssccccccssccscsscccsscsccscssccccccccccsccccccccccsccscccccssscsccscsccscccsscscscccccsscccsscsccsccccccccscccccccccccscccsssccc" />
      <g
         id="g4523" />
      <path
         sodipodi:nodetypes="cccsccccsccscccsccscscscccccccccccccscccssscccscsccsscscscccccccssccccsccccccccccccscccsccccssscccccsccccccccsccccccccscccccscsccccccscccsccccccsscccsscccscsscccccccccsccccsscscssssscssccccssscccscscccscccccscscsccssccccccccscccscscscccccsccsscccccscccccccssssscsccccscscccscccccsssccscccsssccsccsccscccscccccsccscsccccccscccscccscccccsccscccscccccccccccccccccscccccscccscssccccccccssccccscscscccscsccccccsccssccccssccccsccccccscsscccssccccsscccssccccsscccsccccccccccccsccccccccccccccccccccccccccccscsscsccccccccscsccccccscccssccccccssccscsscccsscsccscssccccccccccsccccccccccsccscccccssscsccscsccscccsscscscccccsscccsscsccsccccccccscccccccccccscccsssccc"
         inkscape:connector-curvature="0"
         id="path4533"
         d="m -280.62508,552.46132 c -12.23676,-1.57385 -25.77394,-7.42493 -35.67017,-15.41751 -5.47204,-4.41942 -12.50721,-12.56635 -14.91414,-17.27102 -0.32262,-0.63059 -0.83002,-1.14652 -1.12751,-1.14652 -0.2975,0 -0.43995,-0.1634 -0.31652,-0.36312 0.12344,-0.19971 -0.34942,-1.69919 -1.05082,-3.33218 -0.70139,-1.63299 -1.51563,-3.77853 -1.80943,-4.76786 -0.39641,-1.33484 -0.76284,-1.88574 -1.42078,-2.13588 -0.49484,-0.18814 -5.75662,-0.33707 -11.90868,-0.33707 -9.04646,0 -11.14485,-0.0911 -11.7069,-0.50851 -0.54804,-0.40696 -0.60674,-0.63591 -0.294,-1.14653 0.36015,-0.58804 1.28002,-0.65184 11.74309,-0.81441 12.29896,-0.1911 12.26167,-0.18445 11.86879,-2.11667 -0.76966,-3.78494 -1.6394,-9.45949 -2.10877,-13.75833 -0.75498,-6.91447 -0.83188,-7.29767 -1.53056,-7.62462 -0.33426,-0.15642 -5.0358,-0.37018 -10.4478,-0.47503 -8.99453,-0.17425 -9.87358,-0.24545 -10.23055,-0.82865 -0.31246,-0.51049 -0.25365,-0.73966 0.29425,-1.14653 0.55534,-0.41236 2.42683,-0.5085 9.89855,-0.5085 7.18094,0 9.35754,-0.10514 9.86547,-0.47654 0.5806,-0.42454 0.62534,-0.79983 0.40993,-3.43958 -0.68354,-8.37657 -2.59849,-18.38259 -4.42331,-23.11273 -2.23565,-5.79499 -5.11746,-8.52488 -9.3588,-8.86533 l -2.24392,-0.18012 -0.874,1.3684 c -0.48073,0.75262 -5.7537,10.63731 -11.71769,21.96599 -11.56124,21.96062 -11.52681,21.87899 -10.2622,24.32449 0.75099,1.45223 2.04762,2.39238 3.65372,2.64921 2.79237,0.44652 3.78156,3.0794 1.73009,4.60493 -0.98471,0.73223 -1.25646,0.74156 -24.49224,0.84071 -16.38702,0.0699 -24.07422,-0.0197 -25.40596,-0.29615 -2.25506,-0.46815 -3.34603,-1.39772 -3.19066,-2.71865 0.18051,-1.53469 1.82322,-2.20797 6.18077,-2.53324 4.20412,-0.31383 5.81216,-0.8399 7.20782,-2.35808 0.80172,-0.87212 16.72621,-29.30857 18.52358,-33.07772 0.62227,-1.30484 0.62124,-1.35345 -0.0387,-1.83602 -0.48599,-0.35536 -1.78823,-0.49568 -4.59998,-0.49568 -4.34816,0 -5.64554,-0.43806 -4.90171,-1.65504 0.3422,-0.5599 1.08663,-0.66015 6.07999,-0.81876 5.0715,-0.1611 5.7652,-0.25697 6.38193,-0.88195 1.11777,-1.13274 14.13563,-24.90965 14.13563,-25.81848 0,-1.21714 -1.19599,-1.51744 -6.04337,-1.51744 -4.45481,0 -5.5983,-0.28939 -5.5983,-1.4168 0,-0.92034 0.54373,-1.00337 7.43835,-1.13572 4.67523,-0.0897 6.02707,-0.22779 6.72797,-0.68704 0.97515,-0.63893 12.5259,-21.12502 12.8639,-22.81502 0.49428,-2.47134 -1.81624,-4.54932 -5.58447,-5.02248 -3.67005,-0.46083 -5.03072,-1.54786 -4.20522,-3.3596 0.86014,-1.8878 1.01194,-1.89945 24.74006,-1.89945 h 21.89491 l 8.48861,0.0927 c 0,0 7.87661,0.2675 10.89145,1.11327 8.29052,2.32579 15.11438,7.38419 17.67685,13.10354 2.42499,5.4125 2.27651,13.08606 -0.36241,18.72523 -3.52164,7.52564 -12.22386,15.13337 -23.66444,20.68817 -2.42535,1.17759 -4.46264,2.27166 -4.5273,2.43127 -0.0647,0.1596 -0.4764,0.29019 -0.91493,0.29019 -0.43851,0 -1.71719,0.31649 -2.84149,0.7033 -1.1243,0.38682 -3.41136,0.95638 -5.08233,1.2657 -1.67096,0.30931 -3.15305,0.67134 -3.29357,0.80451 -0.14051,0.13316 0.8146,1.66703 2.12246,3.4086 1.30785,1.74158 5.19433,7.65788 5.19433,7.65788 l 6.9355,11.7689 c 0,0 4.97854,9.29406 6.7521,12.93208 1.77359,3.63803 3.33297,6.61459 3.46537,6.61459 0.37864,0 4.18433,-6.18633 4.18433,-6.80183 0,-0.3195 -0.52825,-0.72613 -1.25479,-0.96591 -0.98707,-0.32576 -1.23173,-0.57624 -1.14653,-1.17389 0.0924,-0.64817 0.41173,-0.79236 2.17428,-0.98169 1.5175,-0.16301 2.29132,-0.44729 2.91489,-1.07083 0.46687,-0.46689 3.5287,-5.05015 6.80399,-10.18501 3.2753,-5.13487 6.21016,-9.38745 6.52191,-9.45018 0.83891,-0.16882 0.73406,1.68997 -0.33845,6.00061 -1.20598,4.8472 -1.55494,12.94551 -0.72539,16.83443 1.42269,6.66964 5.00137,10.95944 10.80287,12.94955 2.58061,0.88524 10.94888,0.89013 14.64028,0.009 6.75781,-1.61387 10.86979,-5.44757 13.04978,-12.16664 0.56875,-1.7529 0.57097,-1.92906 0.0314,-2.46945 -0.37744,-0.3779 -1.41062,-0.64373 -2.94721,-0.75828 -1.9563,-0.14585 -2.38792,-0.29126 -2.49227,-0.83967 -0.18302,-0.96146 0.54148,-1.2655 3.02997,-1.2716 3.0075,-0.007 3.79586,-0.74567 3.46439,-3.24443 -0.57736,-4.35234 -3.85181,-10.99072 -8.50181,-17.23598 -3.64447,-4.89459 -1.52213,-4.36889 -18.45903,-4.57223 l -14.69189,-0.17639 v -0.88194 -0.88194 l 12.17084,-0.20761 c 6.69396,-0.11418 12.51705,-0.32826 12.94017,-0.47574 0.42316,-0.14747 0.85475,-0.49066 0.95913,-0.76264 0.16785,-0.43741 -4.46433,-6.39132 -8.54985,-10.98943 l -1.33216,-1.49931 h -3.44293 c -3.53173,0 -4.80769,-0.3333 -4.80769,-1.25586 0,-0.79465 1.52297,-1.21358 4.41187,-1.21358 1.43111,0 2.69854,-0.15612 2.81644,-0.34692 0.11793,-0.19081 -0.17361,-1.57987 -0.64788,-3.08681 -1.29512,-4.11519 -1.75267,-7.66641 -1.5663,-12.15661 0.13593,-3.27418 0.36774,-4.58456 1.29389,-7.31389 0.62057,-1.82879 1.0476,-3.53535 0.949,-3.79236 -0.11857,-0.30893 -0.83213,-0.4673 -2.10548,-0.4673 -1.29822,0 -2.11085,-0.18469 -2.49269,-0.56654 -0.95233,-0.95234 -0.0557,-1.54423 2.41141,-1.59187 3.76717,-0.0727 4.09526,-0.2362 5.93993,-2.95953 2.83023,-4.17832 4.23594,-5.79605 6.93448,-7.98045 6.46021,-5.22933 14.13814,-7.45446 25.79977,-7.47696 9.11546,-0.0176 13.43001,1.19745 20.89761,5.88509 2.08103,1.30634 4.28346,2.54938 4.89429,2.76231 1.73585,0.60513 8.06913,0.1076 11.8926,-0.93426 1.80877,-0.49287 3.74209,-0.89612 4.29631,-0.89612 1.27215,0 2.22793,0.91882 1.98063,1.90407 -0.22803,0.90852 -17.87694,32.46384 -18.68466,33.40721 -0.75981,0.88741 -1.39711,0.8477 -2.56872,-0.16007 l -0.96738,-0.83212 0.95426,-5.42968 c 0.52483,-2.98633 0.95134,-5.70192 0.94774,-6.03464 -0.01,-0.8985 -1.12332,-1.33468 -3.42297,-1.34073 -2.33959,-0.006 -3.05724,-0.32339 -2.87676,-1.2716 0.10707,-0.56247 0.54335,-0.69009 2.87062,-0.83967 3.172,-0.20387 3.40925,-0.41304 3.41715,-3.01268 0.0233,-7.62169 -5.72707,-14.38607 -14.13119,-16.62348 -3.40769,-0.90721 -9.6871,-0.80088 -12.65364,0.21426 -4.31239,1.47568 -6.96423,4.22772 -8.71107,9.0402 -1.21384,3.34416 -1.40607,6.08533 -0.6802,9.69994 1.50732,7.5057 5.64741,14.5357 13.57754,23.05505 14.41439,15.48538 19.76748,31.45629 14.72653,43.93648 -4.58325,11.34691 -17.7885,20.52999 -32.00837,22.25896 -8.05085,0.97889 -22.46317,-2.13413 -31.37984,-6.77798 l -3.62246,-1.88658 -4.09554,0.009 c -4.77086,0.0103 -7.48997,0.67671 -9.17198,2.24793 -1.43562,1.34108 -1.41058,1.95837 0.32333,7.97379 4.18994,14.53617 6.43971,19.32381 12.07914,25.70548 8.25366,9.33994 23.50301,14.82961 36.95373,13.30311 12.46035,-1.41411 25.2482,-6.39853 33.79096,-13.17098 1.65837,-1.31471 2.19632,-1.95296 2.11666,-2.51127 -0.0987,-0.69193 -0.37373,-0.76191 -3.63459,-0.92495 -3.48076,-0.17404 -3.52778,-0.18815 -3.52778,-1.05833 v -0.88195 l 6.22236,-0.17639 6.2224,-0.17639 2.24427,-1.92435 c 5.22485,-4.48 8.53581,-7.64953 11.35874,-10.87355 5.06331,-5.78276 9.47656,-11.4383 9.16718,-11.74769 -0.16165,-0.16166 -1.64239,-0.34065 -3.29054,-0.39777 -2.93352,-0.10167 -2.99663,-0.12243 -2.99663,-0.9858 0,-0.87355 0.0353,-0.88363 3.70416,-1.05834 2.86611,-0.13648 3.98354,-0.33951 4.93889,-0.89739 2.52557,-1.47478 11.61542,-14.89338 13.34269,-19.69666 0.83517,-2.32256 0.38429,-2.68928 -3.30651,-2.68928 -2.22017,0 -3.06751,-0.13728 -3.49677,-0.56654 -1.04458,-1.04458 -0.0818,-1.42906 4.14592,-1.65563 2.19223,-0.11748 4.24963,-0.31481 4.572,-0.43851 0.32233,-0.1237 1.07078,-1.08377 1.66324,-2.1335 0.59242,-1.04973 1.23846,-1.9086 1.43563,-1.9086 0.19716,0 0.52645,0.43656 0.73173,0.97014 0.57891,1.50471 -0.41737,4.47957 -3.5148,10.49514 -9.50577,18.46131 -30.47816,43.04128 -47.32313,55.46343 -14.62532,10.78527 -30.70973,17.66155 -46.00131,19.66611 -4.38936,0.57539 -13.26091,0.65657 -17.14591,0.1569 z m -59.68623,-115.14748 c 5.01033,-2.33251 10.18389,-6.97966 13.56138,-12.18151 2.29291,-3.97829 6.18911,-12.61585 6.91974,-14.50938 1.17471,-3.08975 1.44364,-9.26058 0.53682,-12.31807 -0.41208,-1.38936 -1.02859,-2.37678 -2.24268,-3.59181 -1.39764,-1.18812 -6.99513,-2.94882 -9.08544,-0.88248 -0.87432,0.94936 -20.91192,37.49465 -20.91192,38.13992 0,0.24643 0.61672,0.79467 1.3705,1.21831 0.75375,0.42365 2.69844,1.72154 4.32153,2.88422 1.62306,1.16267 3.10977,2.11374 3.3038,2.11347 0.19403,-2.6e-4 1.19585,-0.39296 2.22627,-0.87267 z m -422.73741,96.83465 c -52.78975,-0.1404 -66.48253,-0.26802 -67.10789,-0.62545 -1.88962,-1.08003 -1.73868,-2.72426 0.35515,-3.86882 1.01042,-0.55232 2.62064,-0.64052 14.5582,-0.7974 11.97724,-0.1574 13.52294,-0.24251 14.35854,-0.79063 1.72059,-1.12866 2.74171,-2.5302 4.94994,-6.79409 2.84056,-5.48485 2.79182,-5.3494 2.15409,-5.98713 -0.43703,-0.43703 -1.56674,-0.53926 -5.95915,-0.53926 -5.53794,0 -7.22971,-0.28398 -7.22971,-1.21358 0,-1.03958 1.36013,-1.25586 7.89771,-1.25586 4.07963,0 6.85939,-0.14873 7.40217,-0.39604 0.62797,-0.28612 1.90533,-2.34663 4.60271,-7.42463 2.05344,-3.86574 3.73352,-7.15542 3.73352,-7.31041 0,-0.15499 -0.33408,-0.58421 -0.7424,-0.95383 -0.71212,-0.64462 -1.70378,-0.67603 -24.30642,-0.76981 -20.2397,-0.084 -23.62485,-0.17107 -23.99524,-0.61736 -0.34014,-0.40984 -0.33846,-0.63136 0.008,-1.04876 0.38223,-0.46055 3.44643,-0.52916 23.63116,-0.52916 23.55693,0 26.20011,-0.12669 27.83387,-1.33408 0.83445,-0.61668 12.03498,-21.18238 12.03498,-22.09785 0,-1.20696 -1.08141,-1.43731 -7.30766,-1.55658 -4.92046,-0.0943 -6.18116,-0.218 -6.33614,-0.62186 -0.10641,-0.2773 0.002,-0.74028 0.24197,-1.02885 0.35308,-0.42543 1.53208,-0.52467 6.23325,-0.52467 6.23512,0 8.28519,-0.32138 9.73387,-1.52593 0.82166,-0.6832 9.42915,-16.35931 9.42915,-17.17254 0,-0.9354 -1.92985,-1.05729 -16.82194,-1.06249 -8.50148,-0.003 -15.67128,-0.14106 -15.93291,-0.30686 -0.26162,-0.1658 -0.41834,-0.59993 -0.34825,-0.96473 0.12202,-0.63511 0.83897,-0.67078 16.87985,-0.83968 14.41827,-0.15181 16.8932,-0.25442 17.76277,-0.73648 1.45588,-0.80708 15.83655,-27.74993 15.67756,-29.37264 -0.19167,-1.95618 -0.41284,-1.98274 -16.55652,-1.98845 -12.56293,-0.004 -14.74821,-0.081 -15.12072,-0.52988 -0.23949,-0.28857 -0.34668,-0.75599 -0.23819,-1.03871 0.16794,-0.43763 2.59874,-0.53005 16.35545,-0.62185 17.92477,-0.11961 17.85892,-0.11136 19.58347,-2.45164 1.42041,-1.92754 8.03999,-14.61085 8.03999,-15.40485 0,-1.08927 -0.55878,-1.28432 -4.23333,-1.47772 -3.29259,-0.17329 -3.35139,-0.19186 -3.35139,-1.05833 v -0.88195 l 4.6383,-0.17732 c 3.91673,-0.14974 4.75441,-0.2824 5.38464,-0.85275 0.9868,-0.89304 10.26178,-18.19938 10.26178,-19.14763 0,-0.4054 -0.25111,-0.83345 -0.55802,-0.95122 -0.30691,-0.11778 -3.44222,-0.21656 -6.96736,-0.21953 -3.52514,-0.003 -6.6234,-0.14106 -6.88502,-0.30686 -0.26163,-0.1658 -0.41847,-0.59993 -0.34853,-0.96474 0.11859,-0.61865 0.64913,-0.67528 7.88401,-0.84159 5.59566,-0.12862 8.02129,-0.31373 8.70592,-0.66437 0.65502,-0.33549 1.6652,-1.8104 3.26058,-4.76059 1.27135,-2.35098 2.31271,-4.53288 2.31415,-4.84868 0.007,-1.48308 -0.47699,-1.53444 -16.19082,-1.71888 l -15.02741,-0.17639 v -0.88195 -0.88194 l 16.24393,-0.17639 c 14.5612,-0.15813 16.33946,-0.23905 17.16623,-0.78114 1.09836,-0.72016 3.8079,-5.47361 3.8079,-6.68033 0,-0.46652 -0.25887,-1.21781 -0.57527,-1.66953 -1.15202,-1.64474 -2.24578,-1.80512 -12.30996,-1.80512 -10.00216,0 -11.94915,-0.2344 -13.22462,-1.59206 -1.06313,-1.13166 -0.6493,-2.18597 1.18491,-3.01882 1.37539,-0.62451 2.60177,-0.66577 20.00369,-0.67304 12.86946,-0.005 18.65575,-0.12503 18.92199,-0.39126 0.27617,-0.27618 0.44986,-0.27618 0.62054,0 0.1671,0.27037 7.67502,0.38351 25.45115,0.38351 26.44091,0 26.70964,0.0147 27.96488,1.52827 0.71977,0.86791 0.20619,2.24786 -1.10284,2.96323 -0.99972,0.54634 -2.49902,0.64568 -12.07752,0.80017 -10.35172,0.16696 -11.01152,0.21708 -12.34723,0.93783 -0.77611,0.41879 -2.34958,1.76389 -2.34958,1.76389 l -80.37517,150.0136 c 0,0 16.75938,-1.64144 23.23633,-4.22847 7.74193,-3.69085 13.66601,-13.30186 17.53046,-18.14819 10.35294,-12.99835 12.65425,-16.13202 12.08458,-16.45543 -0.062,-0.0352 -3.60523,-0.15426 -7.87384,-0.26458 l -7.76111,-0.20058 v -0.88195 -0.88194 l 9.01621,-0.17639 c 7.22064,-0.14127 9.16998,-0.28177 9.78831,-0.70556 1.06644,-0.7309 17.37357,-21.25904 17.23472,-21.69583 -0.0617,-0.19403 -1.20412,-0.40048 -2.53876,-0.45877 -2.55652,-0.11166 -3.33798,-0.45978 -3.33798,-1.48696 0,-0.89372 0.68575,-1.05288 4.53647,-1.05288 2.44677,0 3.63233,-0.14842 4.16483,-0.5214 0.89482,-0.62676 18.10981,-22.20472 18.10981,-22.69957 0,-0.8261 -2.51445,-1.1207 -9.56523,-1.1207 -6.71611,0 -7.37237,-0.0543 -7.68385,-0.63637 -0.83188,-1.55438 -0.31424,-1.6461 10.34477,-1.83307 8.32539,-0.14604 10.13981,-0.26745 10.54433,-0.70556 0.26873,-0.29104 2.10486,-2.55184 4.0803,-5.02401 1.97544,-2.47216 4.05487,-4.73435 4.62095,-5.02708 1.40955,-0.72891 22.05836,-0.77494 23.01084,-0.0513 1.57916,1.19977 1.70182,-0.0406 -4.87183,49.26507 -4.29383,32.20586 -6.16241,47.20681 -5.99285,48.11061 0.31763,1.69312 1.32358,2.68504 2.72302,2.68504 1.27823,0 3.17932,-1.07202 3.92104,-2.21107 1.36339,-2.09375 34.47614,-62.71759 34.663,-63.46209 0.15443,-0.61528 3.6e-4,-1.05057 -0.54706,-1.54644 -0.67025,-0.60703 -1.4478,-0.71136 -6.45818,-0.86651 l -5.69619,-0.17639 v -0.88194 -0.88195 l 6.87917,-0.19951 c 7.74481,-0.22463 8.58506,-0.45351 9.98888,-2.72096 0.44705,-0.72207 2.90681,-5.13504 5.46614,-9.80661 3.12756,-5.70877 4.65331,-8.85051 4.65331,-9.58183 0,-1.53349 -1.68993,-2.9147 -3.56617,-2.9147 -1.79123,0 -3.67331,-0.78921 -4.19162,-1.75768 -0.32462,-0.60656 -0.28937,-0.93744 0.17544,-1.64683 1.2319,-1.88013 1.31858,-1.88715 23.28096,-1.88715 21.87756,0 22.40071,0.0414 23.05987,1.82325 0.6464,1.74738 -0.35745,2.89605 -3.16231,3.61852 -1.43542,0.36974 -2.19836,0.82545 -3.09068,1.8461 -1.52291,1.74191 -47.56101,83.27067 -48.47568,85.84546 -0.54087,1.52255 -0.65059,2.51998 -0.50962,4.63291 0.30171,4.52224 1.65539,6.33826 5.22995,7.01616 2.27545,0.43153 3.40743,1.13325 3.69843,2.29269 0.35999,1.43431 -0.6222,2.51749 -2.68366,2.95959 -1.24563,0.26714 -16.44938,0.38476 -49.73449,0.38476 h -47.94042 l -0.55934,0.79375 c -0.30764,0.43657 -4.61539,7.86882 -9.57279,16.51612 -4.9574,8.6473 -9.51689,16.34668 -10.1322,17.10972 l -1.11873,1.38736 z m 33.3375,-7.5788 c 9.52054,-1.31848 19.27516,-4.75714 23.19514,-7.80996 8.38984,-5.92183 18.3727,-16.7489 25.84306,-25.49266 4.34381,-5.11929 8.38254,-9.60756 8.97496,-9.97391 0.64779,-0.40059 1.56928,-0.62778 2.31185,-0.56997 1.10221,0.0858 1.24629,0.21528 1.34255,1.20628 0.0822,0.84618 -0.52596,2.24336 -2.55763,5.87598 -2.72725,4.87629 -2.99364,5.53916 -2.22451,5.53523 1.29358,-0.007 8.90508,-2.29411 11.11799,-3.34134 3.09023,-1.46239 6.0167,-4.12492 7.07346,-6.43547 0.52148,-1.14019 1.55583,-6.25564 3.19426,-15.79733 1.33267,-7.76111 2.35499,-14.23017 2.27181,-14.37569 -0.0832,-0.14552 -7.34731,-0.26458 -16.14252,-0.26458 h -15.99128 l -9.91071,13.23064 c -5.4509,7.27685 -10.012,13.63418 -10.1358,14.1274 -0.45451,1.81093 0.0472,4.6449 1.08834,6.14722 1.78531,2.5762 3.9918,3.8419 7.71831,4.42744 2.85822,0.4491 3.92033,3.02102 1.87574,4.54213 -0.93674,0.6969 -1.54873,0.75089 -10.40695,0.91799 -5.17642,0.0976 -9.67905,0.058 -10.00585,-0.0882 -0.32679,-0.14616 -7.88951,-0.26574 -16.80605,-0.26574 -14.92936,0 -16.26907,0.0488 -16.9347,0.61736 -0.39754,0.33954 -3.7754,6.3176 -7.50634,13.28456 -6.52863,12.19118 -6.76444,12.70124 -6.27512,13.57303 0.92933,1.65571 2.30161,1.81627 14.07333,1.64654 7.08827,-0.1022 12.14404,-0.34684 14.81666,-0.71696 z m 83.11801,-76.44514 c 0.34165,-0.55282 8.2687,-50.48474 8.04959,-50.70385 -0.0938,-0.0938 -0.47197,0.13816 -0.84041,0.51544 -1.53002,1.56672 -38.05174,50.06992 -37.89382,50.32544 0.2961,0.47911 30.38689,0.34473 30.68464,-0.13703 z m 99.6987,48.02207 c -1.95302,-0.38939 -3.45719,-1.47944 -4.27492,-3.09798 -0.35936,-0.71126 -2.99005,-12.14962 -5.846,-25.41855 l -5.19262,-24.12535 1.00328,-0.96818 c 0.55181,-0.53249 11.87766,-9.58011 25.16857,-20.10581 13.2909,-10.52571 24.70066,-19.633 25.355,-20.23843 1.68243,-1.55664 2.85956,-4.21817 2.86377,-6.47507 0.003,-1.51943 -0.16865,-2.03913 -0.96808,-2.93385 -0.81979,-0.91751 -1.3335,-1.13223 -3.28903,-1.37475 -2.67436,-0.33167 -3.79114,-0.90483 -4.09477,-2.10157 -0.28025,-1.1046 0.19038,-1.83079 1.67897,-2.59069 1.13675,-0.58028 4.87146,-0.61684 63.0675,-0.61736 57.05398,-3.5e-4 61.95562,0.0452 63.10066,0.58858 1.59629,0.75749 2.65691,2.42095 2.43604,3.8206 -0.15332,0.97144 -17.08101,34.69385 -17.92704,35.71328 -0.4898,0.59017 -4.31274,0.59454 -4.78335,0.005 -0.22017,-0.27559 -0.24359,-1.16866 -0.0625,-2.38125 0.15942,-1.06715 0.4015,-4.40871 0.53796,-7.42568 0.71515,-15.80943 -3.59153,-24.15958 -13.26237,-25.71425 -1.26118,-0.20275 -4.31345,-0.36983 -6.78282,-0.3713 -4.2683,-0.002 -4.51545,0.0365 -5.00973,0.79109 -1.32295,2.01962 -23.40875,44.55296 -23.2597,44.79408 0.2902,0.46957 8.40031,0.29845 11.19474,-0.23621 3.11576,-0.59615 6.16189,-1.76672 8.90584,-3.42235 2.42806,-1.46504 6.89892,-5.57463 8.933,-8.21121 0.83936,-1.08795 1.90398,-2.07294 2.36587,-2.18886 0.90678,-0.22759 1.88891,0.36521 1.88891,1.14009 0,0.83127 -21.66302,38.64116 -22.35108,39.01076 -1.24996,0.67147 -1.32221,-0.19206 -0.37656,-4.50105 1.1586,-5.27925 1.29664,-9.93859 0.35222,-11.89068 -1.39908,-2.89198 -3.20086,-3.48669 -10.15411,-3.35156 l -5.0413,0.098 -11.60043,23.12212 c -9.2232,18.38384 -11.54748,23.2889 -11.34209,23.936 0.15942,0.50238 0.88628,1.10374 1.89904,1.57118 1.47126,0.67909 2.22363,0.75456 7.28514,0.73081 10.60842,-0.0498 17.99703,-2.45579 26.10556,-8.50094 3.93485,-2.93355 12.7991,-11.74514 18.30814,-18.19938 4.34482,-5.09026 5.8582,-6.25562 8.12374,-6.25562 1.64024,0 2.18221,0.92577 1.4926,2.54958 -0.80684,1.89985 -18.2124,31.77684 -19.04312,32.68793 -0.4221,0.46291 -1.48185,1.17729 -2.35497,1.5875 l -1.5875,0.74582 -50.97639,0.053 c -28.03702,0.0292 -51.65576,-0.0824 -52.48609,-0.24796 z m 30.51155,-6.31901 c 0.62283,-0.37976 1.51574,-1.29198 1.98425,-2.02715 1.57612,-2.47321 23.16529,-44.06208 23.16529,-44.62507 0,-0.94321 -1.01117,-1.10955 -7.65743,-1.25969 -4.94991,-0.11182 -6.51706,-0.25878 -6.83417,-0.64087 -0.31469,-0.37919 -0.30818,-0.62024 0.0277,-1.02495 0.35802,-0.43139 1.52309,-0.52955 6.30499,-0.53121 7.20683,-0.002 9.82532,-0.37093 10.83109,-1.52391 0.40252,-0.46146 4.83044,-8.66709 9.83978,-18.23474 7.04646,-13.45847 9.02822,-17.52245 8.75581,-17.9557 -0.27958,-0.44471 -1.24457,-0.59632 -4.68722,-0.73639 -3.59509,-0.14627 -4.40041,-0.28013 -4.71731,-0.78404 -0.7541,-1.19919 0.23142,-1.49894 5.54457,-1.68645 4.06139,-0.14333 5.21621,-0.3009 6.00809,-0.81976 1.03537,-0.67838 3.04169,-4.46805 3.04215,-5.7462 0,-1.0485 -1.31643,-2.60177 -2.69346,-3.17713 -1.75878,-0.73486 -12.58916,-0.67672 -14.84465,0.0797 -2.5104,0.84191 -6.69572,3.43636 -11.14125,6.90635 -2.17378,1.69675 -12.31928,9.55988 -22.54558,17.47363 -10.22629,7.91375 -18.68098,14.63667 -18.78819,14.93983 -0.21788,0.61612 10.93089,58.62316 11.45564,59.60367 0.18344,0.34276 0.82554,1.0372 1.42688,1.5432 1.37727,1.15889 3.82927,1.25962 5.52302,0.22689 z m -49.55093,-125.79366 c -7.72312,-2.07966 -12.51601,-9.6974 -10.90331,-17.32956 0.76798,-3.63448 2.18799,-6.30092 4.69726,-8.82035 3.84837,-3.86393 9.97597,-6.15166 16.52035,-6.16784 5.53053,-0.0137 9.32997,1.36791 12.40811,4.51194 5.5777,5.6971 4.46983,15.30958 -2.53092,21.95961 -5.45161,5.1785 -13.74918,7.58096 -20.19149,5.8462 z m 6.98626,-6.44907 c 3.47527,-2.20908 7.09285,-7.45768 8.06629,-11.70307 0.46596,-2.03219 0.48373,-6.03451 0.0321,-7.2225 -0.6072,-1.59707 -2.061,-2.65528 -3.64789,-2.65528 -5.39676,0 -11.87792,9.12924 -11.87792,16.73101 0,5.10961 3.46226,7.37033 7.42746,4.84984 z m 174.78227,5.93321 c -3.61767,-0.51172 -7.41419,-3.5993 -9.40957,-7.65243 -1.08127,-2.19636 -1.17376,-2.6496 -1.17376,-5.75051 0,-3.08357 0.0961,-3.56142 1.14434,-5.69072 4.27443,-8.68257 11.79216,-13.32978 21.78621,-13.46751 4.51697,-0.0622 7.11144,0.51107 11.06816,2.44581 2.13646,1.04469 2.87613,1.24111 4.13805,1.09887 0.97091,-0.10944 1.76646,-0.002 2.16104,0.29156 0.58812,0.43773 0.56448,0.57361 -0.40661,2.33712 -1.84298,3.34698 -2.67247,4.5182 -3.19994,4.5182 -0.28487,0 -0.87817,-0.74467 -1.31847,-1.65481 -1.05255,-2.17568 -2.12267,-2.89702 -4.87581,-3.28667 -8.50329,-1.20346 -16.2202,4.52935 -17.59593,13.07179 -0.85848,5.33065 1.52217,8.5616 5.86935,7.96575 3.36363,-0.46103 4.80331,-2.20118 4.84155,-5.85195 0.024,-2.27228 0.007,-2.31412 -1.12236,-2.81124 -0.82395,-0.36267 -1.14653,-0.73732 -1.14653,-1.33166 0,-1.36067 1.29657,-1.57662 8.71936,-1.45228 5.7966,0.0971 6.86545,0.20001 7.37482,0.71001 0.55919,0.55984 0.42665,1.01036 -2.1603,7.34317 -1.51585,3.7107 -3.07386,7.15075 -3.4623,7.64455 -1.00027,1.27164 -2.76501,0.97042 -5.30412,-0.90533 -1.07929,-0.79731 -2.21174,-1.44966 -2.51661,-1.44966 -0.30488,0 -1.46259,0.44979 -2.57271,0.99953 -4.84854,2.40103 -8.10267,3.26529 -10.83786,2.87841 z m -139.34237,-0.56644 c -1.16149,-0.28093 -3.58014,-1.22031 -5.37478,-2.08752 -3.68327,-1.77986 -4.52927,-1.8855 -6.69677,-0.83623 -1.70837,0.82701 -2.57359,0.6984 -2.57359,-0.38255 0,-1.1308 3.78688,-8.39691 4.60418,-8.83431 0.92791,-0.4966 1.61247,0.0106 1.92308,1.42473 0.36709,1.67134 2.05192,3.63478 4.08328,4.7585 1.65353,0.9147 2.27202,1.05733 4.55891,1.05132 3.23599,-0.009 4.7032,-0.67933 5.27497,-2.4118 0.71728,-2.17337 -0.0373,-3.07596 -4.53743,-5.42738 -5.53344,-2.89136 -7.53561,-6.32813 -6.25432,-10.73563 1.16613,-4.01131 4.21921,-7.14564 7.98622,-8.19871 5.19584,-1.45251 9.12424,-1.02235 13.96777,1.52949 2.37368,1.25058 2.81347,1.36689 4.50731,1.19207 1.52632,-0.15753 1.91814,-0.0865 2.09729,0.38038 0.26523,0.69116 -1.36299,4.69698 -2.31154,5.68696 l -0.67603,0.70556 -0.51674,-0.70556 c -0.2842,-0.38805 -0.87034,-1.25624 -1.30252,-1.92929 -1.66741,-2.59673 -6.96442,-4.59758 -9.25947,-3.4976 -3.24414,1.55488 -1.92529,5.55945 2.58975,7.86359 4.58725,2.34098 6.58805,4.91736 6.59731,8.49516 0.004,1.52353 -0.2287,2.59652 -0.82592,3.80939 -1.05363,2.1398 -3.9433,5.31702 -5.83014,6.41033 -3.14924,1.82478 -8.48659,2.59632 -12.03082,1.7391 z m 189.83337,0.2871 c -0.19512,-0.31569 -3.21116,-0.4236 -11.83947,-0.4236 -10.13318,0 -11.63549,-0.0697 -12.04136,-0.55873 -0.70612,-0.85085 -0.0152,-1.60141 1.92913,-2.09505 0.99148,-0.25175 2.10474,-0.85203 2.68168,-1.44597 0.5425,-0.55854 2.84155,-4.42865 5.10896,-8.60025 3.82404,-7.03545 4.09564,-7.66138 3.7507,-8.64306 -0.34117,-0.9709 -0.32907,-1.00176 0.14665,-0.37355 0.51329,0.67787 0.52384,0.67787 1.04309,0 0.80751,-1.05422 1.35777,-3.16355 1.09668,-4.20385 -0.15688,-0.62499 -0.64234,-1.10725 -1.45739,-1.44781 -1.39425,-0.58256 -1.64017,-1.66375 -0.51534,-2.26575 0.48228,-0.2581 6.00671,-0.3461 17.39029,-0.27699 15.38054,0.0934 16.75927,0.15095 17.6537,0.7373 1.73634,1.13826 1.90193,2.09357 0.77255,4.45653 -2.14175,4.48106 -3.10123,4.80377 -5.27724,1.77493 -1.62066,-2.25582 -3.67802,-3.72372 -5.88137,-4.19625 -1.92645,-0.41315 -6.61825,-0.51032 -7.54112,-0.15618 -0.72855,0.27957 -5.58743,9.91599 -5.3335,10.57773 0.13818,0.36011 0.91196,0.48695 2.93281,0.48075 4.04446,-0.0124 5.03633,-0.30478 7.72376,-2.27671 0.31227,-0.22913 0.60222,-0.2126 0.86409,0.0493 0.2903,0.29031 -0.14852,1.44977 -1.66596,4.4018 -1.66751,3.24389 -2.22211,4.03058 -2.91017,4.1278 -0.52592,0.0743 -0.97695,-0.10662 -1.18279,-0.47446 -0.60039,-1.07282 -3.08917,-1.92267 -5.65482,-1.93096 l -2.39599,-0.008 -1.06931,2.38125 c -0.7063,1.57289 -1.00471,2.70526 -0.87912,3.33573 0.14464,0.72607 0.0706,0.90861 -0.30942,0.76279 -0.49262,-0.18905 -1.59322,1.82249 -1.59322,2.91192 0,0.61689 2.49979,0.66741 3.10445,0.0628 0.32924,-0.32926 0.42333,-0.32926 0.42333,0 0,0.28866 0.7801,0.42333 2.45209,0.42333 4.69029,0 8.41678,-1.28768 11.8727,-4.10257 1.92458,-1.56757 3.3141,-1.98699 3.3141,-1.00034 0,0.73185 -4.44154,6.58168 -5.40508,7.11888 -0.49841,0.27788 -2.52508,0.43287 -5.76623,0.44098 -3.5657,0.009 -5.03812,0.13387 -5.13888,0.4361 -0.10985,0.3296 -0.19928,0.3296 -0.40298,0 z m 120.06546,-1.07049 c -1.4616,-0.5281 -3.39485,-1.39234 -4.29617,-1.92053 -1.98642,-1.16414 -3.82562,-1.23911 -5.70371,-0.23252 -1.53282,0.82153 -2.33574,0.69438 -2.33574,-0.36986 0,-1.04902 3.79907,-8.46274 4.46821,-8.71951 0.85016,-0.32625 1.54397,0.27669 2.06615,1.79561 1.00884,2.93452 4.1819,5.13346 7.83015,5.42631 2.97512,0.23881 5.1101,-0.55441 5.88448,-2.18626 1.08394,-2.28428 -0.0268,-3.64861 -5.02574,-6.17196 -5.55922,-2.80631 -7.35736,-7.35986 -4.85571,-12.29661 2.40044,-4.73708 6.07879,-6.76127 12.3783,-6.8118 3.65799,-0.0293 6.64288,0.77949 9.43028,2.55536 1.51423,0.96474 1.83304,1.03662 3.61164,0.8144 2.55256,-0.31892 2.7281,0.13777 1.33251,3.46676 -1.33318,3.18011 -2.08654,3.46241 -3.30913,1.24006 -1.51966,-2.7623 -5.513,-4.77693 -8.74631,-4.4125 -1.94995,0.21979 -2.83983,1.1937 -2.83983,3.108 0,1.78857 1.65308,3.66185 4.633,5.25013 5.93813,3.16499 7.70043,7.32503 5.21236,12.30412 -1.27579,2.55311 -3.82683,5.30586 -5.89463,6.36078 -4.02104,2.05139 -9.50024,2.36811 -13.84011,0.80002 z m -406.25294,0.13833 c -0.42645,-1.11132 0.0969,-1.81116 2.05068,-2.74243 l 2.00977,-0.95794 5.13398,-10.2297 c 2.82369,-5.62633 5.13398,-10.62686 5.13398,-11.11229 0,-0.55625 -0.2935,-1.03716 -0.79375,-1.3006 -1.47362,-0.77603 -1.63509,-1.41132 -0.61736,-2.42904 0.66792,-0.66793 1.17592,-0.70556 9.525,-0.70556 8.34908,0 8.85708,0.0376 9.525,0.70556 0.38806,0.38805 0.70556,0.8553 0.70556,1.03833 0,0.46088 -1.44653,1.43111 -2.13367,1.43111 -0.31106,0 -0.89211,0.35719 -1.29122,0.79375 -0.97168,1.06288 -11.3895,21.85511 -11.14698,22.24752 0.251,0.40612 5.37374,-0.0222 8.00837,-0.66961 2.88322,-0.70849 5.2715,-2.08744 7.73865,-4.46818 2.0177,-1.94703 3.05818,-2.49636 3.05818,-1.61459 0,0.89327 -6.00774,9.70822 -6.89073,10.11053 -0.64164,0.29235 -5.09487,0.4117 -15.36194,0.4117 -12.26607,0 -14.48796,-0.0771 -14.65352,-0.50856 z m 127.15765,0.0676 c -1.57226,-1.26681 -0.68661,-3.08681 1.50209,-3.08681 0.77135,0 1.98262,-0.24241 2.69173,-0.53869 1.34684,-0.56274 9.62417,-7.06985 9.62417,-7.5659 0,-0.15672 -1.20625,-0.34587 -2.68058,-0.42032 -2.13434,-0.10778 -2.7813,-0.27314 -3.175,-0.81154 -0.95624,-1.30776 -0.44648,-2.22764 1.48244,-2.6751 0.756,-0.17537 3.27953,-0.32425 5.60786,-0.33086 l 4.23334,-0.012 8.69611,-7.17711 c 4.78286,-3.94742 8.96303,-7.27955 9.28924,-7.40474 0.99903,-0.38336 3.54154,-0.25312 4.16511,0.21335 0.36004,0.26935 1.94983,4.88556 4.08484,11.861 1.92243,6.28103 3.71158,11.55704 3.97588,11.72447 0.99473,0.63024 2.35716,0.33756 3.04853,-0.6549 1.16547,-1.67304 9.60279,-18.30764 9.60279,-18.9324 0,-0.34607 -0.51604,-0.81021 -1.23472,-1.11049 -1.27731,-0.53368 -1.6007,-1.41046 -0.81139,-2.19976 0.29968,-0.29967 2.38647,-0.42317 7.14375,-0.42279 5.71429,3.6e-4 6.89627,0.0929 7.89517,0.61736 0.86236,0.45281 2.5123,2.58164 6.20529,8.00632 2.7668,4.06422 5.18908,7.44233 5.38282,7.50691 0.19375,0.0646 1.40977,-1.8461 2.70235,-4.24596 3.17761,-5.89991 3.1145,-7.60114 -0.3369,-9.08058 -1.58567,-0.6797 -1.98272,-1.52158 -1.12304,-2.38126 0.54219,-0.54217 12.3577,-0.5936 13.35818,-0.0582 1.42515,0.76271 0.44849,2.45704 -1.41626,2.45704 -1.57177,0 -3.17955,2.34238 -9.56455,13.93473 -3.52668,6.40292 -6.73851,11.99886 -7.13736,12.43542 -0.63497,0.69498 -1.07206,0.79375 -3.51265,0.79375 -2.4469,0 -2.87341,-0.097 -3.49126,-0.79375 -0.38714,-0.43656 -2.89804,-5.0497 -5.57982,-10.25141 -2.68178,-5.20173 -4.97617,-9.55791 -5.09869,-9.68041 -0.12249,-0.12249 -0.4383,0.006 -0.70179,0.28544 -0.90212,0.95691 -7.21342,13.55925 -7.45588,14.88785 -0.22112,1.21164 -0.13145,1.4283 1.03258,2.49449 0.70111,0.64218 1.27472,1.4024 1.27472,1.68936 0,1.32544 -0.47187,1.36843 -15.02043,1.36843 -12.11347,0 -14.23702,-0.0762 -14.60909,-0.52459 -0.76532,-0.92216 -0.1058,-2.13684 1.84206,-3.39264 1.69838,-1.09496 1.8675,-1.32418 1.96515,-2.66384 0.0896,-1.22916 -0.0759,-1.67389 -1.02496,-2.75482 -2.03771,-2.32084 -3.15553,-2.65854 -8.79976,-2.65854 h -4.98348 l -2.30173,2.20486 c -1.26595,1.21267 -2.43914,2.56268 -2.6071,3.00001 -0.45403,1.18217 0.26299,2.39461 1.83543,3.10369 1.19207,0.53755 1.37058,0.77025 1.37058,1.78677 0,0.79444 -0.21855,1.28569 -0.68238,1.53392 -1.03621,0.55457 -15.96535,0.48667 -16.66339,-0.0758 z m 34.2791,-19.31459 c 0,-2.92119 -0.11183,-3.88056 -0.45233,-3.88056 -0.4572,0 -8.14412,6.11311 -9.03168,7.18256 -0.44118,0.53157 -0.0756,0.57855 4.50194,0.57855 h 4.98207 z m 147.47986,19.24895 c -0.64823,-0.78106 0.14054,-1.9042 1.85815,-2.64585 0.811,-0.35016 1.73034,-0.93505 2.043,-1.29974 0.31271,-0.36469 2.84068,-5.10808 5.61771,-10.54086 5.40272,-10.56935 5.60603,-11.23436 3.70004,-12.10279 -0.94771,-0.4318 -1.16516,-1.41608 -0.46708,-2.11416 0.30769,-0.30769 2.94591,-0.42333 9.65821,-0.42333 7.64272,0 9.30814,0.0883 9.65997,0.51224 0.70129,0.84501 0.11582,1.85959 -1.21744,2.1097 -0.70315,0.13192 -1.52146,0.6258 -1.95943,1.18259 -1.02426,1.30213 -10.9202,21.06726 -10.9202,21.81087 0,0.53182 0.35045,0.56967 3.33311,0.36001 5.79575,-0.4074 9.45865,-1.98065 12.82242,-5.50735 1.70243,-1.78493 2.54169,-2.20093 2.54169,-1.25988 0,0.28102 -1.3371,2.56308 -2.9713,5.07124 -2.38245,3.65658 -3.19688,4.63894 -4.10958,4.95711 -0.76917,0.26814 -5.68304,0.39681 -15.15357,0.39681 -11.7504,0 -14.08321,-0.0819 -14.4357,-0.50661 z m 40.35354,-0.002 c -0.94915,-0.70481 -0.28663,-1.72056 1.29388,-1.98382 1.48213,-0.24687 2.38633,-0.72964 3.36533,-1.79681 0.95303,-1.03888 10.29031,-18.21669 10.7939,-19.85758 0.44048,-1.43515 -0.25971,-2.83226 -1.69245,-3.37697 -1.05646,-0.40167 -1.14409,-1.58189 -0.15667,-2.11033 0.48229,-0.25811 6.00672,-0.34611 17.39029,-0.277 15.3785,0.0934 16.75938,0.15102 17.65339,0.73709 1.76848,1.15933 1.84799,2.17525 0.39063,4.9897 -0.70866,1.36861 -1.49691,2.7074 -1.75161,2.97509 -0.7741,0.81352 -2.03606,0.16955 -3.16869,-1.61694 -1.39372,-2.19834 -3.59812,-3.82818 -5.82302,-4.30534 -2.46581,-0.52882 -7.13295,-0.49559 -7.82426,0.0557 -0.9357,0.74623 -5.33336,9.70738 -5.08345,10.35864 0.19787,0.51566 0.68294,0.56646 3.86016,0.4043 3.62095,-0.1848 5.23688,-0.66166 6.20822,-1.83204 0.61394,-0.73976 1.43552,-0.7019 1.40935,0.0649 -0.0116,0.33955 -0.85521,2.28424 -1.87466,4.32154 -2.08383,4.16422 -2.81401,4.67733 -4.32975,3.04265 -1.05061,-1.13301 -3.10261,-1.69623 -5.68554,-1.56055 l -2.00646,0.1054 -2.01429,4.40972 c -1.10787,2.42535 -2.02456,4.60816 -2.03708,4.8507 -0.0173,0.33098 1.1026,0.44097 4.48916,0.44097 6.47129,0 9.67328,-0.97893 13.75477,-4.20517 1.82796,-1.44492 3.25269,-1.86153 3.25269,-0.95112 0,0.75702 -4.65413,6.66847 -5.64445,7.1693 -1.38391,0.6999 -33.82215,0.65132 -34.76939,-0.0521 z"
         style="fill:#532481;fill-opacity:1;stroke-width:0.35277778"
         inkscape:export-xdpi="19.68"
         inkscape:export-ydpi="19.68" />
    </g>
  </g>
</svg>
