<?xml version="1.0" encoding="UTF-8" standalone="no"?>
<svg
   xmlns:dc="http://purl.org/dc/elements/1.1/"
   xmlns:cc="http://creativecommons.org/ns#"
   xmlns:rdf="http://www.w3.org/1999/02/22-rdf-syntax-ns#"
   xmlns:svg="http://www.w3.org/2000/svg"
   xmlns="http://www.w3.org/2000/svg"
   xmlns:sodipodi="http://sodipodi.sourceforge.net/DTD/sodipodi-0.dtd"
   xmlns:inkscape="http://www.inkscape.org/namespaces/inkscape"
   version="1.1"
   id="svg815"
   width="418"
   height="135"
   viewBox="0 0 418 135"
   sodipodi:docname="players.svg"
   inkscape:version="1.0.1 (3bc2e813f5, 2020-09-07)"
   inkscape:export-filename="I:\Sayem_Work\LakerScrapperJS\source_images\SourceFiles\player-svg.png"
   inkscape:export-xdpi="96"
   inkscape:export-ydpi="96">
  <metadata
     id="metadata821">
    <rdf:RDF>
      <cc:Work
         rdf:about="">
        <dc:format>image/svg+xml</dc:format>
        <dc:type
           rdf:resource="http://purl.org/dc/dcmitype/StillImage" />
        <dc:title></dc:title>
      </cc:Work>
    </rdf:RDF>
  </metadata>
  <defs
     id="defs819" />
  <sodipodi:namedview
     pagecolor="#ffffff"
     bordercolor="#666666"
     borderopacity="1"
     objecttolerance="10"
     gridtolerance="10"
     guidetolerance="10"
     inkscape:pageopacity="0"
     inkscape:pageshadow="2"
     inkscape:window-width="3072"
     inkscape:window-height="1665"
     id="namedview817"
     showgrid="false"
     inkscape:zoom="3.1426968"
     inkscape:cx="189.93375"
     inkscape:cy="104.41931"
     inkscape:window-x="-8"
     inkscape:window-y="-8"
     inkscape:window-maximized="1"
     inkscape:current-layer="svg815"
     fit-margin-top="0"
     fit-margin-left="0"
     fit-margin-right="0"
     fit-margin-bottom="0"
     inkscape:document-rotation="0" />
  <path
     style="fill:#000000;fill-opacity:1;stroke:#000000;stroke-width:1px;stroke-linecap:butt;stroke-linejoin:miter;stroke-opacity:1"
     d="M 14.478011,41.524846 10.977833,52.184481 9.5459416,58.230244 6.363961,64.753304 4.6138718,77.481226 20.205576,77.003929 22.751161,49.957094 Z"
     id="path1011" />
  <path
     style="fill:#fce667;fill-opacity:1;stroke:#000000;stroke-width:1px;stroke-linecap:butt;stroke-linejoin:miter;stroke-opacity:1"
     d="M 18.296388,68.57168 14.63711,68.730779 -1.4318912,76.208433 -0.79549513,139.84804 69.446724,139.68894 69.425735,71.423438 55.843758,66.98069 Z"
     id="path1019"
     sodipodi:nodetypes="cccccccc" />
  <path
     style="fill:#774739;fill-opacity:1;stroke:#000000;stroke-width:1px;stroke-linecap:butt;stroke-linejoin:miter;stroke-opacity:1"
     d="m 18.614586,52.661778 -1.431891,16.546298 -0.318198,5.091169 2.704683,7.954951 7.159456,5.568466 9.86414,4.136575 5.568466,-0.954594 8.11405,-4.93207 2.704684,-4.93207 2.386485,-9.386842 0.477297,-4.772971 -2.386485,-14.63711 z"
     id="path1015" />
  <g
     transform="matrix(3.5398761,0,0,3.5398761,-72.513722,-778.51054)"
     id="g4607"
     style="opacity:1">
    <path
       sodipodi:nodetypes="ccccccccccccc"
       inkscape:connector-curvature="0"
       id="path4581"
       d="m 74.611339,233.94738 -0.06276,6.85012 2.888662,1.75345 1.183143,0.9513 -3.407685,8.0849 -8.151722,0.26727 -5.078119,-7.48354 1.670433,-1.46999 v 0 l 0.601356,-0.63474 0.06682,-5.81311 5.813112,-2.00452 z"
       style="fill:#cf9776;fill-opacity:0.949749;stroke:#000000;stroke-width:0.264583px;stroke-linecap:butt;stroke-linejoin:miter;stroke-opacity:1" />
    <path
       inkscape:connector-curvature="0"
       id="path4597"
       d="m 75.116528,241.13159 0.129577,2.83841 -0.734992,1.73725 -1.603615,2.08804 -2.372019,1.85418 -0.801807,0.63477 7.683998,0.21716 0.634767,-7.53368 z"
       style="fill:#ffffff;fill-opacity:1;stroke:#000000;stroke-width:0.264583px;stroke-linecap:butt;stroke-linejoin:miter;stroke-opacity:1" />
    <path
       sodipodi:nodetypes="ccccccscccccccccccc"
       inkscape:connector-curvature="0"
       id="path4585"
       d="m 74.076801,234.3817 0.634765,0.90203 1.436573,-0.33408 0.367496,-1.26953 -0.200451,-2.33861 -0.334087,-0.43431 c 0,0 -0.434313,-0.96886 -0.434313,-1.10249 0,-0.13364 -1.937705,-5.21176 -1.937705,-5.21176 l -3.507912,-1.33635 -5.545844,1.33635 -0.835216,2.27179 0.06682,2.63929 -0.440393,1.82266 0.250072,2.30618 0.949283,3.43438 1.837475,3.24064 3.140416,-0.0334 4.075514,-4.22403 z"
       style="fill:#cf9776;fill-opacity:1;stroke:#000000;stroke-width:0.264583px;stroke-linecap:butt;stroke-linejoin:miter;stroke-opacity:1" />
    <path
       inkscape:connector-curvature="0"
       id="path4587"
       d="m 64.255521,227.38152 0.732329,-1.79539 1.228424,-1.13393 2.007997,-0.33073 2.95294,0.14174 0.803198,0.66146 0.472472,0.82683 0.09449,0.68508 0.874069,0.68508 0.566965,1.29929 0.54334,2.05525 0.283483,0.56696 1.165865,-0.13596 0.334087,0.43431 0.437176,-3.67651 -0.4016,-1.98437 -1.771764,-1.86626 -2.291479,-1.58278 -2.362351,-1.01581 -2.126118,0.21261 -2.882069,1.2048 -1.441032,2.1025 -0.377978,1.53552 0.188989,2.4096 c 0,0 0.499967,0.82322 0.499967,0.82322 z"
       style="fill:#000000;fill-opacity:1;stroke:none;stroke-width:0.264583px;stroke-linecap:butt;stroke-linejoin:miter;stroke-opacity:1" />
    <path
       inkscape:connector-curvature="0"
       id="path4589"
       d="m 64.255521,227.38152 1.13393,-0.61421 1.606399,0.0709 0.755952,0.51971 0.566965,0.0236 1.252045,-0.7087 1.889882,0.0236 1.063056,0.63784 0.566965,1.06306 -0.755952,-0.73233 -0.944941,-0.51972 -1.748139,0.11812 -1.252048,0.3071 -0.732327,-0.0472 -0.826823,-0.28349 -1.582777,-0.0236 z"
       style="fill:#000000;fill-opacity:1;stroke:none;stroke-width:0.264583px;stroke-linecap:butt;stroke-linejoin:miter;stroke-opacity:1" />
    <path
       inkscape:connector-curvature="0"
       id="path4591"
       d="m 63.546816,233.00392 1.653646,2.00799 0.02363,-0.96856 1.157552,-1.15755 1.063059,-0.47247 1.41741,0.0945 1.299292,0.99219 0.874069,0.56696 1.535531,-0.28348 1.157552,-0.87407 0.803193,-2.43322 -0.454943,3.9055 -0.477507,1.66876 -4.075515,4.22403 -3.140416,0.0334 -1.837476,-3.24064 z"
       style="fill:#000000;fill-opacity:0.984925;stroke:#000000;stroke-width:0.264583px;stroke-linecap:butt;stroke-linejoin:miter;stroke-opacity:1" />
    <path
       inkscape:connector-curvature="0"
       id="path4593"
       d="m 65.909167,234.23234 0.826823,-0.99219 0.968565,-0.30711 0.755952,0.16537 1.322916,0.96856 0.779577,1.67727 -0.307105,1.88988 -0.755954,0.59059 -1.157552,-0.49609 0.02363,-0.66146 1.228423,-0.73233 -1.063058,-0.0236 -1.960753,-0.0236 0.850447,0.96857 0.04725,0.66146 -0.614212,0.0945 -1.063056,-0.7087 -0.425225,-1.03944 0.236233,-0.96856 z"
       style="fill:#cf9776;fill-opacity:1;stroke:none;stroke-width:0.264583px;stroke-linecap:butt;stroke-linejoin:miter;stroke-opacity:1" />
    <path
       sodipodi:nodetypes="ccccccccccccccc"
       inkscape:connector-curvature="0"
       id="path4595"
       d="m 63.720106,242.48331 0.464549,1.95438 1.01581,1.86626 2.36235,2.57497 2.433223,0.80319 2.291482,-0.21261 2.385972,-1.25204 1.724518,-2.26786 0.850447,-2.22061 0.236032,-1.09536 1.960954,1.16623 -0.09603,14.23096 H 60.158297 l -0.06051,-13.92386 z"
       style="fill:#fce667;fill-opacity:1;stroke:#000000;stroke-width:0.264583px;stroke-linecap:butt;stroke-linejoin:miter;stroke-opacity:1" />
  </g>
  <g
     transform="matrix(3.5398761,0,0,3.5398761,-72.513722,-778.51054)"
     id="g4641">
    <path
       sodipodi:nodetypes="cccccccccccc"
       inkscape:connector-curvature="0"
       id="path4632"
       d="m 106.11574,232.87831 1.23612,4.84426 -2.77292,1.30294 -3.24065,1.63702 -1.709214,0.86863 -0.02804,10.7576 0.100232,2.50565 1.653642,0.68474 15.28455,-11.44234 0.40091,-7.3165 -2.20498,-0.80181 z"
       style="opacity:1;fill:#bf7b5b;fill-opacity:1;stroke:#000000;stroke-width:0.264583px;stroke-linecap:butt;stroke-linejoin:miter;stroke-opacity:1" />
    <path
       inkscape:connector-curvature="0"
       id="path4626"
       d="m 114.16723,225.49499 0.43431,1.67043 0.0334,1.10249 0.46772,1.30294 0.40091,2.20497 -0.10023,2.47225 -0.56795,1.67043 -0.30068,1.73725 -1.23612,1.1359 -2.3386,-0.13364 -3.34087,-2.07134 -0.90204,-2.57247 -0.86863,-0.0334 -1.53679,-1.23612 -0.33409,-1.40316 0.43431,-0.56795 0.46772,-0.20045 -1.06907,-2.83974 2.83973,-3.57473 5.27858,-0.33409 z"
       style="opacity:1;fill:#bf7b5b;fill-opacity:1;stroke:#000000;stroke-width:0.264583px;stroke-linecap:butt;stroke-linejoin:miter;stroke-opacity:1" />
    <path
       inkscape:connector-curvature="0"
       id="path4628"
       d="m 104.27826,228.90268 -0.86863,-2.47225 0.10023,-1.63702 1.60361,-2.23839 2.97338,-1.26953 2.93996,0.0668 1.50339,0.63477 1.57021,1.9377 0.50113,3.24064 -0.43431,-1.67043 -2.43883,0.0334 -3.4411,0.86862 -1.70384,0.23386 -0.40091,1.43658 0.63477,0.50113 -0.30068,0.56795 z"
       style="fill:#000000;fill-opacity:1;stroke:#000000;stroke-width:0.264583px;stroke-linecap:butt;stroke-linejoin:miter;stroke-opacity:1" />
    <path
       inkscape:connector-curvature="0"
       id="path4630"
       d="m 110.52568,234.61556 1.23612,-0.96885 0.83522,0.13363 0.66818,-0.33408 1.03567,0.86862 -0.3675,0.16705 -0.83522,-0.30068 -0.83522,0.10022 h -0.53453 l -1.03567,0.60136 z"
       style="fill:#aa6e44;fill-opacity:1;stroke:none;stroke-width:0.264583px;stroke-linecap:butt;stroke-linejoin:miter;stroke-opacity:1" />
    <path
       inkscape:connector-curvature="0"
       id="path4634"
       d="m 100.30262,240.86298 0.16705,-0.73499 1.43657,-0.0668 1.87089,-1.16931 0.23386,-0.4009 h 0.63476 l 0.16705,0.90203 0.7684,0.56795 1.10248,1.46998 2.17157,1.03567 1.87089,0.26727 1.80406,1.26953 1.00226,-1.40316 0.76841,-0.96886 1.10248,-0.70158 0.63477,-1.50339 v -2.03793 l -0.46773,-1.1693 3.40769,0.86862 -0.13461,20.92171 -19.174042,-0.002 0.03184,-3.21311 0.768402,0.0668 1.36975,-1.26953 1.16931,-2.77292 0.20045,-3.97564 -0.60136,-2.77292 -1.20271,-2.80633 z"
       style="fill:#fce667;fill-opacity:1;stroke:#000000;stroke-width:0.264583px;stroke-linecap:butt;stroke-linejoin:miter;stroke-opacity:1" />
  </g>
  <g
     id="g5312"
     transform="translate(0.11317428,-135.05513)">
    <path
       inkscape:connector-curvature="0"
       id="path5259"
       d="m 261.9,190.575 -0.45,14.625 0.675,2.025 6.975,2.925 -2.025,14.4 -15.3,9.225 L 234.9,230.4 220.275,215.325 V 207 l 7.875,-3.825 z"
       style="opacity:1;fill:#774f34;fill-opacity:1;stroke:#000000;stroke-width:1px;stroke-linecap:butt;stroke-linejoin:miter;stroke-opacity:1" />
    <path
       inkscape:connector-curvature="0"
       id="path5251"
       d="m 227.475,149.85 -2.475,4.725 -0.675,8.325 0.45,4.05 -1.125,6.75 -1.575,4.5 0.9,10.8 5.175,10.125 5.625,4.275 22.05,-4.275 c 0,0 5.625,-11.475 5.625,-12.375 0,-0.9 2.025,-1.8 2.025,-1.8 l 4.95,-1.575 2.925,-5.625 0.45,-7.2 -2.925,-4.275 h -0.9 l -0.675,-5.85 -7.875,0.225 2.475,-3.825 -2.025,-8.775 -14.625,-2.7 -12.825,0.675 z"
       style="opacity:1;fill:#774f34;fill-opacity:1;stroke:#000000;stroke-width:1px;stroke-linecap:butt;stroke-linejoin:miter;stroke-opacity:1" />
    <path
       inkscape:connector-curvature="0"
       id="path5253"
       d="m 227.475,149.85 8.1,-2.475 15.75,0.9 6.525,2.475 0.9,3.375 0.675,6.525 7.875,-0.225 -1.35,-9.45 -6.075,-7.2 -8.325,-3.15 -8.325,-0.9 -10.575,3.15 -6.525,4.275 -1.125,7.425 z"
       style="fill:#030000;fill-opacity:1;stroke:none;stroke-width:1px;stroke-linecap:butt;stroke-linejoin:miter;stroke-opacity:1" />
    <path
       inkscape:connector-curvature="0"
       id="path5255"
       d="m 260.325,174.825 -0.675,8.325 -3.6,6.3 -7.2,4.725 h -3.15 l -3.6,2.025 -2.025,1.575 H 235.8 l -5.85,-0.9 -2.7,-2.25 -4.275,-5.625 -0.45,-5.175 0.45,10.575 3.6,10.8 7.65,2.025 13.95,-1.35 6.525,-3.375 6.075,-6.525 1.125,-5.4 z"
       style="fill:#030000;fill-opacity:1;stroke:#000000;stroke-width:1px;stroke-linecap:butt;stroke-linejoin:miter;stroke-opacity:1" />
    <path
       inkscape:connector-curvature="0"
       id="path5257"
       d="m 227.025,189.675 5.85,-2.25 h 5.175 l 8.1,3.375 -7.2,-4.725 -5.4,-0.675 z"
       style="fill:#030000;fill-opacity:1;stroke:none;stroke-width:1px;stroke-linecap:butt;stroke-linejoin:miter;stroke-opacity:1" />
    <path
       sodipodi:nodetypes="ccccccccccccc"
       inkscape:connector-curvature="0"
       id="path5261"
       d="m 209.7,210.15 10.575,-3.15 6.975,11.25 11.25,9.225 11.25,1.35 8.775,-2.7 6.3,-5.4 2.925,-7.425 -1.125,-5.175 11.925,6.3 -0.225,56.7 -70.06481,-1.18328 z"
       style="fill:#fce667;fill-opacity:1;stroke:#000000;stroke-width:1px;stroke-linecap:butt;stroke-linejoin:miter;stroke-opacity:1" />
    <path
       inkscape:connector-curvature="0"
       id="path5271"
       d="m 231.69375,193.275 2.19375,2.1375 4.21875,0.0563 1.4625,-2.08125 z"
       style="fill:#000000;fill-opacity:1;stroke:#000000;stroke-width:1px;stroke-linecap:butt;stroke-linejoin:miter;stroke-opacity:1" />
  </g>
  <path
     style="opacity:1;fill:#e0cccf;fill-opacity:1;stroke:#000000;stroke-width:1px;stroke-linecap:butt;stroke-linejoin:miter;stroke-opacity:1"
     d="m 368.21317,44.607372 0.3375,14.0625 -0.9,4.725 -4.1625,4.8375 -3.375,2.475 5.625,19.9125 10.0125,9.787498 15.075,4.3875 11.925,-3.9375 5.5125,-12.262498 c 0,0 -0.3375,-15.1875 -0.3375,-15.6375 0,-0.45 -0.5625,-4.725 -0.5625,-4.725 l -5.5125,-0.9 -3.15,-2.3625 -0.45,-11.1375 -19.2375,-11.925 z"
     id="path5324"
     inkscape:connector-curvature="0" />
  <path
     style="opacity:1;fill:#e0cccf;fill-opacity:1;stroke:#000000;stroke-width:1px;stroke-linecap:butt;stroke-linejoin:miter;stroke-opacity:1"
     d="m 360.47246,37.258072 1.75009,-4.29568 3.02288,-2.54558 2.86379,-13.36432 7.84713,-6.69015 15.38132,-0.15111 7.10487,3.23658 3.39567,7.90036 1.43189,6.36396 -0.4773,4.29567 v 3.02288 l 1.90919,0.9546 0.4773,3.18198 -1.43189,7.63675 c 0,0 -1.11369,2.06829 -1.75009,2.06829 h -1.43189 l -1.1137,5.56846 -5.25026,4.61387 -8.90955,0.1591 -10.34144,-4.93207 -5.09116,-8.59134 -1.4319,1.27279 -2.86378,-1.11369 -4.61387,-6.04577 z"
     id="path5316"
     inkscape:connector-curvature="0"
     sodipodi:nodetypes="ccccccccccccccscccccccccc" />
  <path
     style="fill:#4a2a0b;fill-opacity:1;stroke:none;stroke-width:1px;stroke-linecap:butt;stroke-linejoin:miter;stroke-opacity:1"
     d="m 370.4957,35.667082 0.7955,-8.43225 3.50018,-3.81838 -2.06829,-4.45477 -1.11369,-1.59099 1.75008,-3.97748 5.56847,-1.75009 6.20486,-0.47729 5.40937,3.50018 1.27279,0.79549 1.90919,-0.79549 1.90919,-1.90919 1.90919,1.59099 5.72756,13.36432 1.11369,-5.88667 -2.86378,-8.59134 -5.72756,-3.02289 -5.40937,-2.5455795 -9.06864,-1.43189 -10.50054,4.1365695 -7.00036,6.36396 -1.90919,6.04577 0.3182,10.18233 h 3.34108 l 3.65928,1.90919 z"
     id="path5318"
     inkscape:connector-curvature="0" />
  <path
     style="fill:#4a2a0b;fill-opacity:1;stroke:none;stroke-width:1px;stroke-linecap:butt;stroke-linejoin:miter;stroke-opacity:1"
     d="m 390.54218,42.031042 -7.15946,4.13657 8.11405,-2.86378 1.59099,0.6364 4.77297,3.50018 -4.29567,-5.40937 z"
     id="path5320"
     inkscape:connector-curvature="0" />
  <path
     style="fill:#4a2a0b;fill-opacity:1;stroke:none;stroke-width:1px;stroke-linecap:butt;stroke-linejoin:miter;stroke-opacity:1"
     d="m 382.72567,56.813622 2.53125,1.4625 h 8.15625 l 3.375,-1.35 0.0562,2.53125 -2.41875,1.96875 -8.8875,0.28125 -4.10625,-3.09375 -0.1125,-1.63125 z"
     id="path5322"
     inkscape:connector-curvature="0" />
  <path
     style="fill:#fce667;fill-opacity:1;stroke:#000000;stroke-width:1px;stroke-linecap:butt;stroke-linejoin:miter;stroke-opacity:1"
     d="m 349.76317,75.094872 v 60.637498 h 68.9625 V 73.069872 l -9.9,-4.3875 -7.425,-3.6 0.225,9.1125 -2.025,14.85 -5.85,6.75 -8.55,2.025 -7.65,-1.4625 -8.55,-9.7875 -5.175,-12.6 -2.25,-6.3 -1.35,0.45 z"
     id="path5326"
     inkscape:connector-curvature="0" />
  <text
     xml:space="preserve"
     style="font-style:normal;font-weight:normal;font-size:40px;line-height:1.25;font-family:sans-serif;letter-spacing:0px;word-spacing:0px;fill:#000000;fill-opacity:1;stroke:none"
     x="11.813174"
     y="121.89488"
     id="text5330" />
  <path
     style="fill:#583218;fill-opacity:1;stroke:#000000;stroke-width:1px;stroke-linecap:butt;stroke-linejoin:miter;stroke-opacity:1"
     d="m 118.21058,55.52556 0.1591,13.364318 2.22738,1.272792 0.1591,13.20522 -1.75009,8.273149 -8.27315,5.727565 -8.43225,-0.318198 -8.273146,-7.159456 -4.136574,-7.795853 -1.75009,-7.795852 -0.159099,-4.295674 2.386486,1.113694 z"
     id="path997" />
  <path
     style="fill:#583218;fill-opacity:1;stroke:#000000;stroke-width:1px;stroke-linecap:butt;stroke-linejoin:miter;stroke-opacity:1"
     d="m 82.731494,38.979261 -0.318199,5.250268 0.318199,2.227387 -0.159099,3.818376 0.477297,4.136575 5.250267,13.682516 2.386486,6.52306 4.454773,2.227387 6.523062,-1.431892 10.02324,-6.682159 6.52306,-13.205219 0.95459,-0.795495 2.22739,-1.750089 2.38648,-8.114051 -1.11369,-3.18198 -1.59099,-0.477297 h -0.6364 l -1.11369,0.795495 -7.15946,-7.636753 -10.02324,-4.295674 H 90.845544 l -7.000357,2.227386 z"
     id="path987" />
  <path
     style="fill:#ffffff;fill-opacity:1;stroke:#000000;stroke-width:1px;stroke-linecap:butt;stroke-linejoin:miter;stroke-opacity:1"
     d="m 82.254196,41.683945 1.590991,-9.386843 7.000357,-2.227386 h 11.296026 l 10.02324,4.295674 7.15946,7.636753 1.75009,-0.795495 0.95459,-9.86414 -5.88666,-5.250268 -10.50054,-4.613871 -11.773325,-1.590991 -9.70504,5.568466 -2.863783,7.954951 z"
     id="path989" />
  <path
     style="fill:#191919;fill-opacity:1;stroke:#000000;stroke-width:1px;stroke-linecap:butt;stroke-linejoin:miter;stroke-opacity:1"
     d="m 122.02895,31.342508 2.22739,-7.954951 -1.90919,-1.431891 -0.4773,-3.022882 -2.70468,-1.59099 -0.3182,-3.022882 -2.86378,-1.431891 -3.02288,-2.386485 -3.18198,0.636396 -4.13658,-2.0682875 -2.70468,-1.2727922 -2.86378,1.9091883 -3.181983,-0.6363961 -2.068287,2.3864855 -1.909189,-0.636396 -1.750089,1.59099 -2.068287,-0.159099 -0.795496,2.386485 -2.227386,-0.636396 -2.068287,3.659278 -2.068288,0.636396 -0.954594,6.363961 0.318198,8.750446 2.863783,-7.954951 9.70504,-5.568466 11.773325,1.590991 10.50054,4.613871 z"
     id="path991" />
  <path
     style="fill:#b19960;fill-opacity:1;stroke:#000000;stroke-width:1px;stroke-linecap:butt;stroke-linejoin:miter;stroke-opacity:1"
     d="m 112.96031,24.660349 0.1591,-4.454773 6.04576,-2.863782 -0.3182,-3.022882 -2.86378,-1.431891 -3.02288,-2.386485 -3.18198,0.636396 0.1591,3.659277 -2.38649,-1.113693 -2.38648,1.909189 -1.4319,-2.386486 -2.22738,2.863783 -2.227388,-1.272793 1.431888,2.545585 -0.795492,1.431891 -0.318198,1.750089 6.04576,0.954595 z"
     id="path993" />
  <path
     style="fill:#fce667;fill-opacity:1;stroke:#000000;stroke-width:1px;stroke-linecap:butt;stroke-linejoin:miter;stroke-opacity:1"
     d="m 118.36968,68.889878 1.75008,-2.068287 4.61388,2.704683 14.9553,4.93207 0.3182,63.003216 -70.639965,0.4773 0.159099,-59.662139 18.455487,-8.27315 0.159099,4.295674 1.75009,7.795852 4.136574,7.795853 8.273146,7.159456 8.43225,0.318198 8.27315,-5.727565 1.75009,-8.273149 -0.1591,-13.20522 z"
     id="path999" />
  <path
     style="fill:#000000;fill-opacity:1;stroke:none;stroke-width:1px;stroke-linecap:butt;stroke-linejoin:miter;stroke-opacity:1"
     d="m 98.005,40.411153 7.00036,-1.590991 3.97747,2.227387 -4.29567,-3.500179 z"
     id="path1001" />
  <path
     style="fill:#000000;fill-opacity:1;stroke:none;stroke-width:1px;stroke-linecap:butt;stroke-linejoin:miter;stroke-opacity:1"
     d="m 82.254196,41.683945 4.454773,-1.113693 3.022882,0.159099 -4.812746,-1.471667 -2.108061,0.954594 z"
     id="path1003"
     sodipodi:nodetypes="cccccc" />
  <path
     style="fill:#000000;fill-opacity:1;stroke:#000000;stroke-width:1px;stroke-linecap:butt;stroke-linejoin:miter;stroke-opacity:1"
     d="M 55.684659,18.932784 53.93457,11.136932 46.297817,5.886664 34.047192,3.8183766 l -14.79621,4.9320698 -4.454773,5.5684656 0.159099,2.545585 -2.227386,5.886664 -0.318198,4.295673 -0.795495,2.227387 0.954594,3.659277 10.818734,5.568466 z"
     id="path1009" />
  <path
     style="fill:#212121;fill-opacity:1;stroke:#000000;stroke-width:1px;stroke-linecap:butt;stroke-linejoin:miter;stroke-opacity:1"
     d="m 58.230244,34.524489 v -7.159457 l -2.545585,-8.432248 -8.432248,-8.909545 -8.27315,-1.2727926 -7.954951,-0.159099 -9.545941,4.1365746 -4.613872,9.227744 -1.272792,9.70504 1.272792,1.113693 10.341436,3.500179 z"
     id="path1007" />
  <path
     style="fill:#000000;fill-opacity:1;stroke:none;stroke-width:1px;stroke-linecap:butt;stroke-linejoin:miter;stroke-opacity:1"
     d="m 56.480154,44.706826 5.568466,7.795853 7.159456,16.2281 v 3.34108 l -5.886664,-8.432249 -5.727565,-8.909545 -1.272792,9.545942 -1.431891,11.455129 1.113693,6.841259 -3.18198,-7.954952 V 62.04862 l 0.636396,-9.70504 -3.181981,-4.93207 0.954594,-4.136575 z"
     id="path1013" />
  <path
     style="fill:#774739;fill-opacity:1;stroke:#000000;stroke-width:1px;stroke-linecap:butt;stroke-linejoin:miter;stroke-opacity:1"
     d="m 16.864497,32.774399 -1.272792,-1.113693 -3.022882,1.272792 -1.113693,2.704684 3.022881,10.659635 2.386486,0.477297 1.59099,-1.431892 0.159099,7.318556 11.296031,15.909902 3.818377,1.272792 9.864139,0.159099 4.772971,-3.818376 2.386485,-4.295674 2.704684,-9.545941 0.318198,-5.250268 1.750089,0.954594 1.113693,-0.954594 -0.159099,-2.386486 0.795495,-3.18198 2.386486,-5.250268 -1.431891,-1.750089 -2.386486,-0.795495 h -1.59099 l -0.159099,-6.841259 -4.93207,-7.318555 -11.45513,-2.704683 -9.70504,1.909188 -7.318556,6.841258 z"
     id="path1005" />
  <path
     style="fill:#000000;fill-opacity:1;stroke:#000000;stroke-width:1px;stroke-linecap:butt;stroke-linejoin:miter;stroke-opacity:1"
     d="m 18.9,51.4125 2.1375,-2.25 6.975,7.425 4.05,5.175 5.5125,3.15 4.95,-0.5625 3.15,-3.7125 3.2625,-6.6375 0.225,-2.7 4.6125,-1.9125 -0.317727,2.95608 -2.704684,9.545941 -2.386485,4.295674 -4.772971,3.818376 L 33.728994,69.844472 29.910617,68.57168 18.614586,52.661778 Z"
     id="path1021" />
  <path
     style="fill:#000000;fill-opacity:1;stroke:none;stroke-width:1px;stroke-linecap:butt;stroke-linejoin:miter;stroke-opacity:1"
     d="m 26.55,54.45 2.7,-4.3875 5.9625,-3.7125 H 38.25 l 1.0125,0.9 1.8,-0.9 2.8125,1.2375 6.075,5.85 -0.564163,1.802436 L 42.8625,48.6 40.95,47.3625 l -1.6875,0.9 -1.575,-0.7875 h -2.25 l -5.4,3.7125 -3.4875,6.975 z"
     id="path1023"
     sodipodi:nodetypes="ccccccccccccccccc" />
</svg>
