<?xml version="1.0" encoding="UTF-8" standalone="no"?>
<!-- Created with Inkscape (http://www.inkscape.org/) -->

<svg
   xmlns:dc="http://purl.org/dc/elements/1.1/"
   xmlns:cc="http://creativecommons.org/ns#"
   xmlns:rdf="http://www.w3.org/1999/02/22-rdf-syntax-ns#"
   xmlns:svg="http://www.w3.org/2000/svg"
   xmlns="http://www.w3.org/2000/svg"
   xmlns:xlink="http://www.w3.org/1999/xlink"
   xmlns:sodipodi="http://sodipodi.sourceforge.net/DTD/sodipodi-0.dtd"
   xmlns:inkscape="http://www.inkscape.org/namespaces/inkscape"
   version="1.1"
   id="svg815"
   width="419.22568"
   height="136.57835"
   viewBox="0 0 419.22568 136.57835"
   sodipodi:docname="players.svg"
   inkscape:version="0.92.4 5da689c313, 2019-01-14"
   inkscape:export-filename="E:\Sayem_Work\laker_reddit\SourceFiles\player-svg.png"
   inkscape:export-xdpi="95.720001"
   inkscape:export-ydpi="95.720001">
  <metadata
     id="metadata821">
    <rdf:RDF>
      <cc:Work
         rdf:about="">
        <dc:format>image/svg+xml</dc:format>
        <dc:type
           rdf:resource="http://purl.org/dc/dcmitype/StillImage" />
        <dc:title />
      </cc:Work>
    </rdf:RDF>
  </metadata>
  <defs
     id="defs819">
    <linearGradient
       inkscape:collect="always"
       xlink:href="#linearGradient5260"
       id="linearGradient5266"
       x1="90.714378"
       y1="129.45427"
       x2="94.842239"
       y2="126.14697"
       gradientUnits="userSpaceOnUse" />
    <linearGradient
       inkscape:collect="always"
       id="linearGradient5260">
      <stop
         style="stop-color:#010000;stop-opacity:1"
         offset="0"
         id="stop5256" />
      <stop
         style="stop-color:#812300;stop-opacity:1"
         offset="1"
         id="stop5258" />
    </linearGradient>
  </defs>
  <sodipodi:namedview
     pagecolor="#ffffff"
     bordercolor="#666666"
     borderopacity="1"
     objecttolerance="10"
     gridtolerance="10"
     guidetolerance="10"
     inkscape:pageopacity="0"
     inkscape:pageshadow="2"
     inkscape:window-width="1720"
     inkscape:window-height="1378"
     id="namedview817"
     showgrid="false"
     inkscape:zoom="6.2853936"
     inkscape:cx="72.142305"
     inkscape:cy="65.037883"
     inkscape:window-x="1920"
     inkscape:window-y="25"
     inkscape:window-maximized="0"
     inkscape:current-layer="svg815"
     fit-margin-top="0"
     fit-margin-left="0"
     fit-margin-right="0"
     fit-margin-bottom="0" />
  <g
     transform="matrix(3.5398761,0,0,3.5398761,-72.513722,-778.51054)"
     id="g4579"
     style="opacity:1">
    <path
       inkscape:connector-curvature="0"
       id="path4564"
       d="m 46.681675,237.52211 0.100226,2.57247 -2.004522,0.93545 -0.935443,0.83521 2.03793,7.31651 7.917858,0.53454 4.343131,-3.37428 0.567949,-4.17608 -3.975635,-1.87089 -0.23386,-4.24291 -5.245166,-0.96885 z"
       style="fill:#af977e;fill-opacity:1;stroke:#000000;stroke-width:0.26458332px;stroke-linecap:butt;stroke-linejoin:miter;stroke-opacity:1" />
    <path
       inkscape:connector-curvature="0"
       id="path4562"
       d="m 45.311918,228.50177 0.501131,-3.00679 8.251947,-0.60135 1.536798,2.60588 0.167045,0.76839 0.133635,2.10476 0.567947,-0.20046 0.53454,0.63477 0.03341,2.73951 -0.768398,1.10249 h -0.567949 l -0.501133,-0.23386 0.03341,1.60362 -3.441095,4.30972 -2.939965,-0.0334 -2.739513,-3.27405 -0.200452,-1.97112 -0.50113,0.10023 -0.300679,-0.43431 -0.53454,-2.13817 0.133635,-1.57021 0.367496,-0.50113 0.601356,0.66818 z"
       style="fill:#af977e;fill-opacity:1;stroke:#000000;stroke-width:0.26458332px;stroke-linecap:butt;stroke-linejoin:miter;stroke-opacity:1" />
    <path
       inkscape:connector-curvature="0"
       id="path4556"
       d="m 45.311918,228.50177 0.868626,0.60136 -0.23386,-2.57247 2.104746,-0.7684 3.775183,0.0668 2.839739,0.7684 v 2.37202 l 1.102487,-0.70158 -0.300678,-2.63929 -1.703843,-4.10927 -1.403167,-0.66817 -2.405425,-0.46772 -2.204974,0.73499 -1.069077,1.33635 -0.868626,3.04019 z"
       style="fill:#000000;fill-opacity:0.99712848;stroke:#000000;stroke-width:0.26458332px;stroke-linecap:butt;stroke-linejoin:miter;stroke-opacity:0.93467335" />
    <path
       inkscape:connector-curvature="0"
       id="path4558"
       d="m 45.813049,225.49498 9.655112,0.13363"
       style="fill:none;stroke:#000000;stroke-width:0.26458332px;stroke-linecap:butt;stroke-linejoin:miter;stroke-opacity:1" />
    <path
       inkscape:connector-curvature="0"
       id="path4566"
       d="m 44.777379,241.03003 -4.476764,2.10475 0.102102,14.89586 h 19.19111 l -0.04981,-15.73108 -2.271789,-0.86863 -1.035669,2.73952 -2.238383,2.13815 -2.639287,1.26953 -1.737252,-0.10022 -2.271792,-1.50339 -1.603616,-2.13816 z"
       style="fill:#fce667;fill-opacity:1;stroke:#000000;stroke-width:0.26458332px;stroke-linecap:butt;stroke-linejoin:miter;stroke-opacity:1" />
    <path
       inkscape:connector-curvature="0"
       id="path4568"
       d="m 47.917797,235.65123 1.319643,-0.91874 0.985555,-0.0167 1.369758,-0.21716 0.868625,0.25056 0.300677,0.60136 -0.283972,0.16705 -0.751697,-0.58466 -1.052372,-0.13363 -0.65147,0.18375 -1.386462,0.41761 -0.651468,0.51783 z"
       style="fill:#6a5348;fill-opacity:1;stroke:none;stroke-width:0.26458332px;stroke-linecap:butt;stroke-linejoin:miter;stroke-opacity:1" />
    <path
       inkscape:connector-curvature="0"
       id="path4570"
       d="m 49.788684,237.78939 1.703842,-0.0167 -0.384201,0.51784 -0.35079,0.3842 0.03341,0.63476 0.601356,0.0501 0.801809,-0.8018 0.484425,0.0334 0.08352,0.48443 -0.968848,1.25283 -2.939966,-0.0334 -1.018966,-1.28625 0.300678,-0.41761 0.985557,0.40091 0.217154,0.46772 0.668177,-0.15034 0.300677,-0.13363 0.08352,-0.53454 z"
       style="fill:#000000;fill-opacity:1;stroke:#000000;stroke-width:0.26458332px;stroke-linecap:butt;stroke-linejoin:miter;stroke-opacity:1" />
  </g>
  <g
     transform="matrix(3.5398761,0,0,3.5398761,-72.513722,-778.51054)"
     id="g4607"
     style="opacity:1">
    <path
       sodipodi:nodetypes="ccccccccccccc"
       inkscape:connector-curvature="0"
       id="path4581"
       d="m 74.611339,233.94738 -0.06276,6.85012 2.888662,1.75345 1.183143,0.9513 -3.407685,8.0849 -8.151722,0.26727 -5.078119,-7.48354 1.670433,-1.46999 v 0 l 0.601356,-0.63474 0.06682,-5.81311 5.813112,-2.00452 z"
       style="fill:#cf9776;fill-opacity:0.94974874;stroke:#000000;stroke-width:0.26458332px;stroke-linecap:butt;stroke-linejoin:miter;stroke-opacity:1" />
    <path
       inkscape:connector-curvature="0"
       id="path4597"
       d="m 75.116528,241.13159 0.129577,2.83841 -0.734992,1.73725 -1.603615,2.08804 -2.372019,1.85418 -0.801807,0.63477 7.683998,0.21716 0.634767,-7.53368 z"
       style="fill:#ffffff;fill-opacity:1;stroke:#000000;stroke-width:0.26458332px;stroke-linecap:butt;stroke-linejoin:miter;stroke-opacity:1" />
    <path
       sodipodi:nodetypes="ccccccscccccccccccc"
       inkscape:connector-curvature="0"
       id="path4585"
       d="m 74.076801,234.3817 0.634765,0.90203 1.436573,-0.33408 0.367496,-1.26953 -0.200451,-2.33861 -0.334087,-0.43431 c 0,0 -0.434313,-0.96886 -0.434313,-1.10249 0,-0.13364 -1.937705,-5.21176 -1.937705,-5.21176 l -3.507912,-1.33635 -5.545844,1.33635 -0.835216,2.27179 0.06682,2.63929 -0.440393,1.82266 0.250072,2.30618 0.949283,3.43438 1.837475,3.24064 3.140416,-0.0334 4.075514,-4.22403 z"
       style="fill:#cf9776;fill-opacity:1;stroke:#000000;stroke-width:0.26458332px;stroke-linecap:butt;stroke-linejoin:miter;stroke-opacity:1" />
    <path
       inkscape:connector-curvature="0"
       id="path4587"
       d="m 64.255521,227.38152 0.732329,-1.79539 1.228424,-1.13393 2.007997,-0.33073 2.95294,0.14174 0.803198,0.66146 0.472472,0.82683 0.09449,0.68508 0.874069,0.68508 0.566965,1.29929 0.54334,2.05525 0.283483,0.56696 1.165865,-0.13596 0.334087,0.43431 0.437176,-3.67651 -0.4016,-1.98437 -1.771764,-1.86626 -2.291479,-1.58278 -2.362351,-1.01581 -2.126118,0.21261 -2.882069,1.2048 -1.441032,2.1025 -0.377978,1.53552 0.188989,2.4096 c 0,0 0.499967,0.82322 0.499967,0.82322 z"
       style="fill:#000000;fill-opacity:1;stroke:none;stroke-width:0.26458332px;stroke-linecap:butt;stroke-linejoin:miter;stroke-opacity:1" />
    <path
       inkscape:connector-curvature="0"
       id="path4589"
       d="m 64.255521,227.38152 1.13393,-0.61421 1.606399,0.0709 0.755952,0.51971 0.566965,0.0236 1.252045,-0.7087 1.889882,0.0236 1.063056,0.63784 0.566965,1.06306 -0.755952,-0.73233 -0.944941,-0.51972 -1.748139,0.11812 -1.252048,0.3071 -0.732327,-0.0472 -0.826823,-0.28349 -1.582777,-0.0236 z"
       style="fill:#000000;fill-opacity:1;stroke:none;stroke-width:0.26458332px;stroke-linecap:butt;stroke-linejoin:miter;stroke-opacity:1" />
    <path
       inkscape:connector-curvature="0"
       id="path4591"
       d="m 63.546816,233.00392 1.653646,2.00799 0.02363,-0.96856 1.157552,-1.15755 1.063059,-0.47247 1.41741,0.0945 1.299292,0.99219 0.874069,0.56696 1.535531,-0.28348 1.157552,-0.87407 0.803193,-2.43322 -0.454943,3.9055 -0.477507,1.66876 -4.075515,4.22403 -3.140416,0.0334 -1.837476,-3.24064 z"
       style="fill:#000000;fill-opacity:0.98492462;stroke:#000000;stroke-width:0.26458332px;stroke-linecap:butt;stroke-linejoin:miter;stroke-opacity:1" />
    <path
       inkscape:connector-curvature="0"
       id="path4593"
       d="m 65.909167,234.23234 0.826823,-0.99219 0.968565,-0.30711 0.755952,0.16537 1.322916,0.96856 0.779577,1.67727 -0.307105,1.88988 -0.755954,0.59059 -1.157552,-0.49609 0.02363,-0.66146 1.228423,-0.73233 -1.063058,-0.0236 -1.960753,-0.0236 0.850447,0.96857 0.04725,0.66146 -0.614212,0.0945 -1.063056,-0.7087 -0.425225,-1.03944 0.236233,-0.96856 z"
       style="fill:#cf9776;fill-opacity:1;stroke:none;stroke-width:0.26458332px;stroke-linecap:butt;stroke-linejoin:miter;stroke-opacity:1" />
    <path
       sodipodi:nodetypes="ccccccccccccccc"
       inkscape:connector-curvature="0"
       id="path4595"
       d="m 63.720106,242.48331 0.464549,1.95438 1.01581,1.86626 2.36235,2.57497 2.433223,0.80319 2.291482,-0.21261 2.385972,-1.25204 1.724518,-2.26786 0.850447,-2.22061 0.236032,-1.09536 1.960954,1.16623 -0.09603,14.23096 H 60.158297 l -0.06051,-13.92386 z"
       style="fill:#fce667;fill-opacity:1;stroke:#000000;stroke-width:0.26458332px;stroke-linecap:butt;stroke-linejoin:miter;stroke-opacity:1" />
  </g>
  <g
     transform="matrix(3.5398761,0,0,3.5398761,-72.513722,-778.51054)"
     id="g4641">
    <path
       sodipodi:nodetypes="cccccccccccc"
       inkscape:connector-curvature="0"
       id="path4632"
       d="m 106.11574,232.87831 1.23612,4.84426 -2.77292,1.30294 -3.24065,1.63702 -1.709214,0.86863 -0.02804,10.7576 0.100232,2.50565 1.653642,0.68474 15.28455,-11.44234 0.40091,-7.3165 -2.20498,-0.80181 z"
       style="opacity:1;fill:#bf7b5b;fill-opacity:1;stroke:#000000;stroke-width:0.26458332px;stroke-linecap:butt;stroke-linejoin:miter;stroke-opacity:1" />
    <path
       inkscape:connector-curvature="0"
       id="path4626"
       d="m 114.16723,225.49499 0.43431,1.67043 0.0334,1.10249 0.46772,1.30294 0.40091,2.20497 -0.10023,2.47225 -0.56795,1.67043 -0.30068,1.73725 -1.23612,1.1359 -2.3386,-0.13364 -3.34087,-2.07134 -0.90204,-2.57247 -0.86863,-0.0334 -1.53679,-1.23612 -0.33409,-1.40316 0.43431,-0.56795 0.46772,-0.20045 -1.06907,-2.83974 2.83973,-3.57473 5.27858,-0.33409 z"
       style="opacity:1;fill:#bf7b5b;fill-opacity:1;stroke:#000000;stroke-width:0.26458332px;stroke-linecap:butt;stroke-linejoin:miter;stroke-opacity:1" />
    <path
       inkscape:connector-curvature="0"
       id="path4628"
       d="m 104.27826,228.90268 -0.86863,-2.47225 0.10023,-1.63702 1.60361,-2.23839 2.97338,-1.26953 2.93996,0.0668 1.50339,0.63477 1.57021,1.9377 0.50113,3.24064 -0.43431,-1.67043 -2.43883,0.0334 -3.4411,0.86862 -1.70384,0.23386 -0.40091,1.43658 0.63477,0.50113 -0.30068,0.56795 z"
       style="fill:#000000;fill-opacity:1;stroke:#000000;stroke-width:0.26458332px;stroke-linecap:butt;stroke-linejoin:miter;stroke-opacity:1" />
    <path
       inkscape:connector-curvature="0"
       id="path4630"
       d="m 110.52568,234.61556 1.23612,-0.96885 0.83522,0.13363 0.66818,-0.33408 1.03567,0.86862 -0.3675,0.16705 -0.83522,-0.30068 -0.83522,0.10022 h -0.53453 l -1.03567,0.60136 z"
       style="fill:#aa6e44;fill-opacity:1;stroke:none;stroke-width:0.26458332px;stroke-linecap:butt;stroke-linejoin:miter;stroke-opacity:1" />
    <path
       inkscape:connector-curvature="0"
       id="path4634"
       d="m 100.30262,240.86298 0.16705,-0.73499 1.43657,-0.0668 1.87089,-1.16931 0.23386,-0.4009 h 0.63476 l 0.16705,0.90203 0.7684,0.56795 1.10248,1.46998 2.17157,1.03567 1.87089,0.26727 1.80406,1.26953 1.00226,-1.40316 0.76841,-0.96886 1.10248,-0.70158 0.63477,-1.50339 v -2.03793 l -0.46773,-1.1693 3.40769,0.86862 -0.13461,20.92171 -19.174042,-0.002 0.03184,-3.21311 0.768402,0.0668 1.36975,-1.26953 1.16931,-2.77292 0.20045,-3.97564 -0.60136,-2.77292 -1.20271,-2.80633 z"
       style="fill:#fce667;fill-opacity:1;stroke:#000000;stroke-width:0.26458332px;stroke-linecap:butt;stroke-linejoin:miter;stroke-opacity:1" />
  </g>
  <g
     id="g5312"
     transform="translate(0.11317428,-135.05513)">
    <path
       inkscape:connector-curvature="0"
       id="path5259"
       d="m 261.9,190.575 -0.45,14.625 0.675,2.025 6.975,2.925 -2.025,14.4 -15.3,9.225 L 234.9,230.4 220.275,215.325 V 207 l 7.875,-3.825 z"
       style="opacity:1;fill:#774f34;fill-opacity:1;stroke:#000000;stroke-width:1px;stroke-linecap:butt;stroke-linejoin:miter;stroke-opacity:1" />
    <path
       inkscape:connector-curvature="0"
       id="path5251"
       d="m 227.475,149.85 -2.475,4.725 -0.675,8.325 0.45,4.05 -1.125,6.75 -1.575,4.5 0.9,10.8 5.175,10.125 5.625,4.275 22.05,-4.275 c 0,0 5.625,-11.475 5.625,-12.375 0,-0.9 2.025,-1.8 2.025,-1.8 l 4.95,-1.575 2.925,-5.625 0.45,-7.2 -2.925,-4.275 h -0.9 l -0.675,-5.85 -7.875,0.225 2.475,-3.825 -2.025,-8.775 -14.625,-2.7 -12.825,0.675 z"
       style="opacity:1;fill:#774f34;fill-opacity:1;stroke:#000000;stroke-width:1px;stroke-linecap:butt;stroke-linejoin:miter;stroke-opacity:1" />
    <path
       inkscape:connector-curvature="0"
       id="path5253"
       d="m 227.475,149.85 8.1,-2.475 15.75,0.9 6.525,2.475 0.9,3.375 0.675,6.525 7.875,-0.225 -1.35,-9.45 -6.075,-7.2 -8.325,-3.15 -8.325,-0.9 -10.575,3.15 -6.525,4.275 -1.125,7.425 z"
       style="fill:#030000;fill-opacity:1;stroke:none;stroke-width:1px;stroke-linecap:butt;stroke-linejoin:miter;stroke-opacity:1" />
    <path
       inkscape:connector-curvature="0"
       id="path5255"
       d="m 260.325,174.825 -0.675,8.325 -3.6,6.3 -7.2,4.725 h -3.15 l -3.6,2.025 -2.025,1.575 H 235.8 l -5.85,-0.9 -2.7,-2.25 -4.275,-5.625 -0.45,-5.175 0.45,10.575 3.6,10.8 7.65,2.025 13.95,-1.35 6.525,-3.375 6.075,-6.525 1.125,-5.4 z"
       style="fill:#030000;fill-opacity:1;stroke:#000000;stroke-width:1px;stroke-linecap:butt;stroke-linejoin:miter;stroke-opacity:1" />
    <path
       inkscape:connector-curvature="0"
       id="path5257"
       d="m 227.025,189.675 5.85,-2.25 h 5.175 l 8.1,3.375 -7.2,-4.725 -5.4,-0.675 z"
       style="fill:#030000;fill-opacity:1;stroke:none;stroke-width:1px;stroke-linecap:butt;stroke-linejoin:miter;stroke-opacity:1" />
    <path
       sodipodi:nodetypes="ccccccccccccc"
       inkscape:connector-curvature="0"
       id="path5261"
       d="m 209.7,210.15 10.575,-3.15 6.975,11.25 11.25,9.225 11.25,1.35 8.775,-2.7 6.3,-5.4 2.925,-7.425 -1.125,-5.175 11.925,6.3 -0.225,56.7 -70.06481,-1.18328 z"
       style="fill:#fce667;fill-opacity:1;stroke:#000000;stroke-width:1px;stroke-linecap:butt;stroke-linejoin:miter;stroke-opacity:1" />
    <path
       inkscape:connector-curvature="0"
       id="path5271"
       d="m 231.69375,193.275 2.19375,2.1375 4.21875,0.0563 1.4625,-2.08125 z"
       style="fill:#000000;fill-opacity:1;stroke:#000000;stroke-width:1px;stroke-linecap:butt;stroke-linejoin:miter;stroke-opacity:1" />
  </g>
  <path
     style="opacity:1;fill:#e0cccf;fill-opacity:1;stroke:#000000;stroke-width:1px;stroke-linecap:butt;stroke-linejoin:miter;stroke-opacity:1"
     d="m 368.21317,44.607372 0.3375,14.0625 -0.9,4.725 -4.1625,4.8375 -3.375,2.475 5.625,19.9125 10.0125,9.787498 15.075,4.3875 11.925,-3.9375 5.5125,-12.262498 c 0,0 -0.3375,-15.1875 -0.3375,-15.6375 0,-0.45 -0.5625,-4.725 -0.5625,-4.725 l -5.5125,-0.9 -3.15,-2.3625 -0.45,-11.1375 -19.2375,-11.925 z"
     id="path5324"
     inkscape:connector-curvature="0" />
  <path
     style="opacity:1;fill:#e0cccf;fill-opacity:1;stroke:#000000;stroke-width:1px;stroke-linecap:butt;stroke-linejoin:miter;stroke-opacity:1"
     d="m 360.47246,37.258072 1.75009,-4.29568 3.02288,-2.54558 2.86379,-13.36432 7.84713,-6.69015 15.38132,-0.15111 7.10487,3.23658 3.39567,7.90036 1.43189,6.36396 -0.4773,4.29567 v 3.02288 l 1.90919,0.9546 0.4773,3.18198 -1.43189,7.63675 c 0,0 -1.11369,2.06829 -1.75009,2.06829 h -1.43189 l -1.1137,5.56846 -5.25026,4.61387 -8.90955,0.1591 -10.34144,-4.93207 -5.09116,-8.59134 -1.4319,1.27279 -2.86378,-1.11369 -4.61387,-6.04577 z"
     id="path5316"
     inkscape:connector-curvature="0"
     sodipodi:nodetypes="ccccccccccccccscccccccccc" />
  <path
     style="fill:#4a2a0b;fill-opacity:1;stroke:none;stroke-width:1px;stroke-linecap:butt;stroke-linejoin:miter;stroke-opacity:1"
     d="m 370.4957,35.667082 0.7955,-8.43225 3.50018,-3.81838 -2.06829,-4.45477 -1.11369,-1.59099 1.75008,-3.97748 5.56847,-1.75009 6.20486,-0.47729 5.40937,3.50018 1.27279,0.79549 1.90919,-0.79549 1.90919,-1.90919 1.90919,1.59099 5.72756,13.36432 1.11369,-5.88667 -2.86378,-8.59134 -5.72756,-3.02289 -5.40937,-2.5455795 -9.06864,-1.43189 -10.50054,4.1365695 -7.00036,6.36396 -1.90919,6.04577 0.3182,10.18233 h 3.34108 l 3.65928,1.90919 z"
     id="path5318"
     inkscape:connector-curvature="0" />
  <path
     style="fill:#4a2a0b;fill-opacity:1;stroke:none;stroke-width:1px;stroke-linecap:butt;stroke-linejoin:miter;stroke-opacity:1"
     d="m 390.54218,42.031042 -7.15946,4.13657 8.11405,-2.86378 1.59099,0.6364 4.77297,3.50018 -4.29567,-5.40937 z"
     id="path5320"
     inkscape:connector-curvature="0" />
  <path
     style="fill:#4a2a0b;fill-opacity:1;stroke:none;stroke-width:1px;stroke-linecap:butt;stroke-linejoin:miter;stroke-opacity:1"
     d="m 382.72567,56.813622 2.53125,1.4625 h 8.15625 l 3.375,-1.35 0.0562,2.53125 -2.41875,1.96875 -8.8875,0.28125 -4.10625,-3.09375 -0.1125,-1.63125 z"
     id="path5322"
     inkscape:connector-curvature="0" />
  <path
     style="fill:#fce667;fill-opacity:1;stroke:#000000;stroke-width:1px;stroke-linecap:butt;stroke-linejoin:miter;stroke-opacity:1"
     d="m 349.76317,75.094872 v 60.637498 h 68.9625 V 73.069872 l -9.9,-4.3875 -7.425,-3.6 0.225,9.1125 -2.025,14.85 -5.85,6.75 -8.55,2.025 -7.65,-1.4625 -8.55,-9.7875 -5.175,-12.6 -2.25,-6.3 -1.35,0.45 z"
     id="path5326"
     inkscape:connector-curvature="0" />
  <text
     xml:space="preserve"
     style="font-style:normal;font-weight:normal;font-size:40px;line-height:1.25;font-family:sans-serif;letter-spacing:0px;word-spacing:0px;fill:#000000;fill-opacity:1;stroke:none"
     x="11.813174"
     y="121.89488"
     id="text5330"><tspan
       sodipodi:role="line"
       id="tspan5328"
       x="11.813174"
       y="158.38811" /></text>
  <g
     transform="matrix(3.7795276,0,0,3.7795276,-299.3698,-468.69221)"
     id="g5254"
     style="opacity:1">
    <path
       inkscape:connector-curvature="0"
       id="path4546"
       d="m 82.87128,141.03757 3.790862,-1.25887 9.187392,-0.28398 0.684877,-0.4009 1.119192,0.58465 -0.211346,20.21066 -16.409477,0.002 -0.06682,-4.86096 0.167042,-2.03793 -0.150338,-2.78963 0.334086,-2.07133 1.319644,-3.20724 z"
       style="fill:#fce667;fill-opacity:1;stroke:#000000;stroke-width:0.26458332px;stroke-linecap:butt;stroke-linejoin:miter;stroke-opacity:1" />
    <path
       inkscape:connector-curvature="0"
       id="path4548"
       d="m 82.87128,141.03757 -1.187032,0.71224 -1.904294,0.4009 -0.434313,0.30068 0.104949,17.43774 4.605677,0.13523 1.870884,-1.70384 1.369759,-0.60135 2.438834,-0.23386 1.737251,-0.50114 3.441094,-0.0668 0.53454,-0.56795 -0.7684,-0.46772 -2.605878,0.0334 -0.03341,-0.26727 0.367495,-0.26727 4.009044,-1.10249 0.334086,-0.63477 -0.434313,-0.60135 0.467722,-0.46772 -0.400904,-0.66818 -4.777441,1.1359 0.100224,-0.33409 3.741774,-1.5368 0.167042,-0.53454 -0.801806,-0.26727 -3.641548,1.40317 -2.53906,0.50113 -0.200454,-0.3675 0.434313,-1.06908 0.835219,-1.10248 0.23386,-1.03567 -0.267269,-1.00226 -0.501132,-0.13364 -0.434311,0.46773 -0.133635,1.10248 -0.902036,1.16931 -0.734992,0.8018 -0.968851,1.40317 -1.00226,1.63703 -2.639288,2.00452 -2.104747,1.06907 -0.534538,0.16705 1.252824,-2.35491 0.384201,-3.19094 1.403165,-4.54358 0.634764,-4.57699 z"
       style="fill:#955d47;fill-opacity:1;stroke:#000000;stroke-width:0.26458332px;stroke-linecap:butt;stroke-linejoin:miter;stroke-opacity:1" />
    <path
       sodipodi:nodetypes="cccccccccccccccccccccccccc"
       inkscape:connector-curvature="0"
       id="path4544"
       d="m 86.98177,142.59673 -0.14174,-1.37017 -0.283484,-1.96076 c -1.215733,-0.0866 -1.354414,-0.19686 -2.102492,-0.28347 l -0.212611,-0.96857 -0.330729,-1.70089 -0.850446,-1.25205 -0.283484,-0.63783 0.0945,-1.08668 0.472469,-0.8977 -0.09449,-1.46465 0.590586,-0.87407 0.590588,-1.34654 2.126117,-2.26786 2.645834,1.32292 3.354538,2.40959 1.086681,2.88207 -0.283483,2.31511 -0.02362,2.3151 1.157549,1.41741 1.748141,0.47247 -1.322916,2.50409 -2.740327,1.84264 -2.787576,0.8032 -1.653646,-0.94494 z"
       style="fill:#955d47;fill-opacity:1;stroke:#000000;stroke-width:0.26458332;stroke-linecap:butt;stroke-linejoin:miter;stroke-miterlimit:4;stroke-dasharray:none;stroke-opacity:1" />
    <path
       inkscape:connector-curvature="0"
       id="path5186"
       d="m 90.572544,129.84003 0.188989,1.5119 -0.0945,1.18118 0.566965,-0.54334 1.299292,-0.25986 z"
       style="fill:#320e00;fill-opacity:0.48828125;stroke:none;stroke-width:0.26458332px;stroke-linecap:butt;stroke-linejoin:miter;stroke-opacity:1" />
    <path
       inkscape:connector-curvature="0"
       id="path5207"
       d="m 86.674665,126.55636 0.09449,-0.37798 -0.496094,-0.21261 -1.322917,0.11812 0.02363,-0.37798 1.393786,-0.35435 1.559152,0.0945 0.944941,0.51971 2.574962,-0.66146 0.519718,-0.0472 0.850445,-0.28349 -0.165364,0.56697 -0.661459,0.59059 1.6064,-0.25986 1.653645,0.0945 -0.330729,0.44885 -1.181174,0.23623 -0.496094,0.35436 1.960751,-0.37798 0.826823,-0.0236 -0.472469,0.47247 -1.393788,0.42522 -0.118118,0.35436 0.519718,0.33073 -0.165364,0.61421 -0.354354,0.16536 0.472469,0.30711 0.566965,0.59058 0.992187,0.0472 0.496094,0.4961 -0.519716,0.35435 -1.015812,0.0945 -0.708705,0.0709 0.07087,0.33073 0.614209,0.8032 0.519718,1.22842 -0.07087,1.32292 -0.543341,1.11031 -0.448847,0.0709 -0.472469,-0.56697 -0.330729,-1.48828 -2.008,-3.89788 -3.590774,-2.008 z"
       style="fill:url(#linearGradient5266);fill-opacity:1;stroke:#000000;stroke-width:0.26458332px;stroke-linecap:butt;stroke-linejoin:miter;stroke-opacity:0.3515625" />
    <path
       sodipodi:nodetypes="cccccccccccccccc"
       inkscape:connector-curvature="0"
       id="path5163"
       d="m 84.9583,128.01884 0.467722,-0.90204 1.130531,-0.63131 1.608981,0.0968 2.608254,0.88819 1.950845,1.96539 1.287423,2.19113 0.257572,1.05968 -0.09053,1.01166 -0.709688,1.18852 -0.156534,-1.76315 -1.637754,-1.95059 -2.173245,-2.08518 -1.870885,-1.1359 -1.436573,-0.13363 z"
       style="fill:#ffffff;fill-opacity:1;stroke:#000000;stroke-width:0.26458332px;stroke-linecap:butt;stroke-linejoin:miter;stroke-opacity:1" />
    <path
       sodipodi:nodetypes="cccccccccccccccccccc"
       inkscape:connector-curvature="0"
       id="path5184"
       d="m 83.509115,135.54511 0.732328,-1.24024 0.425223,-0.33073 1.346541,0.14174 1.133927,0.35436 0.07087,1.84263 -0.18899,1.63002 -0.779576,0.68508 -1.133927,0.44885 -0.708705,-0.18899 -0.165365,-1.67727 0.614212,0.23624 0.755951,-0.21261 0.47247,-0.54334 0.496093,-1.25205 0.02363,-0.70871 -0.09449,-0.11811 -1.771763,-0.0236 -1.098495,1.16936 z"
       style="fill:#320e00;fill-opacity:0.48828125;stroke:none;stroke-width:0.26458332px;stroke-linecap:butt;stroke-linejoin:miter;stroke-opacity:1" />
  </g>
</svg>
