<?xml version="1.0" encoding="UTF-8" standalone="no"?>
<!-- Created with Inkscape (http://www.inkscape.org/) -->

<svg
   xmlns:dc="http://purl.org/dc/elements/1.1/"
   xmlns:cc="http://creativecommons.org/ns#"
   xmlns:rdf="http://www.w3.org/1999/02/22-rdf-syntax-ns#"
   xmlns:svg="http://www.w3.org/2000/svg"
   xmlns="http://www.w3.org/2000/svg"
   xmlns:sodipodi="http://sodipodi.sourceforge.net/DTD/sodipodi-0.dtd"
   xmlns:inkscape="http://www.inkscape.org/namespaces/inkscape"
   width="55"
   height="55"
   viewBox="0 0 14.552083 14.552084"
   version="1.1"
   id="svg8"
   inkscape:export-filename="/mnt/sdc1/Sayem_Work/laker_reddit/SourceFiles/sprite_icons/film.png"
   inkscape:export-xdpi="96"
   inkscape:export-ydpi="96"
   inkscape:version="0.92.2 2405546, 2018-03-11"
   sodipodi:docname="film.svg">
  <defs
     id="defs2" />
  <sodipodi:namedview
     id="base"
     pagecolor="#ffffff"
     bordercolor="#666666"
     borderopacity="1.0"
     inkscape:pageopacity="0"
     inkscape:pageshadow="2"
     inkscape:zoom="15.839192"
     inkscape:cx="14.432768"
     inkscape:cy="28.451769"
     inkscape:document-units="mm"
     inkscape:current-layer="layer1"
     showgrid="false"
     units="px"
     inkscape:window-width="3785"
     inkscape:window-height="2109"
     inkscape:window-x="55"
     inkscape:window-y="25"
     inkscape:window-maximized="1" />
  <metadata
     id="metadata5">
    <rdf:RDF>
      <cc:Work
         rdf:about="">
        <dc:format>image/svg+xml</dc:format>
        <dc:type
           rdf:resource="http://purl.org/dc/dcmitype/StillImage" />
        <dc:title></dc:title>
      </cc:Work>
    </rdf:RDF>
  </metadata>
  <g
     inkscape:label="Layer 1"
     inkscape:groupmode="layer"
     id="layer1"
     transform="translate(0,-282.4479)">
    <path
       style="opacity:1;fill:#000000;fill-opacity:1;stroke:none;stroke-width:25.16333389;stroke-miterlimit:4;stroke-dasharray:none;stroke-opacity:1;paint-order:markers fill stroke"
       d="M 0 0 L 0 55 L 2 55 L 2 50 L 7 50 L 7 55 L 9 55 L 9 50.011719 L 46 50.011719 L 46 55 L 48 55 L 48 50 L 53 50 L 53 55 L 55 55 L 55 0 L 46 0 L 46 6.9804688 L 9 6.9804688 L 9 0 L 0 0 z M 2 2 L 7 2 L 7 7 L 2 7 L 2 2 z M 48 2 L 53 2 L 53 7 L 48 7 L 48 2 z M 9 9.8847656 L 46 9.8847656 L 46 47.072266 L 9 47.072266 L 9 9.8847656 z M 2 10 L 7 10 L 7 15 L 2 15 L 2 10 z M 48 10 L 53 10 L 53 15 L 48 15 L 48 10 z M 2 18 L 7 18 L 7 23 L 2 23 L 2 18 z M 48 18 L 53 18 L 53 23 L 48 23 L 48 18 z M 2 26 L 7 26 L 7 31 L 2 31 L 2 26 z M 48 26 L 53 26 L 53 31 L 48 31 L 48 26 z M 2 34 L 7 34 L 7 39 L 2 39 L 2 34 z M 48 34 L 53 34 L 53 39 L 48 39 L 48 34 z M 2 42 L 7 42 L 7 47 L 2 47 L 2 42 z M 48 42 L 53 42 L 53 47 L 48 47 L 48 42 z "
       transform="matrix(0.26458333,0,0,0.26458333,0,282.4479)"
       id="rect815" />
    <g
       id="g871">
      <rect
         y="282.97708"
         x="0.52916664"
         height="1.3229166"
         width="1.3229166"
         id="rect817"
         style="opacity:1;fill:#ffffff;fill-opacity:1;stroke:none;stroke-width:4.1296978;stroke-miterlimit:4;stroke-dasharray:none;stroke-opacity:1;paint-order:markers fill stroke" />
      <rect
         style="opacity:1;fill:#ffffff;fill-opacity:1;stroke:none;stroke-width:4.1296978;stroke-miterlimit:4;stroke-dasharray:none;stroke-opacity:1;paint-order:markers fill stroke"
         id="rect821"
         width="1.3229166"
         height="1.3229166"
         x="12.7"
         y="282.97708" />
    </g>
  </g>
</svg>
