<?xml version="1.0" encoding="UTF-8" standalone="no"?>
<!-- Created with Inkscape (http://www.inkscape.org/) -->

<svg
   xmlns:dc="http://purl.org/dc/elements/1.1/"
   xmlns:cc="http://creativecommons.org/ns#"
   xmlns:rdf="http://www.w3.org/1999/02/22-rdf-syntax-ns#"
   xmlns:svg="http://www.w3.org/2000/svg"
   xmlns="http://www.w3.org/2000/svg"
   xmlns:sodipodi="http://sodipodi.sourceforge.net/DTD/sodipodi-0.dtd"
   xmlns:inkscape="http://www.inkscape.org/namespaces/inkscape"
   width="25"
   height="25"
   viewBox="0 0 25 25"
   id="svg2"
   version="1.1"
   inkscape:version="0.91 r13725"
   inkscape:export-filename="D:\Sayem_Work\Pictures\laker_reddit\SourceFiles\sprite_icons\away.png"
   inkscape:export-xdpi="90"
   inkscape:export-ydpi="90"
   sodipodi:docname="home.svg">
  <defs
     id="defs4" />
  <sodipodi:namedview
     id="base"
     pagecolor="#ffffff"
     bordercolor="#666666"
     borderopacity="1.0"
     inkscape:pageopacity="0.0"
     inkscape:pageshadow="2"
     inkscape:zoom="15.839192"
     inkscape:cx="13.80082"
     inkscape:cy="8.3752514"
     inkscape:document-units="px"
     inkscape:current-layer="layer1"
     showgrid="false"
     units="px"
     inkscape:window-width="1920"
     inkscape:window-height="1017"
     inkscape:window-x="-8"
     inkscape:window-y="-8"
     inkscape:window-maximized="1" />
  <metadata
     id="metadata7">
    <rdf:RDF>
      <cc:Work
         rdf:about="">
        <dc:format>image/svg+xml</dc:format>
        <dc:type
           rdf:resource="http://purl.org/dc/dcmitype/StillImage" />
        <dc:title></dc:title>
      </cc:Work>
    </rdf:RDF>
  </metadata>
  <g
     inkscape:label="Layer 1"
     inkscape:groupmode="layer"
     id="layer1"
     transform="translate(0,-1027.3622)">
    <path
       style="fill:#000000;fill-opacity:1"
       d="m -18.68846,1029.5516 -5.250942,5.4773 -5.249058,5.4772 2.12224,0 0,10.0455 16.75552,0 0,-10.0455 2.1222401,0 -5.2490581,-5.4772 -5.250942,-5.4773 z"
       id="rect4136"
       inkscape:connector-curvature="0" />
    <path
       style="fill:#000000;fill-opacity:1"
       d="m 12.789798,1032.364 -5.0704722,0.2682 c 0,0 1.0402487,1.8453 2.0365833,3.6326 l -3.8773029,0 c -0.2029791,0 -0.3988144,0.026 -0.5915884,0.061 l -0.6035802,-2.2937 -3.68343765,0 1.55092115,5.9753 0.037973,-0.01 c 0.3529162,1.7066 3.1786627,3.0292 4.9045883,3.0292 l 2.5642166,0 c -1.4936952,2.0604 -3.1777898,4.3356 -3.1777898,4.3356 l 4.9085858,0 3.85132,-4.3356 3.417623,0 c 1.84324,0 4.942562,-0.5236 4.942562,-2.3974 0,-1.8738 -3.487052,-4.3661 -5.330292,-4.3661 l -3.145812,0 -2.734098,-3.9009 z"
       id="rect4143"
       inkscape:connector-curvature="0" />
  </g>
</svg>
