<?xml version="1.0" encoding="UTF-8" standalone="no"?>
<!-- Created with Inkscape (http://www.inkscape.org/) -->

<svg
   xmlns:dc="http://purl.org/dc/elements/1.1/"
   xmlns:cc="http://creativecommons.org/ns#"
   xmlns:rdf="http://www.w3.org/1999/02/22-rdf-syntax-ns#"
   xmlns:svg="http://www.w3.org/2000/svg"
   xmlns="http://www.w3.org/2000/svg"
   xmlns:sodipodi="http://sodipodi.sourceforge.net/DTD/sodipodi-0.dtd"
   xmlns:inkscape="http://www.inkscape.org/namespaces/inkscape"
   width="179pt"
   height="111pt"
   viewBox="0 0 223.75 138.75"
   id="svg2"
   version="1.1"
   inkscape:version="0.91 r13725"
   sodipodi:docname="lakers_logo.svg"
   inkscape:export-filename="D:\Sayem_Work\~Media Source\laker_reddit\SourceFiles\sprite_icons\lakers_logo.png"
   inkscape:export-xdpi="72"
   inkscape:export-ydpi="72">
  <defs
     id="defs4" />
  <sodipodi:namedview
     id="base"
     pagecolor="#ffffff"
     bordercolor="#666666"
     borderopacity="1.0"
     inkscape:pageopacity="0.0"
     inkscape:pageshadow="2"
     inkscape:zoom="1.979899"
     inkscape:cx="148.24256"
     inkscape:cy="113.89485"
     inkscape:document-units="px"
     inkscape:current-layer="layer1"
     showgrid="false"
     fit-margin-top="0"
     fit-margin-left="0"
     fit-margin-right="0"
     fit-margin-bottom="0"
     inkscape:window-width="1920"
     inkscape:window-height="1027"
     inkscape:window-x="-8"
     inkscape:window-y="-8"
     inkscape:window-maximized="1"
     units="pt" />
  <metadata
     id="metadata7">
    <rdf:RDF>
      <cc:Work
         rdf:about="">
        <dc:format>image/svg+xml</dc:format>
        <dc:type
           rdf:resource="http://purl.org/dc/dcmitype/StillImage" />
        <dc:title />
      </cc:Work>
    </rdf:RDF>
  </metadata>
  <g
     inkscape:label="Layer 1"
     inkscape:groupmode="layer"
     id="layer1"
     transform="translate(65.934114,-705.25623)">
    <path
       sodipodi:nodetypes="cccccccccccccccssccccccc"
       inkscape:connector-curvature="0"
       id="path4160"
       d="m 45.929953,709.49597 c -23.265245,0.0341 -44.8553363,12.10764 -57.064819,31.91171 l -10.068213,0 -6.690853,11.58754 6.336666,0 -5.988284,10.37015 -3.921223,1.05095 -8.097925,14.0262 5.266361,0 -3.472197,7.46504 -8.63211,0 -11.047551,21.11769 43.497313,0 c 11.4416052,22.55864 34.588513,36.77447 59.882835,36.77743 24.348248,-0.0102 46.783622,-13.19886 58.634467,-34.46843 6.6246,3.32606 15.84987,4.11474 22.69316,2.51027 6.03795,-1.41565 13.74275,-6.30199 20.23707,-15.26683 4.21461,-5.81791 8.77991,-19.21514 8.77991,-19.21514 -6.08381,0 -16.18239,-0.0217 -16.18239,-0.0217 l 8.58116,-20.87344 -7.27922,0 8.69404,-15.05974 -47.0508,0 C 90.819904,721.59073 69.210357,709.51528 45.929953,709.49597 Z"
       style="fill:#000000;fill-opacity:0.20689656;stroke:none;stroke-width:1;stroke-miterlimit:4;stroke-dasharray:none;stroke-opacity:1" />
    <path
       style="fill:#ffffff;fill-opacity:1;stroke:none;stroke-width:0.1;stroke-miterlimit:4;stroke-dasharray:none;stroke-opacity:1"
       d="m 43.929953,705.49597 c -23.265245,0.0341 -44.85533627,12.10764 -57.064819,31.91171 l -10.068213,0 -6.690853,11.58754 6.336666,0 -5.988284,10.37015 -3.921223,1.05095 -8.097925,14.0262 5.266361,0 -3.472197,7.46504 -8.63211,0 -11.047551,21.11769 43.497313,0 c 11.4416052,22.55864 34.588513,36.77447 59.882835,36.77743 24.348248,-0.0102 46.783622,-13.19886 58.634467,-34.46843 6.6246,3.32606 15.84987,4.11474 22.69316,2.51027 6.03795,-1.41565 13.74275,-6.30199 20.23707,-15.26683 4.21461,-5.81791 8.77991,-19.21514 8.77991,-19.21514 -6.08381,0 -16.18239,-0.0217 -16.18239,-0.0217 l 8.58116,-20.87344 -7.27922,0 8.69404,-15.05974 -47.0508,0 C 88.819904,717.59073 67.210357,705.51528 43.929953,705.49597 Z"
       id="path4153"
       inkscape:connector-curvature="0"
       sodipodi:nodetypes="cccccccccccccccssccccccc" />
    <g
       id="g4152"
       transform="matrix(0.22569325,0,0,0.22569325,-33.747775,642.46944)">
      <path
         style="fill:#f5af1b;fill-opacity:1"
         d="m 320.14882,843.41168 c -22.90342,-2.21431 -48.44159,-7.97917 -68.7118,-15.51067 -43.67338,-16.22708 -90.71947,-52.29719 -119.95973,-91.97281 -10.01693,-13.59181 -13.75584,-20.82666 -13.06802,-25.28684 0.47677,-3.09161 -0.11373,-4.88067 -3.63147,-11.00234 l -4.20083,-7.31039 -84,0.0319 c -46.2,0.0175 -85.575,-0.30952 -87.5,-0.72669 -2.55378,-0.55343 -3.58633,-1.35632 -3.81934,-2.96985 -0.50336,-3.48565 3.28166,-4.21458 21.88444,-4.21458 15.07201,0 17.13604,-0.20114 18.76337,-1.82847 3.00065,-3.00065 8.40033,-13.13291 7.8136,-14.66189 -0.38531,-1.00411 -2.65932,-1.50641 -7.76351,-1.71485 -10.84547,-0.4429 -10.02603,-2.44748 1.2203,-2.98517 8.24827,-0.39436 9.38333,-0.68683 11.15496,-2.87433 3.11227,-3.84283 8.93176,-16.0093 8.36458,-17.48735 -0.41023,-1.06904 -6.66156,-1.40065 -30.98433,-1.64359 -16.75872,-0.16739 -30.8317,-0.66632 -31.27328,-1.10872 -2.14203,-2.14604 4.43111,-2.66611 33.87667,-2.68032 l 31.73745,-0.0153 2.32733,-3.75 c 5.61757,-9.05152 13.7889,-25.55886 13.0284,-26.31936 -0.45814,-0.45814 -4.17145,-0.96745 -8.25182,-1.13181 -4.82105,-0.19419 -7.56357,-0.73653 -7.83216,-1.54883 -0.30644,-0.92676 1.55599,-1.25 7.20213,-1.25 11.73537,0 13.3754,-1.05888 19.41812,-12.53714 2.8232,-5.36273 5.13309,-10.57659 5.13309,-11.58635 0,-1.71357 -1.38292,-1.85395 -20.75,-2.10622 -17.65765,-0.23001 -20.75,-0.49383 -20.75,-1.77029 0,-1.28001 3.24301,-1.53942 22.11199,-1.76876 19.50628,-0.23709 22.29099,-0.47278 23.63093,-2 2.88302,-3.28599 19.92342,-36.15307 19.28208,-37.19078 -0.40671,-0.65808 -7.32851,-1.04548 -18.83402,-1.05411 -19.11658,-0.0143 -22.69098,-0.40753 -22.69098,-2.49599 0,-2.21004 2.64524,-2.49036 23.5,-2.49036 11.18503,0 21.07307,-0.28268 21.97341,-0.62817 2.06616,-0.79286 11.84067,-20.11097 11.12255,-21.98235 -0.33309,-0.86802 -2.04613,-1.38948 -4.56458,-1.38948 -2.91678,0 -4.03138,-0.41472 -4.03138,-1.5 0,-1.14556 1.25841,-1.5 5.32569,-1.5 4.26121,0 5.72709,-0.44972 7.33399,-2.25 3.48099,-3.89992 13.46708,-21.9773 12.92327,-23.39443 -0.37534,-0.97812 -2.68687,-1.35983 -8.30157,-1.37088 -4.27976,-0.008 -8.45638,-0.45842 -9.28138,-1 -2.7969,-1.83605 1.02873,-2.95323 10.16821,-2.96938 4.76752,-0.008 9.4125,-0.30092 10.32218,-0.64999 1.44715,-0.55533 6.50961,-10.22226 6.50961,-12.43032 0,-0.44888 -8.73856,-0.95539 -19.41902,-1.12557 -10.68047,-0.17019 -19.77993,-0.6714 -20.22104,-1.1138 -1.99328,-1.99913 3.56002,-2.66608 22.31748,-2.68032 l 20.17742,-0.0153 2.09431,-2.66248 c 2.75938,-3.50798 3.56681,-7.0109 2.04007,-8.85051 -0.96754,-1.16581 -3.85368,-1.48821 -13.36166,-1.49259 -14.0344,-0.006 -19.62756,-1.14809 -19.62756,-4.00624 0,-3.54747 3.12819,-3.98818 28.30818,-3.98818 l 24.43967,0 5.23937,-7.98053 c 4.1144,-6.267 5.10249,-8.5259 4.60187,-10.52052 -0.78266,-3.11838 0.11752,-4.86035 7.75088,-14.99895 8.93097,-11.86209 30.5524,-33.0092 43.66003,-42.70226 54.40153,-40.22978 112.92477,-58.34546 174,-53.86114 54.52529,4.0034 99.6238,20.00141 138.09077,48.98557 11.53255,8.68958 34.25912,29.43944 43.28501,39.5202 12.48075,13.93938 12.88765,14.5469 12.27434,18.32625 -0.47683,2.93835 0.27313,4.57656 5.74768,12.55533 3.46283,5.04683 7.82008,11.76355 9.68276,14.92605 1.86269,3.1625 3.95657,5.75 4.65307,5.75 1.57265,0 1.67043,-4.19594 0.13359,-5.73278 -0.62303,-0.62303 -0.86216,-1.83803 -0.53139,-2.7 0.52064,-1.35676 3.53427,-1.56722 22.44166,-1.56722 25.63897,0 26.37515,0.20947 24.36111,6.93173 -0.68781,2.2957 -1.90365,4.42462 -2.70186,4.73092 -0.83247,0.31945 -3.14305,-0.97148 -5.41881,-3.02749 -4.45563,-4.02539 -6.97309,-4.91841 -12.55813,-4.45475 -3.47816,0.28876 -4.16802,0.85022 -7.15054,5.81959 -1.81554,3.025 -3.30285,6.0625 -3.30512,6.75 -0.006,1.76898 7.41318,1.60267 10.98877,-0.24633 3.93131,-2.03296 4.55297,-0.49976 1.91058,4.71203 -2.72039,5.36562 -3.81816,6.07023 -6.60863,4.24184 -1.22347,-0.80164 -3.80377,-1.45754 -5.734,-1.45754 -2.91384,0 -3.78182,0.52661 -5.11396,3.10269 -1.32106,2.55464 -1.39248,3.61447 -0.40436,6 1.02061,2.46397 1.7579,2.89731 4.92956,2.89731 4.79068,0 9.69691,-1.65964 13.71118,-4.6381 3.03498,-2.25187 5.31672,-3.02096 5.31672,-1.79208 0,1.34875 -6.07476,9.24489 -7.54705,9.80986 -0.88909,0.34118 -4.1058,0.62032 -7.14824,0.62032 -5.49271,0 -5.52808,0.0194 -5.01697,2.75 0.28311,1.5125 2.4027,8.2625 4.7102,15 l 4.19544,12.25 9.15331,0.0119 c 18.28224,0.0237 32.41403,6.88073 38.19113,18.5311 3.06642,6.1839 2.71755,18.40214 -0.71261,24.95703 -4.67372,8.9313 -19.25739,21.21111 -32.50046,27.36621 l -5.09105,2.3662 -0.4772,12.6338 -0.4772,12.63379 6.29261,11.5 c 3.46093,6.325 7.31276,13.6375 8.55961,16.25 1.24686,2.6125 2.5967,4.75 2.99965,4.75 0.84659,0 4.86883,-5.43227 4.86883,-6.57563 0,-0.42179 -0.73625,-1.58044 -1.63612,-2.57478 -1.52134,-1.68106 -1.5038,-1.85014 0.25,-2.4101 1.03737,-0.33121 2.80051,-0.96124 3.91811,-1.40007 1.11759,-0.43883 5.61759,-6.24361 10,-12.8995 4.3824,-6.6559 8.35474,-12.11025 8.82742,-12.12078 0.47267,-0.0105 0.58391,1.66836 0.24719,3.73086 -0.33671,2.0625 -0.89224,8.3019 -1.23449,13.86534 -0.77623,12.61752 0.86834,18.56228 6.55678,23.70146 5.25472,4.74731 9.83136,6.05396 19.00274,5.42534 12.44356,-0.8529 18.18678,-4.15644 22.72423,-13.07114 2.72498,-5.35373 2.16407,-7.30479 -2.26013,-7.86164 -3.33705,-0.42001 -3.11623,-2.22924 0.32318,-2.64785 4.20896,-0.51227 5.47197,-2.00883 4.70145,-5.57085 -0.9277,-4.28866 -5.90279,-13.98553 -10.69255,-20.84066 -2.20968,-3.1625 -4.06489,-5.82823 -4.1227,-5.92385 -0.0578,-0.0956 -8.76997,-0.43311 -19.36035,-0.75 -24.24613,-0.72549 -26.37726,-2.464 -3.49476,-2.85092 18.09133,-0.30591 18.49853,-0.50063 13.4681,-6.44043 -1.53005,-1.80664 -4.01015,-4.94896 -5.51133,-6.98293 -2.45436,-3.32544 -3.24946,-3.72856 -7.8895,-4 -6.18442,-0.3618 -7.72717,-2.52661 -2.12925,-2.98781 4.3065,-0.3548 4.01905,1.26621 2.71601,-15.31607 -0.466,-5.93024 -0.21581,-9.3927 0.96633,-13.37341 1.81575,-6.11429 1.53035,-7.12458 -2.01271,-7.12458 -3.97416,0 -2.23775,-2.43024 2.14351,-3 3.26376,-0.42444 4.53903,-1.39358 8.43844,-6.41281 8.55064,-11.0062 19.08749,-15.9895 36.36217,-17.19712 13.93706,-0.97431 22.43815,1.2534 33.37841,8.74678 4.91732,3.36805 9.46824,3.67165 19.04301,1.27039 6.68705,-1.67705 9.27681,-1.40851 9.27681,0.96193 0,0.78756 -5.45754,11.15168 -12.12786,23.03138 -9.1637,16.32031 -12.59311,21.59942 -14.03139,21.59942 -2.81993,0 -3.18793,-2.19368 -1.56303,-9.31729 1.71263,-7.50819 0.96536,-9.68271 -3.32741,-9.68271 -1.95583,0 -2.95031,-0.50561 -2.95031,-1.5 0,-0.98582 0.9864,-1.5 2.87756,-1.5 4.62966,0 5.55051,-2.01567 3.75013,-8.20875 -2.97894,-10.24719 -12.7659,-16.73094 -25.31259,-16.76929 -10.9522,-0.0335 -15.77411,2.5675 -19.42506,10.47804 -5.15773,11.1753 0.67238,26.70723 16.68376,44.44703 8.36326,9.26606 14.71064,18.98782 18.14392,27.78953 2.12052,5.43628 2.65234,8.52947 2.71024,15.76344 0.0651,8.12743 -0.23754,9.65353 -3.12109,15.74075 -5.43179,11.46659 -15.7605,19.89999 -30.30687,24.74558 -12.93477,4.30874 -33.60321,1.94711 -48.32964,-5.52227 -5.51882,-2.7992 -7.97209,-3.46406 -12.78212,-3.46406 -6.37247,0 -12.56767,2.00104 -13.46926,4.35055 -0.75552,1.96884 6.13183,23.76522 9.83898,31.13742 3.94268,7.84058 14.3974,18.15699 22.24204,21.9478 19.17915,9.26804 39.78938,8.63642 62,-1.90005 9.20527,-4.36688 17.5,-9.81035 17.5,-11.48449 0,-0.51493 -1.9125,-1.07461 -4.25,-1.24373 -2.97445,-0.21521 -4.25,-0.7577 -4.25,-1.8075 0,-1.19429 1.74547,-1.55833 8.56435,-1.78623 l 8.56435,-0.28622 8.01424,-7.71378 c 8.86542,-8.53304 19.35706,-20.91516 19.35706,-22.84498 0,-0.68314 -1.4625,-1.38308 -3.25,-1.55543 -4.84297,-0.46695 -3.4827,-2.26715 1.98487,-2.62682 3.11335,-0.20479 5.52997,-1.03097 6.97157,-2.38339 5.17639,-4.85614 16.96132,-24.91368 15.77039,-26.84064 -0.32718,-0.52938 -2.4013,-0.96251 -4.60917,-0.96251 -3.28308,0 -3.95377,-0.31877 -3.68199,-1.75 0.25346,-1.33475 1.51663,-1.82438 5.32332,-2.06346 3.32188,-0.20862 5.71872,-0.99612 7.16698,-2.35476 2.18583,-2.05056 4.32403,-1.78841 4.32403,0.53013 0,2.35638 -7.7588,17.15735 -13.70182,26.13809 -15.57212,23.53168 -39.65717,49.2767 -56.79818,60.71276 -42.84094,28.58245 -85.17925,31.00218 -120.30448,6.87568 -7.04257,-4.83733 -17.7601,-15.78709 -22.54323,-23.03167 l -3.5938,-5.44323 -2.1412,4.94323 c -1.17766,2.71878 -4.33407,9.53321 -7.01425,15.14319 -3.74586,7.84058 -4.73511,10.88967 -4.27671,13.18168 0.4934,2.46699 -0.61399,5.02193 -6.41476,14.80004 -11.28829,19.02817 -24.12585,35.1974 -40.36878,50.8455 -48.62771,46.84692 -110.37516,72.37751 -178.84279,73.94577 -9.625,0.22046 -21.74267,-0.009 -26.92815,-0.51068 z M 78.41892,679.59279 c 8.72428,-2.34584 20.59196,-7.80757 21.3699,-9.83485 0.2775,-0.72317 -1.19723,-6.48844 -3.27719,-12.8117 l -3.78176,-11.49683 -21.704,0 c -16.76896,0 -21.95338,0.30047 -22.8007,1.32143 -1.4512,1.74859 -18.1482,31.75178 -18.1482,32.61089 0,0.36722 0.5625,1.24919 1.25,1.95993 2.13482,2.20698 37.22667,0.90376 47.09195,-1.74887 z M 67.93077,635.91766 c 8.84235,-1.67737 15.42874,-3.76813 18.77264,-5.95914 2.086,-1.3668 2.11563,-1.64514 0.87398,-8.21193 -1.44564,-7.64567 -3.10005,-20.97101 -4.04164,-32.55312 -0.34679,-4.26577 -0.99683,-7.52956 -1.44453,-7.25287 -1.14825,0.70966 -29.01425,52.88452 -29.01425,54.32478 0,1.61555 5.13837,1.49526 14.8538,-0.34772 z M 603.64766,523.82657 c 0.80928,-5.39667 -0.70459,-11.28338 -3.56819,-13.87489 -1.10812,-1.00284 -2.24135,-1.59676 -2.51829,-1.31982 -0.27694,0.27694 0.40082,4.89872 1.50613,10.27062 1.10531,5.3719 2.00966,9.96911 2.00966,10.21603 0,0.24691 0.424,0.18689 0.94222,-0.13339 0.51822,-0.32028 1.25104,-2.64163 1.62847,-5.15855 z m 11.09598,-53.04383 c -1.40798,-1.40798 -0.55754,-3.3395 2.08333,-4.73163 1.97277,-1.03994 4.68352,-5.15557 9.59122,-14.56198 6.74252,-12.92315 6.81674,-13.14969 5.14453,-15.70182 -2.45729,-3.7503 -0.89198,-4.30467 12.20523,-4.32259 11.87988,-0.0163 14.34757,0.91556 10.55582,3.98593 -2.22996,1.80571 -15.2468,26.97786 -15.2468,29.48448 0,3.48074 13.06288,0.14563 17.47748,-4.46221 2.5695,-2.68199 5.52252,-4.00202 5.52252,-2.46864 0,1.39481 -8.08237,12.26276 -9.53392,12.81977 -2.19203,0.84117 -36.95493,0.80317 -37.79941,-0.0413 z m 51.79221,-0.39986 c -0.81647,-1.32108 -0.45141,-1.69194 3.712,-3.77102 2.7176,-1.35708 4.56902,-4.0365 10.07912,-14.58678 3.7125,-7.10839 6.75,-13.50505 6.75,-14.21482 0,-0.70977 -0.92905,-1.7877 -2.06457,-2.39541 -1.65126,-0.88373 -1.82694,-1.39124 -0.87755,-2.53518 0.96186,-1.15898 5.25424,-1.43026 22.63031,-1.43026 22.31044,0 25.31181,0.48982 25.31181,4.13089 0,2.47711 -3.03099,7.86911 -4.42344,7.86911 -0.54573,0 -2.71664,-1.68383 -4.82424,-3.74185 -3.59103,-3.50655 -4.22254,-3.74237 -10.04216,-3.75 l -6.21016,-0.008 -3.17144,5.97261 c -1.74429,3.28493 -2.95523,6.32243 -2.69098,6.75 0.73153,1.18364 7.93969,0.92712 10.81959,-0.38505 3.56952,-1.62638 3.88136,-0.79313 1.65072,4.41074 -2.40442,5.60928 -3.54004,6.35379 -6.61668,4.3379 -1.33147,-0.87241 -4.0041,-1.5862 -5.93918,-1.5862 -3.22101,0 -3.73407,0.42572 -6.07103,5.03749 -1.40398,2.77062 -2.285,5.47062 -1.95783,6 0.81998,1.32675 10.43645,1.21092 14.57761,-0.17559 1.86957,-0.62596 4.8317,-2.20096 6.5825,-3.5 5.47835,-4.06477 6.99763,-2.63099 3.16166,2.98373 -1.18529,1.7349 -2.84629,3.71687 -3.69113,4.40437 -2.00864,1.63456 -45.69203,1.8062 -46.69493,0.18347 z m 72.04112,-1.55681 c -3.95539,-2.03457 -5.88792,-2.45104 -9.25,-1.99341 -5.00969,0.68189 -5.12112,0.26934 -1.73315,-6.41649 2.59639,-5.12373 4.91153,-6.34313 5.93295,-3.12493 1.53545,4.83779 9.03382,8.25754 14.88561,6.78883 5.64359,-1.41644 4.04991,-6.20758 -3.41656,-10.27135 -7.9494,-4.3266 -9.8637,-10.12661 -5.75507,-17.43693 1.25491,-2.23281 3.63599,-4.54854 5.6687,-5.51313 4.62987,-2.19701 14.52295,-2.20515 19.65162,-0.0161 2.19125,0.93526 5.24683,1.8475 6.79017,2.02719 3.86622,0.45015 4.05585,0.85386 2.33534,4.97162 -1.70852,4.08905 -3.04255,4.53617 -4.63825,1.55458 -2.78571,-5.20514 -11.94075,-7.74071 -14.00725,-3.87943 -1.46776,2.74253 0.54724,5.81264 6.50556,9.91207 2.47519,1.70298 4.95709,3.94976 5.51534,4.99285 3.84415,7.18287 -2.80612,17.80779 -12.5624,20.07055 -6.43284,1.49195 -10.63904,1.05189 -15.92261,-1.66587 z"
         id="path4180"
         inkscape:connector-curvature="0" />
      <path
         style="fill:#4a2583;fill-opacity:1"
         d="m 320.14882,843.41168 c -58.82469,-5.68718 -106.72532,-27.08342 -152.9478,-68.31866 -28.20236,-25.15944 -57.31134,-65.64361 -47.19915,-65.64361 1.31751,0 4.28072,3.39214 9.39068,10.75 29.93495,43.10344 72.95682,77.59553 120.68058,96.75368 13.86435,5.56569 34.1883,11.63045 35.3249,10.54112 0.45158,-0.43281 -2.50211,-5.23244 -6.56375,-10.66586 -23.55792,-31.51434 -38.78255,-55.6543 -52.27022,-82.87894 -11.88895,-23.99763 -18.7564,-40.703 -23.97262,-58.31439 -3.61376,-12.20106 -4.11612,-17.16985 -1.81237,-17.92586 2.28042,-0.74835 4.74991,3.76885 7.04192,12.88111 4.42165,17.57903 19.79018,54.27837 31.9768,76.35914 15.28087,27.68719 44.78982,68.69421 58.06028,80.68328 4.6411,4.19295 7.22775,4.65499 32.2189,5.75515 24.82227,1.09273 48.61154,-0.27611 65.5,-3.76889 15.39633,-3.18419 32.96021,-8.32314 35.97087,-10.52458 2.25191,-1.64663 4.99824,8.01345 -21.78992,-76.64496 -22.53868,-71.22882 -24.75468,-78.64428 -24.05027,-80.47994 0.97286,-2.53524 3.31372,-1.70997 4.90691,1.72994 0.82787,1.7875 9.35516,28 18.94952,58.25 26.12246,82.36135 29.72226,92.94634 31.73607,93.31816 3.69795,0.68277 28.40556,-11.91281 45.17335,-23.02872 14.24756,-9.44517 23.36715,-16.63125 33.99747,-26.78944 17.7488,-16.96052 28.14048,-30.02222 44.95049,-56.5 2.00284,-3.1547 4.00127,-5.11793 5.41494,-5.31955 3.83951,-0.54759 2.70285,3.28 -4.6592,15.68938 -11.17421,18.83511 -24.07128,35.06394 -40.25744,50.65735 -48.62771,46.84692 -110.37516,72.37751 -178.84279,73.94577 -9.625,0.22046 -21.74267,-0.009 -26.92815,-0.51068 z M 652.13755,715.36247 c -19.1039,-2.47225 -38.33975,-12.27011 -52.17368,-26.57488 -8.01359,-8.28634 -12.27824,-14.48739 -15.58832,-22.66634 -1.37379,-3.39451 -2.9483,-6.72257 -3.49892,-7.39568 -0.6858,-0.83836 -5.58951,-1.31083 -15.56829,-1.5 -10.56238,-0.20024 -14.68137,-0.61981 -14.9826,-1.52616 -0.31758,-0.95555 2.53331,-1.25 12.1028,-1.25 6.88503,0 13.71961,-0.45676 15.18797,-1.01503 2.28873,-0.87018 2.56996,-1.40534 1.97058,-3.75 -0.38453,-1.50423 -1.26003,-7.59089 -1.94556,-13.5259 -0.68553,-5.93501 -1.66378,-11.20829 -2.17388,-11.71839 -0.51011,-0.51011 -6.76919,-1.05419 -13.90907,-1.20907 -10.74738,-0.23314 -12.98161,-0.53977 -12.98161,-1.78161 0,-1.22748 1.99849,-1.5448 11,-1.7466 14.80242,-0.33185 15.50075,-0.53564 15.49681,-4.52245 -0.004,-4.16376 -2.71739,-19.88487 -4.46187,-25.85277 -3.09819,-10.59897 -7.61297,-15.87818 -13.579,-15.87818 l -3.75202,0 -14.66129,28.05394 c -16.60941,31.7816 -16.93274,32.94733 -10.11636,36.47291 4.59932,2.37888 5.25834,3.64569 3.04694,5.85708 -1.42125,1.42125 -5.50227,1.61607 -33.85351,1.61607 -26.50888,0 -32.58238,-0.25614 -34.17857,-1.44143 -3.37772,-2.50821 -0.71053,-4.89704 6.87863,-6.16075 3.64049,-0.6062 7.27137,-1.64352 8.0686,-2.30517 2.51136,-2.08424 25.79987,-44.15975 25.24396,-45.60844 -0.34617,-0.9021 -2.54275,-1.48593 -6.3312,-1.68278 -7.94138,-0.41264 -6.90565,-2.18902 1.63339,-2.80143 3.83444,-0.275 7.41608,-0.95 7.95921,-1.5 2.25589,-2.28442 18.1537,-32.01739 17.8832,-33.44616 -0.20459,-1.08065 -1.66192,-1.63415 -4.78555,-1.81756 -10.83718,-0.63632 -12.54875,-3.18375 -2.24137,-3.33596 11.18058,-0.16511 10.81251,0.1285 19.98679,-15.94359 4.53871,-7.9512 8.25468,-14.96938 8.25771,-15.59595 0.0129,-2.66458 -3.65963,-5.50618 -7.84108,-6.06703 -4.86232,-0.65217 -6.47736,-2.85249 -3.62477,-4.93836 2.71206,-1.9831 76.66714,-1.94516 84.13495,0.0432 11.20681,2.98386 19.9745,9.28005 23.87422,17.14441 3.06642,6.1839 2.71755,18.40214 -0.71261,24.95703 -7.14219,13.64843 -29.39541,28.58072 -49.07521,32.93031 -1.5125,0.33428 -2.75,1.01334 -2.75,1.50901 0,0.49567 2.44525,4.45098 5.43389,8.78959 5.93533,8.6163 15.14606,24.49108 21.04492,36.27109 2.0656,4.125 3.96823,7.725 4.22805,8 0.5705,0.60382 5.28114,-5.11615 5.28817,-6.42126 0.003,-0.50669 -0.73128,-1.73481 -1.63115,-2.72915 -1.52134,-1.68106 -1.5038,-1.85014 0.25,-2.4101 1.03737,-0.33121 2.80051,-0.96124 3.91811,-1.40007 1.11759,-0.43883 5.61759,-6.24361 10,-12.8995 4.3824,-6.6559 8.35474,-12.11025 8.82742,-12.12078 0.47267,-0.0105 0.58391,1.66836 0.24719,3.73086 -0.33671,2.0625 -0.89224,8.3019 -1.23449,13.86534 -0.77623,12.61752 0.86834,18.56228 6.55678,23.70146 5.25472,4.74731 9.83136,6.05396 19.00274,5.42534 12.44356,-0.8529 18.18678,-4.15644 22.72423,-13.07114 2.76135,-5.42519 2.1622,-7.32525 -2.47904,-7.86164 -3.62048,-0.41842 -3.39963,-2.22781 0.32318,-2.64785 4.41689,-0.49835 5.70271,-1.95415 4.92036,-5.57085 -0.9277,-4.28866 -5.90279,-13.98553 -10.69255,-20.84066 -2.20968,-3.1625 -4.06489,-5.82823 -4.1227,-5.92385 -0.0578,-0.0956 -8.76997,-0.43311 -19.36035,-0.75 -24.24613,-0.72549 -26.37726,-2.464 -3.49476,-2.85092 18.09133,-0.30591 18.49853,-0.50063 13.4681,-6.44043 -1.53005,-1.80664 -4.01015,-4.94896 -5.51133,-6.98293 -2.45436,-3.32544 -3.24946,-3.72856 -7.8895,-4 -6.18442,-0.3618 -7.72717,-2.52661 -2.12925,-2.98781 4.3065,-0.3548 4.01905,1.26621 2.71601,-15.31607 -0.466,-5.93024 -0.21581,-9.3927 0.96633,-13.37341 1.81575,-6.11429 1.53035,-7.12458 -2.01271,-7.12458 -3.97416,0 -2.23775,-2.43024 2.14351,-3 3.26376,-0.42444 4.53903,-1.39358 8.43844,-6.41281 8.55064,-11.0062 19.08749,-15.9895 36.36217,-17.19712 13.93706,-0.97431 22.43815,1.2534 33.37841,8.74678 4.91732,3.36805 9.46824,3.67165 19.04301,1.27039 6.68705,-1.67705 9.27681,-1.40851 9.27681,0.96193 0,0.78756 -5.45754,11.15168 -12.12786,23.03138 -9.1637,16.32031 -12.59311,21.59942 -14.03139,21.59942 -2.81993,0 -3.18793,-2.19368 -1.56303,-9.31729 1.71263,-7.50819 0.96536,-9.68271 -3.32741,-9.68271 -1.95583,0 -2.95031,-0.50561 -2.95031,-1.5 0,-0.98582 0.9864,-1.5 2.87756,-1.5 4.62966,0 5.55051,-2.01567 3.75013,-8.20875 -2.97894,-10.24719 -12.7659,-16.73094 -25.31259,-16.76929 -10.9522,-0.0335 -15.77411,2.5675 -19.42506,10.47804 -5.15773,11.1753 0.67238,26.70723 16.68376,44.44703 8.36326,9.26606 14.71064,18.98782 18.14392,27.78953 2.12052,5.43628 2.65234,8.52947 2.71024,15.76344 0.0651,8.12743 -0.23754,9.65353 -3.12109,15.74075 -5.43179,11.46659 -15.7605,19.89999 -30.30687,24.74558 -12.93477,4.30874 -33.60321,1.94711 -48.32964,-5.52227 -5.51882,-2.7992 -7.97209,-3.46406 -12.78212,-3.46406 -6.37247,0 -12.56767,2.00104 -13.46926,4.35055 -0.75552,1.96884 6.13183,23.76522 9.83898,31.13742 3.94268,7.84058 14.3974,18.15699 22.24204,21.9478 19.17915,9.26804 39.78938,8.63642 62,-1.90005 9.20527,-4.36688 17.5,-9.81035 17.5,-11.48449 0,-0.51493 -1.9125,-1.07461 -4.25,-1.24373 -2.97445,-0.21521 -4.25,-0.7577 -4.25,-1.8075 0,-1.19429 1.74547,-1.55833 8.56435,-1.78623 l 8.56435,-0.28622 8.01424,-7.71378 c 8.86542,-8.53304 19.35706,-20.91516 19.35706,-22.84498 0,-0.68314 -1.4625,-1.38308 -3.25,-1.55543 -5.02972,-0.48496 -3.8361,-2.27662 1.75,-2.62682 3.35688,-0.21044 5.72509,-0.99368 7.20644,-2.38339 5.17639,-4.85614 16.96132,-24.91368 15.77039,-26.84064 -0.32718,-0.52938 -2.4013,-0.96251 -4.60917,-0.96251 -3.28308,0 -3.95377,-0.31877 -3.68199,-1.75 0.25346,-1.33475 1.51663,-1.82438 5.32332,-2.06346 3.32188,-0.20862 5.71872,-0.99612 7.16698,-2.35476 2.18583,-2.05056 4.32403,-1.78841 4.32403,0.53013 0,2.35638 -7.7588,17.15735 -13.70182,26.13809 -15.57212,23.53168 -39.65717,49.2767 -56.79818,60.71276 -18.94022,12.63646 -38.47394,20.40838 -57,22.67868 -10.04891,1.23147 -14.06193,1.23517 -23.43942,0.0216 z m -72.4573,-152.73505 c 11.38543,-7.35875 19.39823,-19.42438 22.97477,-34.59526 2.08707,-8.85289 1.37055,-13.788 -2.57467,-17.73321 -3.11283,-3.11284 -8.33703,-3.8581 -11.21261,-1.59954 -2.2597,1.77483 -26.99654,47.49748 -26.61044,49.18575 0.28407,1.24217 9.40506,8.34791 10.91463,8.50309 0.32723,0.0336 3.25598,-1.65873 6.50832,-3.76083 z M -61.42303,691.58304 c -2.0956,-0.4516 -3.09627,-1.32237 -3.31934,-2.88845 -0.50144,-3.5204 3.23491,-4.24518 21.88444,-4.24518 15.07201,0 17.13604,-0.20114 18.76337,-1.82847 3.00065,-3.00065 8.40033,-13.13291 7.8136,-14.66189 -0.38531,-1.00411 -2.65932,-1.50641 -7.76351,-1.71485 -10.84547,-0.4429 -10.02603,-2.44748 1.2203,-2.98517 8.24827,-0.39436 9.38333,-0.68683 11.15496,-2.87433 3.11227,-3.84283 8.93176,-16.0093 8.36458,-17.48735 -0.41023,-1.06904 -6.66156,-1.40065 -30.98433,-1.64359 -16.75872,-0.16739 -30.8317,-0.66632 -31.27328,-1.10872 -2.14203,-2.14604 4.43111,-2.66611 33.87667,-2.68032 l 31.73745,-0.0153 2.32733,-3.75 c 5.61757,-9.05152 13.7889,-25.55886 13.0284,-26.31936 -0.45814,-0.45814 -4.17145,-0.96745 -8.25182,-1.13181 -4.82105,-0.19419 -7.56357,-0.73653 -7.83216,-1.54883 -0.30644,-0.92676 1.55599,-1.25 7.20213,-1.25 11.73537,0 13.3754,-1.05888 19.41812,-12.53714 2.8232,-5.36273 5.13309,-10.57659 5.13309,-11.58635 0,-1.71357 -1.38292,-1.85395 -20.75,-2.10622 -17.65765,-0.23001 -20.75,-0.49383 -20.75,-1.77029 0,-1.28001 3.24301,-1.53942 22.11199,-1.76876 19.50628,-0.23709 22.29099,-0.47278 23.63093,-2 2.88302,-3.28599 19.92342,-36.15307 19.28208,-37.19078 -0.40671,-0.65808 -7.32851,-1.04548 -18.83402,-1.05411 -19.11658,-0.0143 -22.69098,-0.40753 -22.69098,-2.49599 0,-2.21004 2.64524,-2.49036 23.5,-2.49036 11.18503,0 21.07307,-0.28268 21.97341,-0.62817 2.06616,-0.79286 11.84067,-20.11097 11.12255,-21.98235 -0.33309,-0.86802 -2.04613,-1.38948 -4.56458,-1.38948 -2.91678,0 -4.03138,-0.41472 -4.03138,-1.5 0,-1.14556 1.25841,-1.5 5.32569,-1.5 4.26121,0 5.72709,-0.44972 7.33399,-2.25 3.48099,-3.89992 13.46708,-21.9773 12.92327,-23.39443 -0.37534,-0.97812 -2.68687,-1.35983 -8.30157,-1.37088 -4.27976,-0.008 -8.45638,-0.45842 -9.28138,-1 -2.7969,-1.83605 1.02873,-2.95323 10.16821,-2.96938 4.76752,-0.008 9.4125,-0.30092 10.32218,-0.64999 1.44715,-0.55533 6.50961,-10.22226 6.50961,-12.43032 0,-0.44888 -8.73856,-0.95539 -19.41902,-1.12557 -10.68047,-0.17019 -19.77993,-0.6714 -20.22104,-1.1138 -1.99328,-1.99913 3.56002,-2.66608 22.31748,-2.68032 l 20.17742,-0.0153 2.09431,-2.66248 c 2.75938,-3.50798 3.56681,-7.0109 2.04007,-8.85051 -0.96754,-1.16581 -3.85368,-1.48821 -13.36166,-1.49259 -14.0344,-0.006 -19.62756,-1.14809 -19.62756,-4.00624 0,-1.0548 0.87042,-2.38365 1.93426,-2.953 1.26951,-0.67942 21.85174,-1.03518 59.88921,-1.03518 55.83123,0 58.04147,0.0709 60.31575,1.93549 2.24682,1.84205 2.27665,2.02101 0.61789,3.70717 -1.46666,1.49089 -4.19755,1.85773 -17.2304,2.31452 -14.88149,0.52158 -15.58063,0.64064 -17.86737,3.04282 -2.40563,2.52707 -103.3941,189.26971 -104.36698,192.99 -0.45269,1.73109 -0.0391,2.01 2.98054,2.01 5.12501,0 19.19617,-2.82942 25.15066,-5.05729 2.9027,-1.08603 6.72136,-3.57231 8.73352,-5.68628 5.43966,-5.71486 29.84292,-36.92345 29.84292,-38.1652 0,-0.71173 -3.30387,-1.09123 -9.5,-1.09123 -8.78384,0 -9.5,-0.14845 -9.5,-1.96922 0,-1.8364 0.82548,-1.98816 12.2385,-2.25 l 12.2385,-0.28078 10.7615,-13.33556 c 5.91883,-7.33456 10.7615,-13.71855 10.7615,-14.18664 0,-0.4681 -1.4625,-0.99209 -3.25,-1.16444 -2.08295,-0.20084 -3.25,-0.852 -3.25,-1.81336 0,-1.11371 0.99147,-1.44034 3.84997,-1.26832 2.11749,0.12742 4.6901,-0.21794 5.71692,-0.76748 2.68323,-1.43602 24.08789,-27.99862 23.64314,-29.34048 -0.23451,-0.70751 -4.13884,-1.22927 -10.54124,-1.4087 -8.13465,-0.22798 -10.16879,-0.57804 -10.16879,-1.75 0,-1.20793 2.17617,-1.46502 12.40106,-1.46502 l 12.40105,0 5.28799,-6.25 c 2.90839,-3.4375 5.96392,-6.8125 6.79007,-7.5 2.34993,-1.95555 30.46547,-1.74338 32.11347,0.24234 0.99821,1.20277 -0.35043,13.21977 -6.95051,61.93227 -4.50398,33.24197 -8.04371,61.66253 -7.86609,63.1568 0.48996,4.12173 3.15681,5.30645 6.43521,2.85877 3.31446,-2.47461 46.51995,-82.00569 46.14399,-84.94018 -0.2256,-1.76081 -1.1233,-2.03514 -7.50624,-2.29381 -5.54633,-0.22477 -7.25,-0.636 -7.25,-1.75 0,-1.1676 1.79267,-1.45619 9.04545,-1.45619 11.0783,0 10.98117,0.0795 19.77245,-16.18998 7.06266,-13.07048 7.15281,-15.16209 0.70558,-16.37159 -4.74927,-0.89097 -6.58882,-3.18627 -4.0446,-5.04664 2.90714,-2.12576 56.74,-2.03791 58.51055,0.0955 1.76228,2.12341 0.60817,4.23349 -3.19592,5.84311 -1.81143,0.76648 -4.01927,2.2432 -4.90632,3.2816 -2.81282,3.2928 -34.20236,60.40618 -33.55504,61.05351 0.34074,0.34073 1.19289,0.17338 1.89368,-0.37189 35.57536,-27.68035 66.68987,-52.63154 67.15996,-53.85657 0.33782,-0.88035 0.61421,-3.1133 0.61421,-4.96213 0,-3.70294 -2.82556,-6.47492 -6.60006,-6.47492 -1.18528,0 -2.75566,-0.7237 -3.48975,-1.60821 -1.13401,-1.3664 -1.0485,-1.81748 0.56869,-3 1.58933,-1.16215 15.37604,-1.39179 83.55726,-1.39179 77.83496,0 81.73129,0.0855 83.30887,1.82874 0.91025,1.00581 1.64734,2.69331 1.638,3.75 -0.0238,2.69064 -22.2726,45.57056 -24.31252,46.85731 -1.11932,0.70605 -2.18767,0.72546 -3.23796,0.0588 -1.29516,-0.82205 -1.59918,-3.60078 -1.75,-15.99489 -0.16448,-13.51648 -0.41518,-15.47247 -2.5349,-19.77719 -1.2938,-2.62745 -3.95713,-6.00245 -5.9185,-7.5 -3.33308,-2.54487 -4.22024,-2.72281 -13.5754,-2.72281 l -10.00927,0 -14.82107,28.34736 c -8.15159,15.59105 -14.53646,28.80789 -14.18859,29.37075 0.38362,0.62071 3.68393,0.84674 8.38752,0.57446 10.17918,-0.58927 16.52249,-3.70172 25.08892,-12.3103 5.29663,-5.32271 6.77317,-6.32648 7.68681,-5.2256 0.88299,1.06393 -1.76569,6.52316 -12.08359,24.90573 -7.26795,12.94871 -13.84789,24.30345 -14.62208,25.23274 -2.21257,2.65585 -3.41576,0.43226 -2.17806,-4.02525 0.59099,-2.12844 1.07704,-6.45739 1.0801,-9.61989 0.008,-8.47557 -1.62449,-9.75 -12.49109,-9.75 l -8.49666,0 -14.50334,28.99333 c -7.97683,15.94638 -14.50333,29.65554 -14.50333,30.46486 0,2.55567 3.59076,3.54185 12.89616,3.54185 19.966,0 33.20204,-7.65665 54.44155,-31.49278 9.15925,-10.27902 12.15357,-12.44451 14.27465,-10.32343 1.60121,1.60121 2.15377,0.43642 -12.89545,27.18308 -7.29002,12.95641 -10.89998,18.38656 -13.13492,19.75777 -2.95521,1.8131 -5.90893,1.88028 -71.80458,1.63312 -68.44435,-0.25672 -68.73115,-0.26631 -70.83505,-2.37058 -1.67057,-1.67087 -3.54209,-8.74872 -8.94697,-33.83623 -6.42351,-29.8157 -7.37949,-33.50765 -8.40706,-32.46762 -0.22643,0.22917 -6.30143,10.98661 -13.5,23.90543 -10.87496,19.51658 -13.08833,24.18658 -13.08833,27.61514 0,5.01947 2.80461,8.97464 7.0205,9.9006 3.41748,0.75061 5.28708,3.37955 3.9465,5.54938 -0.75928,1.22894 -10.62327,1.52121 -65.68023,1.94612 l -64.78677,0.5 -12.14215,20.5 c -6.67818,11.275 -13.04656,21.625 -14.15196,23 l -2.00982,2.5 -84.34804,0.14006 c -46.39142,0.077 -85.69803,-0.15086 -87.34803,-0.50643 z M 71.42878,680.94729 c 22.58581,-3.93864 33.15051,-11.22364 58.00483,-39.99788 13.34236,-15.44667 14.34487,-16.42214 16.92474,-16.4682 3.11084,-0.0555 2.97456,2.64772 -0.44467,8.82004 -1.82698,3.29803 -3.01483,6.30337 -2.63967,6.67853 1.08073,1.08074 13.96963,-3.44734 17.55401,-6.16701 1.78808,-1.35671 3.90861,-3.73832 4.71228,-5.29246 1.61576,-3.12452 7.76473,-37.89287 6.93811,-39.23037 -0.28571,-0.46229 -9.60542,-0.83947 -20.71046,-0.83818 l -20.19098,0.002 -12.45093,16.24765 c -6.84801,8.93621 -13.05224,17.45263 -13.78719,18.92538 -2.5891,5.18829 1.49848,11.45916 9.20967,14.12885 4.78157,1.65542 6.45227,3.87536 4.59802,6.1096 -1.15251,1.38904 -5.53479,1.58417 -35.56957,1.58417 -27.17168,0 -34.48189,0.27325 -35.3518,1.32143 -1.4512,1.74859 -18.1482,31.75178 -18.1482,32.61089 0,0.36722 0.54,1.20768 1.2,1.86768 1.77389,1.77389 29.4409,1.56571 40.15181,-0.30212 z m 275.44673,-45.24788 c 2.92021,-2.52975 31.52632,-57.96104 30.83771,-59.75555 -0.43536,-1.13451 -2.32723,-1.49814 -7.85487,-1.50976 -4.00476,-0.008 -7.95638,-0.45842 -8.78138,-1 -2.8318,-1.85896 1.07309,-2.95335 10.59501,-2.96938 7.40684,-0.0125 9.37553,-0.34014 10.60627,-1.76531 1.88579,-2.18372 23.79872,-44.60544 23.79872,-46.07248 0,-0.59015 -2.35829,-1.20902 -5.24063,-1.37526 -4.05033,-0.23361 -5.3162,-0.69974 -5.57333,-2.05226 -0.28856,-1.51789 0.50966,-1.75 6.01813,-1.75 7.44009,0 10.32401,-1.57532 11.33833,-6.1935 1.14001,-5.19045 -1.81495,-6.80919 -12.40328,-6.79458 -7.88093,0.0109 -9.14285,0.29614 -14.37709,3.25 -5.50444,3.10635 -58.85798,43.96303 -62.04945,47.51578 -1.40522,1.56429 -0.90396,5.20859 5.46362,39.7223 6.36021,34.47379 7.23926,38.20879 9.473,40.25 2.95765,2.70272 5.43133,2.8545 8.14924,0.5 z m -170.83704,-55.5 c 0.50525,-1.2375 2.98764,-14.85 5.51643,-30.25 2.5288,-15.4 4.76352,-28.78705 4.96606,-29.749 1.00882,-4.79141 -2.62349,-0.87085 -18.54081,20.01215 -9.5317,12.50527 -20.38424,26.63054 -24.11677,31.38949 -3.73252,4.75895 -6.78641,9.14645 -6.78641,9.75 0,0.75802 5.88205,1.09736 19.02144,1.09736 18.78708,0 19.03276,-0.0277 19.94006,-2.25 z M 280.78081,472.03614 c -8.67553,-2.3533 -13.70384,-9.17369 -13.70384,-18.58786 0,-9.01174 6.05301,-17.77789 14.50443,-21.00574 17.67207,-6.74949 34.49557,0.69324 34.49557,15.26087 0,5.40168 -3.97651,13.70179 -8.32775,17.38237 -7.4876,6.33353 -18.64331,9.20861 -26.96841,6.95036 z m 12.14639,-9.95167 c 2.95425,-2.68378 7.76803,-12.08327 8.68126,-16.95124 0.49967,-2.66343 0.23699,-4.38822 -0.94242,-6.18823 -5.00753,-7.64245 -17.91776,3.59996 -19.27892,16.78834 -0.51599,4.99942 -0.3593,5.53224 2.22451,7.56467 3.13752,2.46797 5.61887,2.14473 9.31557,-1.21354 z m 224.06334,9.36941 c -10.93617,-3.1459 -15.75843,-16.76799 -9.6349,-27.21701 7.73124,-13.19237 24.83499,-18.76437 39.72133,-12.94027 3.025,1.18349 6.48594,2.15203 7.69098,2.15231 3.21175,7.3e-4 3.70326,1.64069 1.58088,5.27471 -2.19428,3.75712 -4.84221,4.65487 -5.70564,1.93442 -1.89211,-5.9615 -15.48274,-5.30173 -22.43449,1.0891 -5.62737,5.1733 -8.15923,17.55743 -4.30299,21.04728 2.65036,2.39854 6.86547,2.05169 9.71671,-0.79956 2.86786,-2.86785 3.31117,-7.96668 0.81415,-9.36408 -3.57317,-1.99965 -0.14439,-3.18137 9.2308,-3.18137 7.51662,0 9.59176,0.31112 10.05061,1.50688 0.75392,1.96466 -5.24457,16.82437 -7.68201,19.03022 -1.7805,1.61133 -2.08093,1.58851 -5.47856,-0.41614 -4.39141,-2.591 -5.09228,-2.60714 -10.60332,-0.24423 -5.57981,2.3924 -9.69531,3.06789 -12.96355,2.12774 z m -305.2469,-0.67114 c -1.38326,-1.38326 -0.58068,-3.41539 1.77233,-4.48749 1.66427,-0.75829 4.71499,-5.3625 9.60427,-14.49495 7.08961,-13.24232 7.14722,-13.41122 5.45553,-15.99307 -2.47154,-3.77204 -0.92023,-4.32457 12.19218,-4.34251 11.87988,-0.0163 14.34757,0.91556 10.55582,3.98593 -2.22996,1.80571 -15.2468,26.97786 -15.2468,29.48448 0,3.37499 12.07705,0.39434 18.13826,-4.47658 2.12396,-1.70686 3.86174,-2.55908 3.86174,-1.89381 0,1.89684 -6.04818,10.84009 -8.05864,11.91606 -2.01339,1.07753 -37.22136,1.35528 -38.27469,0.30194 z m 119.33333,-1.85649 c -4.18108,-2.00389 -6.39926,-2.49419 -9.25,-2.04461 -4.56596,0.72009 -4.89628,-0.85017 -1.45649,-6.92375 2.71115,-4.78704 5.31913,-5.65752 6.6289,-2.21257 1.51202,3.97693 5.81994,6.70409 10.59,6.70409 7.93485,0 8.69137,-5.83109 1.29579,-9.98764 -2.34027,-1.31531 -5.27951,-3.49688 -6.53162,-4.84794 -4.60819,-4.97231 -1.97814,-15.19891 4.81182,-18.71013 4.50778,-2.33107 15.12948,-2.23766 21.4116,0.18828 2.75,1.06195 5.66884,1.91431 6.4863,1.89413 2.17304,-0.0537 2.43424,3.17253 0.49632,6.13017 l -1.68297,2.56854 -3.48546,-3.58846 c -4.10667,-4.22802 -9.62178,-5.76793 -12.03057,-3.35915 -2.70775,2.70776 -0.79825,6.40783 5.32995,10.328 6.59332,4.21769 8.80861,8.28032 7.36066,13.4987 -1.98763,7.16334 -8.5935,11.68087 -18.25242,12.48219 -5.31164,0.44066 -7.02639,0.13055 -11.72181,-2.11985 z m 46.27814,1.4013 c -1.57283,-1.57283 -0.44661,-3.87814 1.89459,-3.87814 2.80877,0 5.78801,-1.72097 10.07727,-5.82118 4.19982,-4.01471 4.62071,-5.17882 1.87244,-5.17882 -2.2521,0 -4.55303,-2.49428 -3.64951,-3.9562 0.35481,-0.57409 3.72419,-1.0438 7.48753,-1.0438 l 6.84242,0 11.31684,-9.42515 c 16.02018,-13.3423 17.62401,-13.39926 21.37948,-0.75933 7.94633,26.74528 8.16833,26.87075 17.14275,9.68841 5.88598,-11.26925 6.17501,-12.13435 4.77027,-14.27825 -0.82244,-1.25519 -1.22508,-2.71946 -0.89476,-3.25393 0.33031,-0.53446 4.64447,-0.97175 9.58701,-0.97175 10.43251,0 10.12197,-0.20468 18.65474,12.29547 2.89257,4.23749 5.59585,7.70453 6.00729,7.70453 1.33185,0 6.2335,-9.00937 6.2335,-11.45735 0,-1.43635 -1.08744,-3.17316 -2.75,-4.39215 -4.25913,-3.12282 -1.96965,-4.28592 7.76249,-3.94348 9.32453,0.3281 10.82762,1.50003 5.77963,4.50632 -2.47284,1.47268 -5.37581,5.67185 -11.66508,16.87363 -4.60513,8.20217 -9.06237,15.70053 -9.90499,16.66303 -1.57074,1.79422 -5.79352,2.30981 -7.90761,0.9655 -0.65205,-0.41463 -4.1758,-6.48274 -7.83055,-13.48469 -3.65475,-7.00194 -7.02231,-12.73081 -7.48346,-12.73081 -1.20013,0 -10.00043,16.4395 -10.00043,18.68142 0,1.03046 0.70107,2.87448 1.55793,4.09783 0.85687,1.22334 1.28031,2.67347 0.94099,3.2225 -0.37455,0.60604 -7.87474,0.99825 -19.08932,0.99825 -15.81163,0 -18.55858,-0.22466 -19.07088,-1.5597 -0.35794,-0.93277 0.45859,-2.66307 2.03138,-4.30472 3.25599,-3.39851 3.28281,-4.57358 0.17535,-7.68103 -2.13248,-2.13248 -3.36129,-2.45455 -9.36514,-2.45455 -5.48238,0 -7.45644,0.42937 -9.55177,2.07755 -4.56652,3.59202 -5.01367,5.4844 -1.96411,8.31211 2.26526,2.10047 2.48094,2.73025 1.3866,4.04885 -1.01124,1.21848 -3.42179,1.56149 -10.97347,1.56149 -5.81915,0 -10.12484,-0.44728 -10.79942,-1.12186 z m 44.11487,-21.45993 c 0.90417,-2.35622 0.73344,-7.22203 -0.27528,-7.84545 -1.15887,-0.71622 -11.2078,7.47248 -10.52526,8.57686 0.28906,0.46771 2.70086,0.85038 5.35956,0.85038 3.48548,0 5.00332,-0.44126 5.44098,-1.58179 z m 132.27366,21.91512 c -1.33758,-1.33757 -0.59406,-2.33683 2.79122,-3.75129 2.99313,-1.25061 4.30325,-3.10054 9.74732,-13.76342 6.94184,-13.59645 7.49647,-15.26822 5.75968,-17.36093 -0.65375,-0.78772 -0.92742,-2.11295 -0.60815,-2.94496 0.49364,-1.28641 3.84796,-1.51273 22.42075,-1.51273 25.63897,0 26.37515,0.20947 24.36111,6.93173 -0.68781,2.2957 -1.90365,4.42462 -2.70186,4.73092 -0.83247,0.31945 -3.14305,-0.97148 -5.41881,-3.02749 -4.45563,-4.02539 -6.97309,-4.91841 -12.55813,-4.45475 -3.47816,0.28876 -4.16802,0.85022 -7.15054,5.81959 -1.81554,3.025 -3.30285,6.0625 -3.30512,6.75 -0.006,1.76898 7.41318,1.60267 10.98877,-0.24633 3.93131,-2.03296 4.55297,-0.49976 1.91058,4.71203 -2.72039,5.36562 -3.81816,6.07023 -6.60863,4.24184 -1.22347,-0.80164 -3.84079,-1.45754 -5.81627,-1.45754 -3.37024,0 -3.73558,0.32383 -5.9231,5.25 -1.28223,2.8875 -2.1302,5.5875 -1.88439,6 0.68832,1.15507 10.61831,0.88799 14.42968,-0.3881 1.86957,-0.62596 4.8317,-2.20096 6.5825,-3.5 3.03498,-2.25187 5.31672,-3.02096 5.31672,-1.79208 0,1.34875 -6.07476,9.24489 -7.54705,9.80986 -2.18454,0.83829 -43.94487,0.79507 -44.78628,-0.0464 z m 61,0 c -1.40798,-1.40798 -0.55754,-3.3395 2.08333,-4.73163 1.97277,-1.03994 4.68352,-5.15557 9.59122,-14.56198 6.74252,-12.92315 6.81674,-13.14969 5.14453,-15.70182 -2.45729,-3.7503 -0.89198,-4.30467 12.20523,-4.32259 11.87988,-0.0163 14.34757,0.91556 10.55582,3.98593 -2.22996,1.80571 -15.2468,26.97786 -15.2468,29.48448 0,3.48074 13.06288,0.14563 17.47748,-4.46221 2.5695,-2.68199 5.52252,-4.00202 5.52252,-2.46864 0,1.39481 -8.08237,12.26276 -9.53392,12.81977 -2.19203,0.84117 -36.95493,0.80317 -37.79941,-0.0413 z m 51.79221,-0.39986 c -0.81647,-1.32108 -0.45141,-1.69194 3.712,-3.77102 2.7176,-1.35708 4.56902,-4.0365 10.07912,-14.58678 3.7125,-7.10839 6.75,-13.50505 6.75,-14.21482 0,-0.70977 -0.92905,-1.7877 -2.06457,-2.39541 -1.65126,-0.88373 -1.82694,-1.39124 -0.87755,-2.53518 0.96186,-1.15898 5.25424,-1.43026 22.63031,-1.43026 22.31044,0 25.31181,0.48982 25.31181,4.13089 0,2.47711 -3.03099,7.86911 -4.42344,7.86911 -0.54573,0 -2.71664,-1.68383 -4.82424,-3.74185 -3.59103,-3.50655 -4.22254,-3.74237 -10.04216,-3.75 l -6.21016,-0.008 -3.17144,5.97261 c -1.74429,3.28493 -2.95523,6.32243 -2.69098,6.75 0.73153,1.18364 7.93969,0.92712 10.81959,-0.38505 3.56952,-1.62638 3.88136,-0.79313 1.65072,4.41074 -2.40442,5.60928 -3.54004,6.35379 -6.61668,4.3379 -1.33147,-0.87241 -4.0041,-1.5862 -5.93918,-1.5862 -3.22101,0 -3.73407,0.42572 -6.07103,5.03749 -1.40398,2.77062 -2.285,5.47062 -1.95783,6 0.81998,1.32675 10.43645,1.21092 14.57761,-0.17559 1.86957,-0.62596 4.8317,-2.20096 6.5825,-3.5 5.47835,-4.06477 6.99763,-2.63099 3.16166,2.98373 -1.18529,1.7349 -2.84629,3.71687 -3.69113,4.40437 -2.00864,1.63456 -45.69203,1.8062 -46.69493,0.18347 z m 72.04112,-1.55681 c -3.95539,-2.03457 -5.88792,-2.45104 -9.25,-1.99341 -5.00969,0.68189 -5.12112,0.26934 -1.73315,-6.41649 2.59639,-5.12373 4.91153,-6.34313 5.93295,-3.12493 1.53545,4.83779 9.03382,8.25754 14.88561,6.78883 5.64359,-1.41644 4.04991,-6.20758 -3.41656,-10.27135 -7.9494,-4.3266 -9.8637,-10.12661 -5.75507,-17.43693 1.25491,-2.23281 3.63599,-4.54854 5.6687,-5.51313 4.62987,-2.19701 14.52295,-2.20515 19.65162,-0.0161 2.19125,0.93526 5.24683,1.8475 6.79017,2.02719 3.86622,0.45015 4.05585,0.85386 2.33534,4.97162 -1.70852,4.08905 -3.04255,4.53617 -4.63825,1.55458 -2.78571,-5.20514 -11.94075,-7.74071 -14.00725,-3.87943 -1.46776,2.74253 0.54724,5.81264 6.50556,9.91207 2.47519,1.70298 4.95709,3.94976 5.51534,4.99285 3.84415,7.18287 -2.80612,17.80779 -12.5624,20.07055 -6.43284,1.49195 -10.63904,1.05189 -15.92261,-1.66587 z m -431.99789,-51.7331 c -1.28018,-1.95379 -10.52792,-27.08763 -20.78658,-56.49446 l -2.21553,-6.35091 -4.71298,0.54941 c -6.73009,0.78454 -28.04599,8.10049 -36.28702,12.45426 -7.92566,4.18717 -7.78043,3.72924 -4.97869,15.69814 3.06595,13.0976 -1.14269,29.5 -7.56931,29.5 -2.59706,0 -3.1477,-2.72426 -1.27607,-6.31335 2.09439,-4.01626 2.90971,-16.8344 1.42109,-22.34199 -0.61772,-2.28543 -1.91874,-5.13787 -2.89116,-6.33876 l -1.76802,-2.18342 -12.46892,8.23247 c -6.85791,4.52785 -18.09392,12.38098 -24.96892,17.4514 -13.89935,10.25097 -15.9465,11.49365 -18.93426,11.49365 -1.51921,0 -2.06574,-0.64097 -2.06574,-2.42268 0,-1.69123 1.58505,-3.76527 5.25,-6.86961 7.38375,-6.2543 27.65852,-21.09318 38.54097,-28.20771 5.04771,-3.3 9.18471,-6.63964 9.19334,-7.42142 0.022,-1.9954 -8.17842,-9.6268 -12.97308,-12.07285 l -4.00439,-2.04289 -4.75342,2.4249 c -13.12189,6.69397 -34.10741,25.71259 -50.62004,45.8756 -9.87309,12.05569 -12.03722,13.76139 -14.42739,11.37122 -1.28467,-1.28467 -1.35006,-2.02294 -0.36974,-4.17452 4.88565,-10.72282 33.0651,-40.2784 51.16375,-53.6623 54.40153,-40.22978 112.92477,-58.34546 174,-53.86114 54.52529,4.0034 99.6238,20.00141 138.09077,48.98557 16.60989,12.51526 40.84137,35.69931 53.20436,50.90456 2.91488,3.58501 3.54925,7.63527 1.32929,8.48715 -1.9708,0.75627 -6.29566,-1.73315 -11.56055,-6.65433 C 520.53658,385.71925 472.95312,362.23909 435.34833,351.89232 407.804,344.31363 369.984,340.09805 347.07697,342.05321 l -10.5,0.8962 -0.30417,4.73472 c -0.40319,6.27621 1.77807,10.6268 8.33048,16.61533 5.35087,4.89039 27.85966,18.86231 58.97369,36.60683 9.35,5.33236 18.0125,10.63942 19.25,11.79347 2.53881,2.36761 2.94586,5.26865 0.85201,6.07213 -1.33608,0.51271 -72.81643,-40.29439 -80.4359,-45.91969 -10.67924,-7.88426 -14.71602,-13.72188 -15.78636,-22.82878 -0.76625,-6.51964 -0.34564,-6.39824 -13.99876,-4.0401 -11.62502,2.00785 -20.15278,4.41358 -20.66648,5.83012 -0.46894,1.2931 4.5649,18.49824 13.42699,45.89214 3.33726,10.31589 5.80979,19.42839 5.49451,20.25 -0.85578,2.23012 -3.38603,1.80499 -5.1339,-0.86261 z M 503.7592,368.40612 c -0.78715,-1.12381 -4.25747,-4.49086 -7.71182,-7.48234 -28.00566,-24.25292 -74.25855,-43.13425 -119.81215,-48.90965 -17.76896,-2.2528 -17.45709,-2.29532 -23.35964,3.18528 -5.33468,4.95332 -13.11884,15.92286 -12.27174,17.29348 0.26908,0.4354 10.32641,0.82015 22.34961,0.85501 12.0232,0.0349 26.30707,0.5461 31.74194,1.13609 32.34436,3.51121 70.59874,15.59965 101.86378,32.18911 8.08977,4.2925 9.17585,4.55391 7.20002,1.73302 z m -263.4497,-9.31124 c 5.31786,-2.395 16.21008,-6.55496 24.20494,-9.24437 7.99485,-2.6894 14.71909,-5.36671 14.94276,-5.94957 0.22366,-0.58286 -1.45907,-5.9854 -3.73941,-12.00564 -5.10866,-13.48717 -4.95515,-13.43774 -21.38013,-6.88414 -17.50012,6.98257 -41.66906,19.46453 -42.65619,22.02963 -0.23099,0.60026 2.15119,2.96376 5.29374,5.25222 3.14256,2.28847 7.23932,5.73485 9.10392,7.65863 1.86459,1.92377 3.65373,3.49777 3.97585,3.49777 0.32212,0 4.93666,-1.95954 10.25452,-4.35453 z m 63.76747,-20.21899 c 6.325,-1.32455 14.26634,-2.69478 17.64742,-3.04496 3.38108,-0.35018 6.53992,-0.91678 7.01964,-1.25911 0.47971,-0.34232 3.05392,-4.44741 5.72045,-9.12241 2.66653,-4.675 5.6952,-9.429 6.73037,-10.56445 2.99088,-3.28062 2.26815,-4.19518 -3.86788,-4.89451 -10.83492,-1.23486 -51.34981,3.43048 -56.28638,6.48145 -1.18913,0.73492 -0.87676,2.56143 1.91166,11.17799 3.96817,12.26212 5.61159,15.21755 7.94916,14.29531 0.92156,-0.36358 6.85056,-1.74477 13.17556,-3.06931 z"
         id="path4178"
         inkscape:connector-curvature="0" />
      <path
         style="fill:#000000;fill-opacity:1"
         d="m 325.57697,842.81892 c -55.57687,-4.634 -102.2595,-23.05785 -144.5,-57.02865 -26.87561,-21.61399 -59.65244,-60.26195 -61.67439,-72.72178 -1.05007,-6.47085 2.11044,-4.21486 9.98997,7.13092 29.93495,43.10344 72.95682,77.59553 120.68058,96.75368 13.86435,5.56569 34.1883,11.63045 35.3249,10.54112 0.45158,-0.43281 -2.50211,-5.23244 -6.56375,-10.66586 -23.55792,-31.51434 -38.78255,-55.6543 -52.27022,-82.87894 -11.88895,-23.99763 -18.7564,-40.703 -23.97262,-58.31439 -3.61376,-12.20106 -4.11612,-17.16985 -1.81237,-17.92586 2.28042,-0.74835 4.74991,3.76885 7.04192,12.88111 4.42165,17.57903 19.79018,54.27837 31.9768,76.35914 15.28087,27.68719 44.78982,68.69421 58.06028,80.68328 4.6411,4.19295 7.22775,4.65499 32.2189,5.75515 24.82227,1.09273 48.61154,-0.27611 65.5,-3.76889 15.39633,-3.18419 32.96021,-8.32314 35.97087,-10.52458 2.25191,-1.64663 4.99824,8.01345 -21.78992,-76.64496 -22.53868,-71.22882 -24.75468,-78.64428 -24.05027,-80.47994 0.97286,-2.53524 3.31372,-1.70997 4.90691,1.72994 0.82787,1.7875 9.35516,28 18.94952,58.25 26.12246,82.36135 29.72226,92.94634 31.73607,93.31816 3.69795,0.68277 28.40556,-11.91281 45.17335,-23.02872 14.24756,-9.44517 23.36715,-16.63125 33.99747,-26.78944 17.74846,-16.9602 28.03775,-29.89132 44.94706,-56.48746 3.2743,-5.15006 6.65894,-7.12613 6.65894,-3.88773 0,4.38702 -15.81049,29.2517 -27.73505,43.61808 -42.0369,50.64489 -102.14008,83.50204 -168.76495,92.26025 -12.02657,1.58096 -40.62161,2.64833 -50,1.86637 z m -212.5,-183.86951 c 2.98742,-3.025 5.65668,-5.5 5.93168,-5.5 0.275,0 -1.94426,2.475 -4.93168,5.5 -2.98742,3.025 -5.65668,5.5 -5.93168,5.5 -0.275,0 1.94426,-2.475 4.93168,-5.5 z m 444.29159,-2.2425 c 3.73537,-0.19293 9.58537,-0.19149 13,0.003 3.41462,0.19468 0.35841,0.35253 -6.79159,0.35078 -7.15,-0.002 -9.94379,-0.16103 -6.20841,-0.35396 z m -432.79159,-10.2575 c 0.99549,-1.1 2.03498,-2 2.30998,-2 0.275,0 -0.31449,0.9 -1.30998,2 -0.99549,1.1 -2.03498,2 -2.30998,2 -0.275,0 0.31449,-0.9 1.30998,-2 z m 315.3125,-1.68311 c 0.72187,-0.28887 1.58438,-0.25335 1.91667,0.0789 0.33229,0.33229 -0.25834,0.56864 -1.3125,0.52522 -1.16495,-0.048 -1.4019,-0.28494 -0.60417,-0.60416 z m 88,0 c 0.72187,-0.28887 1.58438,-0.25335 1.91667,0.0789 0.33229,0.33229 -0.25834,0.56864 -1.3125,0.52522 -1.16495,-0.048 -1.4019,-0.28494 -0.60417,-0.60416 z m -226.40751,-2.56689 -1.90499,-2.25 2.25,1.90499 c 2.11444,1.79022 2.70524,2.59501 1.90499,2.59501 -0.18976,0 -1.20226,-1.0125 -2.25,-2.25 z m 276.67396,0.66667 c 0.048,-1.16495 0.28494,-1.4019 0.60416,-0.60417 0.28887,0.72187 0.25335,1.58438 -0.0789,1.91667 -0.33229,0.33229 -0.56864,-0.25834 -0.52522,-1.3125 z m -131.57895,-1.41667 c 0.99549,-1.1 2.03498,-2 2.30998,-2 0.275,0 -0.31449,0.9 -1.30998,2 -0.99549,1.1 -2.03498,2 -2.30998,2 -0.275,0 0.31449,-0.9 1.30998,-2 z m -316,-2 c 0.99549,-1.1 2.03498,-2 2.30998,-2 0.275,0 -0.31449,0.9 -1.30998,2 -0.99549,1.1 -2.03498,2 -2.30998,2 -0.275,0 0.31449,-0.9 1.30998,-2 z m 11.5,-0.44098 c 0,-0.79254 0.40803,-1.69316 0.90674,-2.00138 0.49871,-0.30822 0.67122,0.34022 0.38337,1.44098 -0.61061,2.33499 -1.29011,2.63015 -1.29011,0.5604 z m 254.75,-0.28242 c 1.7875,-0.22182 4.7125,-0.22182 6.5,0 1.7875,0.22183 0.325,0.40333 -3.25,0.40333 -3.575,0 -5.0375,-0.1815 -3.25,-0.40333 z m 73,-0.93888 c 0.6875,-0.27741 1.8125,-0.27741 2.5,0 0.6875,0.27741 0.125,0.50439 -1.25,0.50439 -1.375,0 -1.9375,-0.22698 -1.25,-0.50439 z m -209.87756,-2.08772 c -1.24387,-1.58606 -1.2085,-1.62143 0.37756,-0.37756 1.66575,1.30637 2.19548,2.12756 1.37244,2.12756 -0.20765,0 -0.99515,-0.7875 -1.75,-1.75 z m -152.94813,-2 -2.42431,-2.75 2.75,2.42431 c 2.57029,2.26589 3.20859,3.07569 2.42431,3.07569 -0.17912,0 -1.41662,-1.2375 -2.75,-2.75 z m 229.94813,1 c -1.24387,-1.58606 -1.2085,-1.62143 0.37756,-0.37756 0.9625,0.75485 1.75,1.54235 1.75,1.75 0,0.82304 -0.82119,0.29331 -2.12756,-1.37244 z m 240.28545,-0.25 c 0,-1.375 0.22698,-1.9375 0.50439,-1.25 0.27741,0.6875 0.27741,1.8125 0,2.5 -0.27741,0.6875 -0.50439,0.125 -0.50439,-1.25 z m -440.65789,-2 c 0.99549,-1.1 2.03498,-2 2.30998,-2 0.275,0 -0.31449,0.9 -1.30998,2 -0.99549,1.1 -2.03498,2 -2.30998,2 -0.275,0 0.31449,-0.9 1.30998,-2 z m 386.69495,-0.5 c 0.0204,-1.65 0.2445,-2.20394 0.49804,-1.23097 0.25354,0.97297 0.23687,2.32297 -0.0371,3 -0.27393,0.67703 -0.48137,-0.11903 -0.46099,-1.76903 z m -375.46374,-5.41984 c -0.43497,-1.66335 -0.30483,-2.05378 0.43724,-1.31171 0.5811,0.5811 0.85979,1.64682 0.61931,2.36826 -0.24965,0.74895 -0.70294,0.29565 -1.05655,-1.05655 z m -57.73121,0.54228 c 0,-0.20765 0.7875,-0.99515 1.75,-1.75 1.58606,-1.24387 1.62143,-1.2085 0.37756,0.37756 -1.30637,1.66575 -2.12756,2.19548 -2.12756,1.37244 z m 346,0 c 0,-0.20765 0.7875,-0.99515 1.75,-1.75 1.58606,-1.24387 1.62143,-1.2085 0.37756,0.37756 -1.30637,1.66575 -2.12756,2.19548 -2.12756,1.37244 z m 139.56429,-2.32931 c -0.54268,-1.4252 -0.42782,-1.54006 0.5598,-0.5598 0.68342,0.67834 0.99067,1.48524 0.68278,1.79313 -0.30789,0.30789 -0.86705,-0.24711 -1.24258,-1.23333 z m -408.48534,-0.87646 c 0.048,-1.16495 0.28494,-1.4019 0.60416,-0.60417 0.28887,0.72187 0.25335,1.58438 -0.0789,1.91667 -0.33229,0.33229 -0.56864,-0.25834 -0.52522,-1.3125 z m 381.58772,-1.08334 c -0.36667,-0.36666 -0.65978,-1.15416 -0.65136,-1.75 0.009,-0.66988 0.30942,-0.62053 0.78594,0.12932 0.49987,0.78659 4.44714,1.32735 11.23469,1.53911 l 10.46406,0.32645 -10.58333,0.21089 c -5.82084,0.116 -10.88334,-0.0891 -11.25,-0.45577 z m 23.14583,-0.0164 c 0.72187,-0.28887 1.58438,-0.25335 1.91667,0.0789 0.33229,0.33229 -0.25834,0.56864 -1.3125,0.52522 -1.16495,-0.048 -1.4019,-0.28494 -0.60417,-0.60416 z m -364.73355,-3.90022 c 0.048,-1.16495 0.28494,-1.4019 0.60416,-0.60417 0.28887,0.72187 0.25335,1.58438 -0.0789,1.91667 -0.33229,0.33229 -0.56864,-0.25834 -0.52522,-1.3125 z m 126,0 c 0.048,-1.16495 0.28494,-1.4019 0.60416,-0.60417 0.28887,0.72187 0.25335,1.58438 -0.0789,1.91667 -0.33229,0.33229 -0.56864,-0.25834 -0.52522,-1.3125 z m 112.42105,-0.41671 c 0.99549,-1.1 2.03498,-2 2.30998,-2 0.275,0 -0.31449,0.9 -1.30998,2 -0.99549,1.1 -2.03498,2 -2.30998,2 -0.275,0 0.31449,-0.9 1.30998,-2 z m -277.42105,-0.58333 c 0.048,-1.16495 0.28494,-1.4019 0.60416,-0.60417 0.28887,0.72187 0.25335,1.58438 -0.0789,1.91667 -0.33229,0.33229 -0.56864,-0.25834 -0.52522,-1.3125 z m -70.07895,-0.79423 c 0,-0.20765 0.7875,-0.99515 1.75,-1.75 1.58606,-1.24387 1.62143,-1.2085 0.37756,0.37756 -1.30637,1.66575 -2.12756,2.19548 -2.12756,1.37244 z m 477.07895,-1.20577 c 0.048,-1.16495 0.28494,-1.4019 0.60416,-0.60417 0.28887,0.72187 0.25335,1.58438 -0.0789,1.91667 -0.33229,0.33229 -0.56864,-0.25834 -0.52522,-1.3125 z m -281,-1 c 0.048,-1.16495 0.28494,-1.4019 0.60416,-0.60417 0.28887,0.72187 0.25335,1.58438 -0.0789,1.91667 -0.33229,0.33229 -0.56864,-0.25834 -0.52522,-1.3125 z m 154.92105,0.20577 c 0,-0.20765 0.7875,-0.99515 1.75,-1.75 1.58606,-1.24387 1.62143,-1.2085 0.37756,0.37756 -1.30637,1.66575 -2.12756,2.19548 -2.12756,1.37244 z m -279.92105,-3.20577 c 0.048,-1.16495 0.28494,-1.4019 0.60416,-0.60417 0.28887,0.72187 0.25335,1.58438 -0.0789,1.91667 -0.33229,0.33229 -0.56864,-0.25834 -0.52522,-1.3125 z m 405,-4 c 0.048,-1.16495 0.28494,-1.4019 0.60416,-0.60417 0.28887,0.72187 0.25335,1.58438 -0.0789,1.91667 -0.33229,0.33229 -0.56864,-0.25834 -0.52522,-1.3125 z m -469.07895,0.20577 c 0,-0.20765 0.7875,-0.99515 1.75,-1.75 1.58606,-1.24387 1.62143,-1.2085 0.37756,0.37756 -1.30637,1.66575 -2.12756,2.19548 -2.12756,1.37244 z m 352.5,-2.62244 c 0.99549,-1.1 2.03498,-2 2.30998,-2 0.275,0 -0.31449,0.9 -1.30998,2 -0.99549,1.1 -2.03498,2 -2.30998,2 -0.275,0 0.31449,-0.9 1.30998,-2 z m -127.42105,-2.58333 c 0.048,-1.16495 0.28494,-1.4019 0.60416,-0.60417 0.28887,0.72187 0.25335,1.58438 -0.0789,1.91667 -0.33229,0.33229 -0.56864,-0.25834 -0.52522,-1.3125 z m -221.07895,0.20577 c 0,-0.20765 0.7875,-0.99515 1.75,-1.75 1.58606,-1.24387 1.62143,-1.2085 0.37756,0.37756 -1.30637,1.66575 -2.12756,2.19548 -2.12756,1.37244 z m 464.15789,-1.62244 c 0,-1.375 0.22698,-1.9375 0.50439,-1.25 0.27741,0.6875 0.27741,1.8125 0,2.5 -0.27741,0.6875 -0.50439,0.125 -0.50439,-1.25 z m -282.07894,-0.58333 c 0.048,-1.16495 0.28494,-1.4019 0.60416,-0.60417 0.28887,0.72187 0.25335,1.58438 -0.0789,1.91667 -0.33229,0.33229 -0.56864,-0.25834 -0.52522,-1.3125 z m -120,-1 c 0.048,-1.16495 0.28494,-1.4019 0.60416,-0.60417 0.28887,0.72187 0.25335,1.58438 -0.0789,1.91667 -0.33229,0.33229 -0.56864,-0.25834 -0.52522,-1.3125 z m -58.07895,-1.79423 c 0,-0.20765 0.7875,-0.99515 1.75,-1.75 1.58606,-1.24387 1.62143,-1.2085 0.37756,0.37756 -1.30637,1.66575 -2.12756,2.19548 -2.12756,1.37244 z m 59.07895,-4.20577 c 0.048,-1.16495 0.28494,-1.4019 0.60416,-0.60417 0.28887,0.72187 0.25335,1.58438 -0.0789,1.91667 -0.33229,0.33229 -0.56864,-0.25834 -0.52522,-1.3125 z m 156,-2 c 0.048,-1.16495 0.28494,-1.4019 0.60416,-0.60417 0.28887,0.72187 0.25335,1.58438 -0.0789,1.91667 -0.33229,0.33229 -0.56864,-0.25834 -0.52522,-1.3125 z m -117,-2 c 0.048,-1.16495 0.28494,-1.4019 0.60416,-0.60417 0.28887,0.72187 0.25335,1.58438 -0.0789,1.91667 -0.33229,0.33229 -0.56864,-0.25834 -0.52522,-1.3125 z m 228.20706,-4.91667 c 0.008,-2.75 0.20172,-3.75631 0.43157,-2.23625 0.22986,1.52006 0.22371,3.77006 -0.0136,5 -0.23736,1.22994 -0.42542,-0.0137 -0.41792,-2.76375 z m -295.08659,2.75617 c 4.78468,-0.18291 12.88468,-0.18377 18,-0.002 5.11532,0.18186 1.20058,0.33151 -8.69942,0.33256 -9.9,10e-4 -14.08526,-0.14774 -9.30058,-0.33065 z m 182.87953,-0.8395 c 0.048,-1.16495 0.28494,-1.4019 0.60416,-0.60417 0.28887,0.72187 0.25335,1.58438 -0.0789,1.91667 -0.33229,0.33229 -0.56864,-0.25834 -0.52522,-1.3125 z m 164.46376,0.65243 c -0.31644,-0.512 -0.0485,-1.25653 0.59549,-1.65451 0.70505,-0.43575 0.9037,-0.2914 0.49935,0.36284 -0.40499,0.65529 0.42662,1.25243 2.0955,1.50468 l 2.76695,0.41823 -2.69098,0.14983 c -1.48004,0.0824 -2.94988,-0.26908 -3.26631,-0.78107 z m -335.54271,-4.8078 c 15.94074,-0.24705 18.67292,-0.5189 19.75,-1.96514 0.6875,-0.92313 1.25,-1.23241 1.25,-0.68729 0,2.99052 -2.63285,3.38829 -20.95,3.16514 l -18.55,-0.226 18.5,-0.28671 z m 281.56429,-4.96817 c -0.54268,-1.4252 -0.42782,-1.54006 0.5598,-0.5598 0.68342,0.67834 0.99067,1.48524 0.68278,1.79313 -0.30789,0.30789 -0.86705,-0.24711 -1.24258,-1.23333 z m -307.56429,-0.67069 c 0,-0.20765 0.7875,-0.99515 1.75,-1.75 1.58606,-1.24387 1.62143,-1.2085 0.37756,0.37756 -1.30637,1.66575 -2.12756,2.19548 -2.12756,1.37244 z m 247.56429,-1.32931 c -0.54268,-1.4252 -0.42782,-1.54006 0.5598,-0.5598 0.68342,0.67834 0.99067,1.48524 0.68278,1.79313 -0.30789,0.30789 -0.86705,-0.24711 -1.24258,-1.23333 z m -200.48534,-0.87646 c 0.048,-1.16495 0.28494,-1.4019 0.60416,-0.60417 0.28887,0.72187 0.25335,1.58438 -0.0789,1.91667 -0.33229,0.33229 -0.56864,-0.25834 -0.52522,-1.3125 z m 36,0 c 0.048,-1.16495 0.28494,-1.4019 0.60416,-0.60417 0.28887,0.72187 0.25335,1.58438 -0.0789,1.91667 -0.33229,0.33229 -0.56864,-0.25834 -0.52522,-1.3125 z m 71.93636,0.95577 c 0.0302,-1.72019 1.72893,-3.59529 2.34868,-2.59251 0.33769,0.5464 -0.0561,1.54954 -0.875,2.22921 -0.81894,0.67966 -1.4821,0.84315 -1.47368,0.3633 z m 137.23469,-1.10091 c 2.0625,-0.21574 5.4375,-0.21574 7.5,0 2.0625,0.21575 0.375,0.39226 -3.75,0.39226 -4.125,0 -5.8125,-0.17651 -3.75,-0.39226 z m -57,-1 c 2.0625,-0.21574 5.4375,-0.21574 7.5,0 2.0625,0.21575 0.375,0.39226 -3.75,0.39226 -4.125,0 -5.8125,-0.17651 -3.75,-0.39226 z M 555.346,572.75642 c 0.97297,-0.25354 2.32297,-0.23687 3,0.0371 0.67703,0.27393 -0.11903,0.48137 -1.76903,0.46099 -1.65,-0.0204 -2.20394,-0.2445 -1.23097,-0.49804 z m -421.26903,-0.68457 c 0,-0.20765 0.7875,-0.99515 1.75,-1.75 1.58606,-1.24387 1.62143,-1.2085 0.37756,0.37756 -1.30637,1.66575 -2.12756,2.19548 -2.12756,1.37244 z m 232.28017,-1.35871 c 2.6291,-0.20668 6.6791,-0.20418 9,0.006 2.32091,0.20972 0.16983,0.37882 -4.78017,0.37577 -4.95,-0.003 -6.84892,-0.17464 -4.21983,-0.38131 z m -188.20122,-1.84706 c 0.048,-1.16495 0.28494,-1.4019 0.60416,-0.60417 0.28887,0.72187 0.25335,1.58438 -0.0789,1.91667 -0.33229,0.33229 -0.56864,-0.25834 -0.52522,-1.3125 z m 114.92105,1.20577 c 0,-0.20765 0.7875,-0.99515 1.75,-1.75 1.58606,-1.24387 1.62143,-1.2085 0.37756,0.37756 -1.30637,1.66575 -2.12756,2.19548 -2.12756,1.37244 z m 88,0 c 0,-0.20765 0.7875,-0.99515 1.75,-1.75 1.58606,-1.24387 1.62143,-1.2085 0.37756,0.37756 -1.30637,1.66575 -2.12756,2.19548 -2.12756,1.37244 z m -166.92105,-3.20577 c 0.048,-1.16495 0.28494,-1.4019 0.60416,-0.60417 0.28887,0.72187 0.25335,1.58438 -0.0789,1.91667 -0.33229,0.33229 -0.56864,-0.25834 -0.52522,-1.3125 z m -76.07895,0.20577 c 0,-0.20765 0.7875,-0.99515 1.75,-1.75 1.58606,-1.24387 1.62143,-1.2085 0.37756,0.37756 -1.30637,1.66575 -2.12756,2.19548 -2.12756,1.37244 z m 41.07895,-4.20577 c 0.048,-1.16495 0.28494,-1.4019 0.60416,-0.60417 0.28887,0.72187 0.25335,1.58438 -0.0789,1.91667 -0.33229,0.33229 -0.56864,-0.25834 -0.52522,-1.3125 z m -37.07895,-0.79423 c 0,-0.20765 0.7875,-0.99515 1.75,-1.75 1.58606,-1.24387 1.62143,-1.2085 0.37756,0.37756 -1.30637,1.66575 -2.12756,2.19548 -2.12756,1.37244 z m 9,-1 c 0,-0.20765 0.7875,-0.99515 1.75,-1.75 1.58606,-1.24387 1.62143,-1.2085 0.37756,0.37756 -1.30637,1.66575 -2.12756,2.19548 -2.12756,1.37244 z m 64.07895,-1.20577 c 0.048,-1.16495 0.28494,-1.4019 0.60416,-0.60417 0.28887,0.72187 0.25335,1.58438 -0.0789,1.91667 -0.33229,0.33229 -0.56864,-0.25834 -0.52522,-1.3125 z m 91.92105,-0.79423 c 0,-0.20765 0.7875,-0.99515 1.75,-1.75 1.58606,-1.24387 1.62143,-1.2085 0.37756,0.37756 -1.30637,1.66575 -2.12756,2.19548 -2.12756,1.37244 z m 148.5,-1.62244 c 0.99549,-1.1 2.03498,-2 2.30998,-2 0.275,0 -0.31449,0.9 -1.30998,2 -0.99549,1.1 -2.03498,2 -2.30998,2 -0.275,0 0.31449,-0.9 1.30998,-2 z m 105.57895,0.41667 c 0.048,-1.16495 0.28494,-1.4019 0.60416,-0.60417 0.28887,0.72187 0.25335,1.58438 -0.0789,1.91667 -0.33229,0.33229 -0.56864,-0.25834 -0.52522,-1.3125 z m -381,-1 c 0.048,-1.16495 0.28494,-1.4019 0.60416,-0.60417 0.28887,0.72187 0.25335,1.58438 -0.0789,1.91667 -0.33229,0.33229 -0.56864,-0.25834 -0.52522,-1.3125 z m 405.92105,1.27042 c 0,-0.1721 1.4625,-1.6346 3.25,-3.25 l 3.25,-2.93709 -2.93709,3.25 c -2.73778,3.02946 -3.56291,3.70965 -3.56291,2.93709 z m -262.5,-3.68709 c 0.99549,-1.1 2.03498,-2 2.30998,-2 0.275,0 -0.31449,0.9 -1.30998,2 -0.99549,1.1 -2.03498,2 -2.30998,2 -0.275,0 0.31449,-0.9 1.30998,-2 z M 142.346,553.75642 c 0.97297,-0.25354 2.32297,-0.23687 3,0.0371 0.67703,0.27393 -0.11903,0.48137 -1.76903,0.46099 -1.65,-0.0204 -2.20394,-0.2445 -1.23097,-0.49804 z m 73.80992,-0.89034 c 0.048,-1.16495 0.28494,-1.4019 0.60416,-0.60417 0.28887,0.72187 0.25335,1.58438 -0.0789,1.91667 -0.33229,0.33229 -0.56864,-0.25834 -0.52522,-1.3125 z m 244.42105,-0.41667 c 0.99549,-1.1 2.03498,-2 2.30998,-2 0.275,0 -0.31449,0.9 -1.30998,2 -0.99549,1.1 -2.03498,2 -2.30998,2 -0.275,0 0.31449,-0.9 1.30998,-2 z m 28.25,1.33772 c 0.6875,-0.27741 1.8125,-0.27741 2.5,0 0.6875,0.27741 0.125,0.50439 -1.25,0.50439 -1.375,0 -1.9375,-0.22698 -1.25,-0.50439 z m -307.67105,-2.92105 c 0.048,-1.16495 0.28494,-1.4019 0.60416,-0.60417 0.28887,0.72187 0.25335,1.58438 -0.0789,1.91667 -0.33229,0.33229 -0.56864,-0.25834 -0.52522,-1.3125 z m -28.57895,-2.41667 c 0.99549,-1.1 2.03498,-2 2.30998,-2 0.275,0 -0.31449,0.9 -1.30998,2 -0.99549,1.1 -2.03498,2 -2.30998,2 -0.275,0 0.31449,-0.9 1.30998,-2 z m 168.5,-0.37756 c 0,-0.20765 0.7875,-0.99515 1.75,-1.75 1.58606,-1.24387 1.62143,-1.2085 0.37756,0.37756 -1.30637,1.66575 -2.12756,2.19548 -2.12756,1.37244 z m 194.26375,-0.34002 c 1.52006,-0.22986 3.77006,-0.22371 5,0.0136 1.22994,0.23736 -0.0137,0.42542 -2.76375,0.41792 -2.75,-0.008 -3.75631,-0.20172 -2.23625,-0.43157 z m -27.94368,-11.28242 c 0,-3.575 0.1815,-5.0375 0.40333,-3.25 0.22182,1.7875 0.22182,4.7125 0,6.5 -0.22183,1.7875 -0.40333,0.325 -0.40333,-3.25 z m -237.07007,4.27153 c 2.0625,-0.21574 5.4375,-0.21574 7.5,0 2.0625,0.21575 0.375,0.39226 -3.75,0.39226 -4.125,0 -5.8125,-0.17651 -3.75,-0.39226 z m -67.17105,-1.85486 c 0.048,-1.16495 0.28494,-1.4019 0.60416,-0.60417 0.28887,0.72187 0.25335,1.58438 -0.0789,1.91667 -0.33229,0.33229 -0.56864,-0.25834 -0.52522,-1.3125 z m 35.07894,-1.41667 c 0,-1.375 0.22698,-1.9375 0.50439,-1.25 0.27741,0.6875 0.27741,1.8125 0,2.5 -0.27741,0.6875 -0.50439,0.125 -0.50439,-1.25 z m 121.84211,-4.37756 c 0,-0.20765 0.7875,-0.99515 1.75,-1.75 1.58606,-1.24387 1.62143,-1.2085 0.37756,0.37756 -1.30637,1.66575 -2.12756,2.19548 -2.12756,1.37244 z m -120.92105,-2.20577 c 0.048,-1.16495 0.28494,-1.4019 0.60416,-0.60417 0.28887,0.72187 0.25335,1.58438 -0.0789,1.91667 -0.33229,0.33229 -0.56864,-0.25834 -0.52522,-1.3125 z m 135.92105,-0.79423 c 0,-0.20765 0.7875,-0.99515 1.75,-1.75 1.58606,-1.24387 1.62143,-1.2085 0.37756,0.37756 -1.30637,1.66575 -2.12756,2.19548 -2.12756,1.37244 z m -186,-2 c 0,-0.20765 0.7875,-0.99515 1.75,-1.75 1.58606,-1.24387 1.62143,-1.2085 0.37756,0.37756 -1.30637,1.66575 -2.12756,2.19548 -2.12756,1.37244 z m 8,-1 c 0,-0.20765 0.7875,-0.99515 1.75,-1.75 1.58606,-1.24387 1.62143,-1.2085 0.37756,0.37756 -1.30637,1.66575 -2.12756,2.19548 -2.12756,1.37244 z m 182,0 c 0,-0.20765 0.7875,-0.99515 1.75,-1.75 1.58606,-1.24387 1.62143,-1.2085 0.37756,0.37756 -1.30637,1.66575 -2.12756,2.19548 -2.12756,1.37244 z m -10,-1 c 0,-0.20765 0.7875,-0.99515 1.75,-1.75 1.58606,-1.24387 1.62143,-1.2085 0.37756,0.37756 -1.30637,1.66575 -2.12756,2.19548 -2.12756,1.37244 z m -128.92105,-3.20577 c 0.048,-1.16495 0.28494,-1.4019 0.60416,-0.60417 0.28887,0.72187 0.25335,1.58438 -0.0789,1.91667 -0.33229,0.33229 -0.56864,-0.25834 -0.52522,-1.3125 z m -34,-2 c 0.048,-1.16495 0.28494,-1.4019 0.60416,-0.60417 0.28887,0.72187 0.25335,1.58438 -0.0789,1.91667 -0.33229,0.33229 -0.56864,-0.25834 -0.52522,-1.3125 z m 211.67105,-0.1224 c 1.2375,-0.23836 3.2625,-0.23836 4.5,0 1.2375,0.23835 0.225,0.43337 -2.25,0.43337 -2.475,0 -3.4875,-0.19502 -2.25,-0.43337 z m -176.67105,-4.8776 c 0.048,-1.16495 0.28494,-1.4019 0.60416,-0.60417 0.28887,0.72187 0.25335,1.58438 -0.0789,1.91667 -0.33229,0.33229 -0.56864,-0.25834 -0.52522,-1.3125 z m 136.116,-1.91667 c 0.0204,-1.65 0.2445,-2.20394 0.49804,-1.23097 0.25354,0.97297 0.23687,2.32297 -0.0371,3 -0.27393,0.67703 -0.48137,-0.11903 -0.46099,-1.76903 z m -37.19495,-1.87756 c 0,-0.20765 0.7875,-0.99515 1.75,-1.75 1.58606,-1.24387 1.62143,-1.2085 0.37756,0.37756 -1.30637,1.66575 -2.12756,2.19548 -2.12756,1.37244 z m -137,-2 c 0,-0.20765 0.7875,-0.99515 1.75,-1.75 1.58606,-1.24387 1.62143,-1.2085 0.37756,0.37756 -1.30637,1.66575 -2.12756,2.19548 -2.12756,1.37244 z m 406.85325,-2.87569 c 0.50384,-0.50384 1.98048,-0.74864 3.28141,-0.544 2.00169,0.31488 1.86084,0.45573 -0.91608,0.91609 -1.98722,0.32944 -2.92011,0.18269 -2.36533,-0.37209 z m -130.60325,-0.47522 c 2.0625,-0.21574 5.4375,-0.21574 7.5,0 2.0625,0.21575 0.375,0.39226 -3.75,0.39226 -4.125,0 -5.8125,-0.17651 -3.75,-0.39226 z m -237.17105,-1.85486 c 0.048,-1.16495 0.28494,-1.4019 0.60416,-0.60417 0.28887,0.72187 0.25335,1.58438 -0.0789,1.91667 -0.33229,0.33229 -0.56864,-0.25834 -0.52522,-1.3125 z m 46.92105,-0.35765 c 0,-0.51754 0.44485,-1.21592 0.98855,-1.55194 0.56686,-0.35034 0.7345,0.0511 0.39301,0.94098 -0.66479,1.73242 -1.38156,2.04939 -1.38156,0.61096 z m 77,0 c 0,-0.51754 0.44485,-1.21592 0.98855,-1.55194 0.56686,-0.35034 0.7345,0.0511 0.39301,0.94098 -0.66479,1.73242 -1.38156,2.04939 -1.38156,0.61096 z m 50.75,-0.78242 c 1.7875,-0.22182 4.7125,-0.22182 6.5,0 1.7875,0.22183 0.325,0.40333 -3.25,0.40333 -3.575,0 -5.0375,-0.1815 -3.25,-0.40333 z m -111,-30.93888 c 0.6875,-0.27741 1.8125,-0.27741 2.5,0 0.6875,0.27741 0.125,0.50439 -1.25,0.50439 -1.375,0 -1.9375,-0.22698 -1.25,-0.50439 z m -64.44806,-2.08385 c 5.39107,-0.18015 13.94107,-0.17936 19,0.002 5.05893,0.18111 0.64806,0.32851 -9.80194,0.32755 -10.45,-9.6e-4 -14.58913,-0.14915 -9.19806,-0.3293 z m 116.96181,0.0285 c 1.52006,-0.22986 3.77006,-0.22371 5,0.0136 1.22994,0.23736 -0.0138,0.42542 -2.76375,0.41792 -2.75,-0.008 -3.75631,-0.20172 -2.23625,-0.43157 z m 44.48625,-0.0197 c 2.8875,-0.202 7.6125,-0.202 10.5,0 2.8875,0.202 0.525,0.36728 -5.25,0.36728 -5.775,0 -8.1375,-0.16528 -5.25,-0.36728 z m 33.91639,0.009 c -0.26323,-0.42449 7.87789,-0.63955 18.09137,-0.47792 14.32305,0.22668 18.7786,-0.002 19.48223,-1 0.70229,-0.99606 0.81821,-0.94862 0.50364,0.20612 -0.34112,1.25218 -3.48074,1.5449 -19.00364,1.7718 -10.22726,0.14949 -18.81038,-0.0755 -19.0736,-0.5 z m 62.58361,0.0389 c 0.9625,-0.25152 2.5375,-0.25152 3.5,0 0.9625,0.25153 0.175,0.45733 -1.75,0.45733 -1.925,0 -2.7125,-0.2058 -1.75,-0.45733 z m 74.19615,-0.3978 c -0.36954,-0.59793 -0.14443,-1.61043 0.50023,-2.25 0.89362,-0.88657 1.0163,-0.75355 0.51635,0.55984 -0.59927,1.5743 0.62328,1.74909 14.19075,2.02888 l 14.84652,0.30616 -14.69098,0.22113 c -9.72761,0.14641 -14.91798,-0.14617 -15.36287,-0.86601 z m -303.44615,-0.29033 c 0,-0.20765 0.7875,-0.99515 1.75,-1.75 1.58606,-1.24387 1.62143,-1.2085 0.37756,0.37756 -1.30637,1.66575 -2.12756,2.19548 -2.12756,1.37244 z m 148.10039,-2.91792 c -1.26492,-2.10631 -1.24361,-2.12762 0.47833,-0.47833 0.99123,0.94941 1.58698,1.94144 1.3239,2.20452 -0.26308,0.26308 -1.07408,-0.5137 -1.80223,-1.72619 z m -90.10039,-3.20452 c 1.29175,-1.375 2.57363,-2.5 2.84863,-2.5 0.275,0 -0.55688,1.125 -1.84863,2.5 -1.29175,1.375 -2.57363,2.5 -2.84863,2.5 -0.275,0 0.55688,-1.125 1.84863,-2.5 z m 110,2.12244 c 0,-0.20765 0.7875,-0.99515 1.75,-1.75 1.58606,-1.24387 1.62143,-1.2085 0.37756,0.37756 -1.30637,1.66575 -2.12756,2.19548 -2.12756,1.37244 z m -136.12756,-3.37244 c -1.24387,-1.58606 -1.2085,-1.62143 0.37756,-0.37756 1.66575,1.30637 2.19548,2.12756 1.37244,2.12756 -0.20765,0 -0.99515,-0.7875 -1.75,-1.75 z m 241,0 c -1.24387,-1.58606 -1.2085,-1.62143 0.37756,-0.37756 1.66575,1.30637 2.19548,2.12756 1.37244,2.12756 -0.20765,0 -0.99515,-0.7875 -1.75,-1.75 z m -194,-1 c -1.24387,-1.58606 -1.2085,-1.62143 0.37756,-0.37756 1.66575,1.30637 2.19548,2.12756 1.37244,2.12756 -0.20765,0 -0.99515,-0.7875 -1.75,-1.75 z m -73.87244,-1.79422 c 0,-0.11599 0.675,-0.77109 1.5,-1.45578 1.21651,-1.00961 1.5,-0.96975 1.5,0.21089 0,0.80068 -0.675,1.45578 -1.5,1.45578 -0.825,0 -1.5,-0.0949 -1.5,-0.21089 z m 191.56429,-0.74891 c 0.37553,-0.98622 0.93469,-1.54122 1.24258,-1.23333 0.30789,0.30789 6.4e-4,1.11479 -0.68278,1.79313 -0.98762,0.98026 -1.10248,0.8654 -0.5598,-0.5598 z m 74.66771,-1.70687 c 0,-1.925 0.2058,-2.7125 0.45733,-1.75 0.25152,0.9625 0.25152,2.5375 0,3.5 -0.25153,0.9625 -0.45733,0.175 -0.45733,-1.75 z m -17.03705,-3.5 c 0.0204,-1.65 0.2445,-2.20394 0.49804,-1.23097 0.25354,0.97297 0.23687,2.32297 -0.0371,3 -0.27393,0.67703 -0.48137,-0.11903 -0.46099,-1.76903 z m -114.38245,0.81689 c 0.72187,-0.28887 1.58438,-0.25335 1.91667,0.0789 0.33229,0.33229 -0.25834,0.56864 -1.3125,0.52522 -1.16495,-0.048 -1.4019,-0.28494 -0.60417,-0.60416 z m 16.4375,-0.0331 c 1.5125,-0.22913 3.9875,-0.22913 5.5,0 1.5125,0.22912 0.275,0.41659 -2.75,0.41659 -3.025,0 -4.2625,-0.18747 -2.75,-0.41659 z m -19.25,-2.22477 c 0,-0.51754 0.44485,-1.21592 0.98855,-1.55194 0.56686,-0.35034 0.7345,0.0511 0.39301,0.94098 -0.66479,1.73242 -1.38156,2.04939 -1.38156,0.61096 z m -71.84211,-2.05902 c 0,-1.375 0.22698,-1.9375 0.50439,-1.25 0.27741,0.6875 0.27741,1.8125 0,2.5 -0.27741,0.6875 -0.50439,0.125 -0.50439,-1.25 z m 217.84211,1.05902 c 0,-0.51754 0.44485,-1.21592 0.98855,-1.55194 0.56686,-0.35034 0.7345,0.0511 0.39301,0.94098 -0.66479,1.73242 -1.38156,2.04939 -1.38156,0.61096 z m -175.59501,-3.30902 -1.90499,-2.25 2.25,1.90499 c 1.2375,1.04774 2.25,2.06024 2.25,2.25 0,0.80025 -0.80479,0.20945 -2.59501,-1.90499 z m 49.09501,-1.75 c 0.99549,-1.1 2.03498,-2 2.30998,-2 0.275,0 -0.31449,0.9 -1.30998,2 -0.99549,1.1 -2.03498,2 -2.30998,2 -0.275,0 0.31449,-0.9 1.30998,-2 z m 6.5,-0.37756 c 0,-0.20765 0.7875,-0.99515 1.75,-1.75 1.58606,-1.24387 1.62143,-1.2085 0.37756,0.37756 -1.30637,1.66575 -2.12756,2.19548 -2.12756,1.37244 z m -257,-3 c 0,-0.20765 0.7875,-0.99515 1.75,-1.75 1.58606,-1.24387 1.62143,-1.2085 0.37756,0.37756 -1.30637,1.66575 -2.12756,2.19548 -2.12756,1.37244 z m 371.5,-1.62244 c 0.99549,-1.1 2.03498,-2 2.30998,-2 0.275,0 -0.31449,0.9 -1.30998,2 -0.99549,1.1 -2.03498,2 -2.30998,2 -0.275,0 0.31449,-0.9 1.30998,-2 z m -115.5,0.62244 c 0,-0.20765 0.7875,-0.99515 1.75,-1.75 1.58606,-1.24387 1.62143,-1.2085 0.37756,0.37756 -1.30637,1.66575 -2.12756,2.19548 -2.12756,1.37244 z m -125,-1 c 0,-0.20765 0.7875,-0.99515 1.75,-1.75 1.58606,-1.24387 1.62143,-1.2085 0.37756,0.37756 -1.30637,1.66575 -2.12756,2.19548 -2.12756,1.37244 z m 209.07895,-1.20577 c 0.048,-1.16495 0.28494,-1.4019 0.60416,-0.60417 0.28887,0.72187 0.25335,1.58438 -0.0789,1.91667 -0.33229,0.33229 -0.56864,-0.25834 -0.52522,-1.3125 z m 15.92105,-1.91667 c 1.86578,-1.925 3.61733,-3.5 3.89233,-3.5 0.275,0 -1.02655,1.575 -2.89233,3.5 -1.86578,1.925 -3.61733,3.5 -3.89233,3.5 -0.275,0 1.02655,-1.575 2.89233,-3.5 z m -239,0 c 1.29175,-1.375 2.57363,-2.5 2.84863,-2.5 0.275,0 -0.55688,1.125 -1.84863,2.5 -1.29175,1.375 -2.57363,2.5 -2.84863,2.5 -0.275,0 0.55688,-1.125 1.84863,-2.5 z m 73.34508,0.95687 c -0.32569,-0.84872 -0.36872,-1.76657 -0.0956,-2.03966 0.27309,-0.2731 0.73656,0.42131 1.02992,1.54313 0.62315,2.38293 -0.0692,2.75089 -0.9343,0.49653 z m -178.05349,-0.19937 c 3.73537,-0.19293 9.58537,-0.19149 13,0.003 3.41462,0.19468 0.35841,0.35253 -6.79159,0.35078 -7.15,-0.002 -9.94379,-0.16103 -6.20841,-0.35396 z m 23.8088,-1.96202 c 0.72815,-1.21249 1.53915,-1.98927 1.80223,-1.72619 0.26308,0.26308 -0.33267,1.25511 -1.3239,2.20452 -1.72194,1.64929 -1.74325,1.62798 -0.47833,-0.47833 z m 354.89961,0.70452 c -0.90129,-0.58246 -1.02463,-0.97549 -0.30902,-0.98469 0.65504,-0.008 1.4691,0.43469 1.80902,0.98469 0.7673,1.24153 0.42112,1.24153 -1.5,0 z m -129,-0.37756 c 0,-0.20765 0.7875,-0.99515 1.75,-1.75 1.58606,-1.24387 1.62143,-1.2085 0.37756,0.37756 -1.30637,1.66575 -2.12756,2.19548 -2.12756,1.37244 z m -122.1875,-1.30555 c 0.72187,-0.28887 1.58438,-0.25335 1.91667,0.0789 0.33229,0.33229 -0.25834,0.56864 -1.3125,0.52522 -1.16495,-0.048 -1.4019,-0.28494 -0.60417,-0.60416 z m 261.1875,-0.15022 c 0,-0.64167 -1.2375,-1.22795 -2.75,-1.30285 -2.52416,-0.125 -2.55575,-0.17302 -0.38466,-0.58467 2.4331,-0.46133 5.03468,1.15416 3.81799,2.37085 -0.37583,0.37583 -0.68333,0.15833 -0.68333,-0.48333 z m -223.5,-2.16667 c 0.99549,-1.1 2.03498,-2 2.30998,-2 0.275,0 -0.31449,0.9 -1.30998,2 -0.99549,1.1 -2.03498,2 -2.30998,2 -0.275,0 0.31449,-0.9 1.30998,-2 z m 142.37244,0.25 c -1.24387,-1.58606 -1.2085,-1.62143 0.37756,-0.37756 1.66575,1.30637 2.19548,2.12756 1.37244,2.12756 -0.20765,0 -0.99515,-0.7875 -1.75,-1.75 z m 15.57371,0.66287 c -1.31894,-2.13408 1.35521,-3.00585 8.15298,-2.65786 l 6.90087,0.35327 -7.35699,0.19586 c -6.07975,0.16186 -7.25706,0.45627 -6.78138,1.69586 0.66693,1.73801 0.0699,2.00726 -0.91548,0.41287 z m 17.03526,0.22533 c 0.4589,-0.80655 0.21291,-1.71771 -0.60329,-2.23469 -0.90607,-0.57389 -0.97017,-0.87813 -0.18714,-0.8882 1.8719,-0.0241 2.66408,2.03956 1.27518,3.32182 -0.97438,0.89958 -1.08414,0.85453 -0.48475,-0.19893 z m -53.22665,-1.1382 c 0.32352,-1.19227 2.3394,-1.51329 9.82613,-1.56476 l 9.41911,-0.0648 -8.967,0.35686 c -5.48599,0.21833 -9.30052,0.82578 -9.82613,1.56477 -0.61073,0.85866 -0.74145,0.7742 -0.45211,-0.2921 z m -214.75476,-1 -12,-0.59773 11.69098,-0.20113 c 6.94133,-0.11942 11.94207,0.20513 12.30902,0.79886 0.33992,0.55 0.47898,0.90949 0.30902,0.79886 -0.16996,-0.11062 -5.70902,-0.47011 -12.30902,-0.79886 z m -98.75,-0.74821 c 8.9375,-0.16573 23.5625,-0.16573 32.5,0 8.9375,0.16574 1.625,0.30134 -16.25,0.30134 -17.875,0 -25.1875,-0.1356 -16.25,-0.30134 z m 151.5,-1.94112 c 0.9625,-0.25152 2.5375,-0.25152 3.5,0 0.9625,0.25153 0.175,0.45733 -1.75,0.45733 -1.925,0 -2.7125,-0.2058 -1.75,-0.45733 z m 53.5,-0.97295 c 0.6875,-0.27741 1.8125,-0.27741 2.5,0 0.6875,0.27741 0.125,0.50439 -1.25,0.50439 -1.375,0 -1.9375,-0.22698 -1.25,-0.50439 z m 187.51903,-0.0307 c 0.97297,-0.25354 2.32297,-0.23687 3,0.0371 0.67703,0.27393 -0.11903,0.48137 -1.76903,0.46099 -1.65,-0.0204 -2.20394,-0.2445 -1.23097,-0.49804 z M 306.57908,417.09297 c -1.28018,-1.95379 -10.52792,-27.08763 -20.78658,-56.49446 l -2.21553,-6.35091 -4.71298,0.54941 c -6.73009,0.78454 -28.04599,8.10049 -36.28702,12.45426 -7.92566,4.18717 -7.78043,3.72924 -4.97869,15.69814 3.06595,13.0976 -1.14269,29.5 -7.56931,29.5 -2.59706,0 -3.1477,-2.72426 -1.27607,-6.31335 2.09439,-4.01626 2.90971,-16.8344 1.42109,-22.34199 -0.61772,-2.28543 -1.91874,-5.13787 -2.89116,-6.33876 l -1.76802,-2.18342 -12.46892,8.23247 c -6.85791,4.52785 -18.09392,12.38098 -24.96892,17.4514 -13.89935,10.25097 -15.9465,11.49365 -18.93426,11.49365 -1.51921,0 -2.06574,-0.64097 -2.06574,-2.42268 0,-1.69123 1.58505,-3.76527 5.25,-6.86961 7.38375,-6.2543 27.65852,-21.09318 38.54097,-28.20771 5.04771,-3.3 9.18471,-6.63964 9.19334,-7.42142 0.022,-1.9954 -8.17842,-9.6268 -12.97308,-12.07285 l -4.00439,-2.04289 -4.75342,2.4249 c -13.12189,6.69397 -34.10741,25.71259 -50.62004,45.8756 -9.37259,11.44455 -12.28254,13.8982 -13.74524,11.58991 -1.55419,-2.45267 -0.96148,-3.67 6.84587,-14.06043 31.44098,-41.84326 88.82411,-78.13123 144.26599,-91.23099 18.62491,-4.40068 32.724,-5.8939 55.5,-5.87792 30.96816,0.0217 56.00451,3.76961 83.21577,12.45722 43.00789,13.73092 73.99431,33.90306 111.32237,72.47077 13.07529,13.50951 16.21173,17.5984 15.78862,20.58312 -0.43259,3.05155 -3.23064,2.5868 -7.82676,-1.29998 -15.37643,-13.00334 -29.31395,-21.88754 -51.5,-32.82765 -27.42867,-13.5253 -54.66826,-22.59185 -83,-27.62612 -17.97417,-3.19382 -47.47443,-5.03458 -61.5,-3.83747 l -10.5,0.8962 -0.30417,4.73472 c -0.40319,6.27621 1.77807,10.6268 8.33048,16.61533 5.35087,4.89039 27.85966,18.86231 58.97369,36.60683 9.35,5.33236 18.0125,10.63942 19.25,11.79347 2.53881,2.36761 2.94586,5.26865 0.85201,6.07213 -1.33608,0.51271 -72.81643,-40.29439 -80.4359,-45.91969 -10.67924,-7.88426 -14.71602,-13.72188 -15.78636,-22.82878 -0.76625,-6.51964 -0.34564,-6.39824 -13.99876,-4.0401 -11.62502,2.00785 -20.15278,4.41358 -20.66648,5.83012 -0.46894,1.2931 4.5649,18.49824 13.42699,45.89214 3.33726,10.31589 5.80979,19.42839 5.49451,20.25 -0.85578,2.23012 -3.38603,1.80499 -5.1339,-0.86261 z M 503.7592,368.40612 c -0.78715,-1.12381 -4.25747,-4.49086 -7.71182,-7.48234 -28.00566,-24.25292 -74.25855,-43.13425 -119.81215,-48.90965 -17.76896,-2.2528 -17.45709,-2.29532 -23.35964,3.18528 -5.33468,4.95332 -13.11884,15.92286 -12.27174,17.29348 0.26908,0.4354 10.32641,0.82015 22.34961,0.85501 12.0232,0.0349 26.30707,0.5461 31.74194,1.13609 32.34436,3.51121 70.59874,15.59965 101.86378,32.18911 8.08977,4.2925 9.17585,4.55391 7.20002,1.73302 z m -263.4497,-9.31124 c 5.31786,-2.395 16.21008,-6.55496 24.20494,-9.24437 7.99485,-2.6894 14.71909,-5.36671 14.94276,-5.94957 0.22366,-0.58286 -1.45907,-5.9854 -3.73941,-12.00564 -5.10866,-13.48717 -4.95515,-13.43774 -21.38013,-6.88414 -17.50012,6.98257 -41.66906,19.46453 -42.65619,22.02963 -0.23099,0.60026 2.15119,2.96376 5.29374,5.25222 3.14256,2.28847 7.23932,5.73485 9.10392,7.65863 1.86459,1.92377 3.65373,3.49777 3.97585,3.49777 0.32212,0 4.93666,-1.95954 10.25452,-4.35453 z m 63.76747,-20.21899 c 6.325,-1.32455 14.26634,-2.69478 17.64742,-3.04496 3.38108,-0.35018 6.53992,-0.91678 7.01964,-1.25911 0.47971,-0.34232 3.05392,-4.44741 5.72045,-9.12241 2.66653,-4.675 5.6952,-9.429 6.73037,-10.56445 2.99088,-3.28062 2.26815,-4.19518 -3.86788,-4.89451 -10.83492,-1.23486 -51.34981,3.43048 -56.28638,6.48145 -1.18913,0.73492 -0.87676,2.56143 1.91166,11.17799 3.96817,12.26212 5.61159,15.21755 7.94916,14.29531 0.92156,-0.36358 6.85056,-1.74477 13.17556,-3.06931 z"
         id="path4176"
         inkscape:connector-curvature="0" />
    </g>
  </g>
</svg>
