<?xml version="1.0" encoding="UTF-8" standalone="no"?>
<!-- Created with Inkscape (http://www.inkscape.org/) -->

<svg
   xmlns:dc="http://purl.org/dc/elements/1.1/"
   xmlns:cc="http://creativecommons.org/ns#"
   xmlns:rdf="http://www.w3.org/1999/02/22-rdf-syntax-ns#"
   xmlns:svg="http://www.w3.org/2000/svg"
   xmlns="http://www.w3.org/2000/svg"
   xmlns:sodipodi="http://sodipodi.sourceforge.net/DTD/sodipodi-0.dtd"
   xmlns:inkscape="http://www.inkscape.org/namespaces/inkscape"
   width="27.733334"
   height="38.400002"
   id="svg2"
   version="1.1"
   inkscape:version="0.92.1 r15371"
   sodipodi:docname="snoo.svg"
   inkscape:export-filename="/home/likwid/Pictures/laker_reddit/SourceFiles/sprite_icons/snoo.png"
   inkscape:export-xdpi="125"
   inkscape:export-ydpi="125">
  <defs
     id="defs4" />
  <sodipodi:namedview
     id="base"
     pagecolor="#ffffff"
     bordercolor="#666666"
     borderopacity="1.0"
     inkscape:pageopacity="0.0"
     inkscape:pageshadow="2"
     inkscape:zoom="22.4"
     inkscape:cx="16.677045"
     inkscape:cy="29.956256"
     inkscape:document-units="px"
     inkscape:current-layer="layer1"
     showgrid="false"
     inkscape:window-width="1920"
     inkscape:window-height="1017"
     inkscape:window-x="-8"
     inkscape:window-y="-8"
     inkscape:window-maximized="1"
     fit-margin-top="0"
     fit-margin-left="0"
     fit-margin-right="0"
     fit-margin-bottom="0" />
  <metadata
     id="metadata7">
    <rdf:RDF>
      <cc:Work
         rdf:about="">
        <dc:format>image/svg+xml</dc:format>
        <dc:type
           rdf:resource="http://purl.org/dc/dcmitype/StillImage" />
        <dc:title />
      </cc:Work>
    </rdf:RDF>
  </metadata>
  <g
     inkscape:label="Layer 1"
     inkscape:groupmode="layer"
     id="layer1"
     transform="translate(-258.43333,-686.20189)">
    <path
       style="fill:#ff8f00;fill-opacity:1;stroke:#090008;stroke-width:1;marker-end:none;stroke-opacity:1;stroke-miterlimit:4;stroke-dasharray:none"
       d="m 259.68964,697.11266 c 0,0 3.48604,0.74387 5.54582,-0.50701 2.05975,-1.25091 3.19231,-4.80143 3.19231,-4.80143 0,0 -3.48605,-0.74387 -5.54582,0.50702 -2.05976,1.2509 -3.19231,4.80142 -3.19231,4.80142 z"
       id="rect3788"
       inkscape:connector-curvature="0"
       sodipodi:nodetypes="czczc" />
    <path
       sodipodi:nodetypes="czczc"
       inkscape:connector-curvature="0"
       id="path3791"
       d="m 276.17393,692.01702 c 0,0 1.13058,3.54756 3.19035,4.79846 2.05976,1.25088 5.54922,0.50731 5.54922,0.50731 0,0 -1.13057,-3.54754 -3.19033,-4.79845 -2.05977,-1.25088 -5.54924,-0.50732 -5.54924,-0.50732 z"
       style="fill:#ff8f00;fill-opacity:1;stroke:#090008;stroke-width:1;marker-end:none;stroke-opacity:1;stroke-miterlimit:4;stroke-dasharray:none" />
    <path
       sodipodi:nodetypes="czczc"
       inkscape:connector-curvature="0"
       id="path3898"
       d="m 261.56182,695.9753 c 0,0 1.99225,0.42513 3.16938,-0.28975 1.17714,-0.71487 1.82438,-2.74397 1.82438,-2.74397 0,0 -1.99225,-0.42512 -3.16938,0.28977 -1.17713,0.71487 -1.82438,2.74395 -1.82438,2.74395 z"
       style="fill:#ffc67e;fill-opacity:1;stroke:none;stroke-width:6.66666651;marker-end:none" />
    <path
       style="fill:#ffc67e;fill-opacity:1;stroke:none;stroke-width:6.66666651;marker-end:none"
       d="m 278.09181,693.18135 c 0,0 0.63439,1.99056 1.79012,2.69245 1.15577,0.70188 3.1137,0.28465 3.1137,0.28465 0,0 -0.63437,-1.99054 -1.79012,-2.69243 -1.15573,-0.70188 -3.1137,-0.28467 -3.1137,-0.28467 z"
       id="path3900"
       inkscape:connector-curvature="0"
       sodipodi:nodetypes="czczc" />
    <path
       style="fill:none;stroke:none;stroke-width:6.66666651;marker-end:none"
       d="m 269.86429,706.27451 h 4.89405"
       id="path3896"
       inkscape:connector-curvature="0" />
    <path
       style="fill:#ff8f00;fill-opacity:1;stroke:#000000;stroke-width:0.902;stroke-linecap:butt;stroke-linejoin:miter;stroke-miterlimit:4;stroke-dasharray:none;stroke-opacity:1;marker-end:none"
       d="M 19.017578 0.72070312 A 1.6604496 1.7465857 0 0 0 17.357422 2.46875 A 1.6604496 1.7465857 0 0 0 17.498047 3.1640625 C 17.230802 3.8421761 16.996369 4.5564382 16.703125 5.2070312 C 15.846282 4.8752715 14.927838 4.6855469 13.966797 4.6855469 C 13.052504 4.6855469 12.176641 4.8566401 11.355469 5.1582031 C 11.016555 4.5592885 10.72721 3.9129419 10.476562 3.2519531 A 1.6604496 1.7465857 0 0 0 10.632812 2.515625 A 1.6604496 1.7465857 0 0 0 8.9726562 0.76953125 A 1.6604496 1.7465857 0 0 0 7.3105469 2.515625 A 1.6604496 1.7465857 0 0 0 8.6386719 4.2265625 C 8.9551809 4.8399817 9.3207318 5.4330712 9.640625 6.0449219 C 7.3222362 7.6237051 5.7734375 10.423223 5.7734375 13.623047 C 5.7734375 18.557387 11.943377 22.556641 13.966797 22.556641 C 15.990217 22.556641 22.160156 18.557387 22.160156 13.623047 C 22.160156 10.470431 20.657948 7.7043291 18.396484 6.1132812 C 18.669384 5.4764768 19.023863 4.8245392 19.330078 4.1816406 A 1.6604496 1.7465857 0 0 0 20.677734 2.46875 A 1.6604496 1.7465857 0 0 0 19.017578 0.72070312 z "
       transform="translate(258.43333,686.20189)"
       id="path3785" />
    <g
       id="g3797"
       transform="matrix(0.13193044,0,0,0.13877434,223.14362,625.08678)"
       style="stroke:none">
      <ellipse
         transform="matrix(0.33453707,-0.94238259,0.76090888,0.64885875,0,0)"
         id="path3793"
         style="fill:#000000;fill-opacity:1;stroke:none;stroke-width:1.24608409"
         cx="-212.90642"
         cy="572.41211"
         rx="5.995225"
         ry="6.6069827" />
      <ellipse
         style="fill:#000000;fill-opacity:1;stroke:none;stroke-width:1.24608409"
         id="path3795"
         transform="matrix(-0.33453707,-0.94238259,-0.76090888,0.64885875,0,0)"
         cx="-731.57465"
         cy="-180.88576"
         rx="5.995225"
         ry="6.6069827" />
    </g>
    <ellipse
       style="fill:#6f3000;fill-opacity:1;stroke:none;stroke-width:0.67911953;marker-end:none"
       id="path3826"
       cx="267.40518"
       cy="688.71735"
       rx="1.2500751"
       ry="1.314923" />
    <ellipse
       id="path3928"
       style="fill:#6f3000;fill-opacity:1;stroke:none;stroke-width:0.67911953;marker-end:none"
       cx="277.45071"
       cy="688.66998"
       rx="1.2500751"
       ry="1.314923" />
    <ellipse
       style="fill:#6f3000;fill-opacity:1;stroke:none;stroke-width:0.14432974"
       id="path4442"
       cx="271.4097"
       cy="693.9837"
       rx="1.1372362"
       ry="1.1962304" />
    <ellipse
       style="fill:#6f3000;fill-opacity:1;stroke:none;stroke-width:0.14432974"
       id="path4444"
       cx="274.39389"
       cy="701.62"
       rx="0.60415679"
       ry="1.0282564" />
    <ellipse
       style="fill:#6f3000;fill-opacity:1;stroke:none;stroke-width:0.14432974"
       id="path4446"
       cx="277.62897"
       cy="701.7218"
       rx="0.95954305"
       ry="1.0093194" />
    <ellipse
       style="fill:#6f3000;fill-opacity:1;stroke:none;stroke-width:0.19630967"
       id="path4450"
       cx="267.62485"
       cy="697.49762"
       rx="0.65746468"
       ry="0.74764401" />
    <ellipse
       style="fill:#6f3000;fill-opacity:1;stroke:none;stroke-width:0.14432974"
       id="path4452"
       cx="266.93185"
       cy="701.75922"
       rx="1.066159"
       ry="1.121466" />
    <ellipse
       style="fill:#6f3000;fill-opacity:1;stroke:none;stroke-width:0.14432974"
       id="path4454"
       cx="267.25168"
       cy="694.76874"
       rx="0.74631125"
       ry="0.78502619" />
    <ellipse
       style="fill:#6f3000;fill-opacity:1;stroke:none;stroke-width:0.17507407"
       id="path4456"
       cx="271.47522"
       cy="699.33752"
       rx="0.86254072"
       ry="0.82506508" />
    <ellipse
       style="fill:#6f3000;fill-opacity:1;stroke:none;stroke-width:0.14432974"
       id="path4458"
       cx="275.78094"
       cy="696.18927"
       rx="0.95954305"
       ry="1.0093194" />
    <g
       id="g3938"
       transform="matrix(0.13193044,0,0,0.13877434,224.17644,624.93349)"
       style="stroke:none">
      <g
         transform="translate(5.9262283)"
         id="g3930"
         style="stroke:none">
        <circle
           id="path3822"
           style="fill:#ffffff;fill-opacity:1;stroke:none;stroke-width:1.06666672"
           cx="385.33334"
           cy="529.18634"
           r="12.380952" />
        <circle
           id="path3894"
           style="fill:#000000;fill-opacity:1;stroke:none;stroke-width:3.20000005"
           cx="385.33334"
           cy="531.64777"
           r="6.0609155" />
      </g>
      <g
         transform="translate(-5.9262283)"
         id="g3934"
         style="stroke:none">
        <circle
           style="fill:#ffffff;fill-opacity:1;stroke:none;stroke-width:1.06666672"
           id="path3820"
           cx="345.71429"
           cy="529.18634"
           r="12.380952" />
        <circle
           style="fill:#000000;fill-opacity:1;stroke:none;stroke-width:3.20000005"
           id="path3902"
           cx="345.71429"
           cy="531.64777"
           r="6.0609155" />
      </g>
    </g>
    <ellipse
       style="fill:#6f3000;fill-opacity:1;stroke:none;stroke-width:0.14432974"
       id="path4460"
       cx="275.63879"
       cy="693.23608"
       rx="0.31984767"
       ry="0.67287958" />
    <ellipse
       style="fill:#6f3000;fill-opacity:1;stroke:none;stroke-width:0.14432974"
       id="path4462"
       cx="278.51743"
       cy="696.60046"
       rx="0.78184992"
       ry="0.82240844" />
  </g>
</svg>
