<?xml version="1.0" encoding="UTF-8" standalone="no"?>
<!-- Created with Inkscape (http://www.inkscape.org/) -->

<svg
   xmlns:dc="http://purl.org/dc/elements/1.1/"
   xmlns:cc="http://creativecommons.org/ns#"
   xmlns:rdf="http://www.w3.org/1999/02/22-rdf-syntax-ns#"
   xmlns:svg="http://www.w3.org/2000/svg"
   xmlns="http://www.w3.org/2000/svg"
   xmlns:sodipodi="http://sodipodi.sourceforge.net/DTD/sodipodi-0.dtd"
   xmlns:inkscape="http://www.inkscape.org/namespaces/inkscape"
   width="50"
   height="56"
   viewBox="0 0 50.000002 56.000003"
   id="svg2"
   version="1.1"
   inkscape:version="0.91 r13725"
   sodipodi:docname="vs.svg"
   inkscape:export-filename="/home/likwid/Pictures/laker_reddit/SourceFiles/vs.png"
   inkscape:export-xdpi="90"
   inkscape:export-ydpi="90">
  <defs
     id="defs4" />
  <sodipodi:namedview
     id="base"
     pagecolor="#ffffff"
     bordercolor="#666666"
     borderopacity="1.0"
     inkscape:pageopacity="0.0"
     inkscape:pageshadow="2"
     inkscape:zoom="5.42"
     inkscape:cx="-14.059553"
     inkscape:cy="15.117004"
     inkscape:document-units="px"
     inkscape:current-layer="g4152"
     showgrid="false"
     units="px"
     inkscape:window-width="1920"
     inkscape:window-height="1013"
     inkscape:window-x="0"
     inkscape:window-y="28"
     inkscape:window-maximized="1"
     borderlayer="true" />
  <metadata
     id="metadata7">
    <rdf:RDF>
      <cc:Work
         rdf:about="">
        <dc:format>image/svg+xml</dc:format>
        <dc:type
           rdf:resource="http://purl.org/dc/dcmitype/StillImage" />
        <dc:title></dc:title>
      </cc:Work>
    </rdf:RDF>
  </metadata>
  <g
     inkscape:label="Layer 1"
     inkscape:groupmode="layer"
     id="layer1"
     transform="translate(0,-996.36217)">
    <g
       id="g4152"
       transform="matrix(0.76923082,0,0,0.76857624,0,237.49906)">
      <rect
         y="987.36218"
         x="0"
         height="72.862"
         width="65"
         id="rect4151"
         style="fill:#fcb827;fill-opacity:1" />
      <g
         transform="matrix(0.11515493,0,0,0.11834241,95.743635,962.34171)"
         id="g4770">
        <path
           inkscape:connector-curvature="0"
           id="path4772"
           d="m -663.37306,441.1882 c -3.21831,-0.70481 -6.75825,-2.22717 -7.95,-3.41891 -4.22492,-4.22492 -1.96137,-12.2498 6.81987,-24.17827 6.55545,-8.90495 7.50497,-9.31946 20.89845,-9.12307 11.29852,0.16566 11.42609,0.1416 14.75847,-2.78427 4.27789,-3.75605 20.77486,-31.14427 20.77486,-34.49038 0,-1.38558 -0.675,-5.11073 -1.5,-8.27812 -0.825,-3.16739 -1.5,-9.95831 -1.5,-15.09095 0,-30.30354 15.03254,-57.06092 40.30852,-71.74774 4.73275,-2.75 8.62445,-5.37902 8.64824,-5.84227 0.0238,-0.46325 -0.85676,-1.98644 -1.95676,-3.38486 -3.87018,-4.92014 -1.82002,-12.76614 5.78597,-22.143 6.03424,-7.43917 4.53373,-7.25241 58.58365,-7.29132 48.85194,-0.0352 56.3297,0.42397 61.44,3.77236 2.10459,1.37898 2.35377,2.1343 1.87692,5.68943 -0.67157,5.00691 -6.95718,17.66559 -10.35919,20.86251 -2.31997,2.18011 -3.34289,2.34585 -15.22394,2.46669 -14.27579,0.14519 -17.97623,1.29005 -20.60579,6.37507 -1.5281,2.95501 -1.50808,3.00139 3.77557,8.74868 9.98234,10.85828 15.97813,24.85242 17.67493,41.25313 0.8747,8.45462 0.1319,22.01537 -1.48495,27.10963 -0.7948,2.50419 0.92945,2.39288 4.56452,-0.29464 2.31893,-1.71446 4.74778,-2.27313 11.40074,-2.62232 10.60041,-0.55638 14.70798,0.20336 18.54213,3.42959 5.2756,4.43912 4.06445,9.59673 -5.95786,25.37132 -3.66912,5.775 -11.09703,17.925 -16.50646,27 -14.65772,24.59018 -22.03053,35.64213 -25.13392,37.67616 -2.63511,1.72711 -7.53198,1.83398 -92.32751,2.01498 -69.28649,0.14789 -90.85736,-0.0963 -95.34646,-1.07943 z m 183.51476,-5.86171 c 2.38625,-1.86967 14.69354,-20.3224 31.51401,-47.25 17.5366,-28.07405 17.27288,-27.60098 17.27288,-30.98529 0,-3.2117 -4.73019,-5.527 -11.21788,-5.49085 -9.21244,0.0513 -10.36323,0.79974 -27.82041,18.09307 -18.08846,17.91869 -29.47269,27.38911 -39.76984,33.08412 -10.57599,5.84923 -16.07252,6.91199 -38.92151,7.52549 -17.64952,0.4739 -20.30523,0.34617 -20.82235,-1.00143 -0.70698,-1.84236 2.07905,-7.6064 4.04031,-8.359 0.76106,-0.29205 4.83146,0.23605 9.04533,1.17355 9.24219,2.05619 27.11881,1.57914 35.11561,-0.93708 12.07919,-3.80075 26.42002,-17.43762 35.79659,-34.03939 4.66284,-8.25582 5.58184,-11.56319 3.21299,-11.56319 -1.49888,0 -12.38164,7.55195 -27.83869,19.31829 -16.65408,12.67756 -33.55491,19.68171 -47.49145,19.68171 -6.20406,0 -3.24486,-2.44616 3.75095,-3.10065 15.52199,-1.45215 26.03241,-6.75935 46.46358,-23.46163 13.94387,-11.39898 21.15863,-16.29116 25.12194,-17.03468 3.82089,-0.71681 5.60655,-3.21584 5.14648,-7.20249 l -0.31165,-2.70055 -25.82765,-0.26704 c -19.93212,-0.20608 -25.73412,-0.54848 -25.41786,-1.5 0.30445,-0.916 7.07246,-1.37243 26.32765,-1.77549 14.25482,-0.2984 26.05282,-0.6359 26.21776,-0.75 0.16495,-0.11411 0.16495,-2.73551 0,-5.82534 l -0.2999,-5.61787 -7.3094,-1.85205 c -4.02017,-1.01862 -9.59142,-3.09407 -12.38055,-4.61211 -6.75592,-3.67703 -13.36141,-9.59897 -12.41501,-11.13027 0.5133,-0.83054 2.47847,0.16759 6.42229,3.26197 7.15366,5.61286 15.84843,9.62568 21.39743,9.87537 l 4.28524,0.19283 -0.23819,-3.5 c -0.42134,-6.19129 -5.35838,-19.75234 -10.37836,-28.50726 -2.6859,-4.68424 -4.88345,-9.3049 -4.88345,-10.26812 0,-2.95348 6.82524,-12.08041 11.20279,-14.98074 3.88326,-2.57284 4.93686,-2.76433 16.90176,-3.07201 l 12.76035,-0.32812 3.92002,-6.67188 c 4.70994,-8.01631 5.4232,-10.50474 3.69048,-12.87539 -1.22938,-1.682 -4.60784,-1.81463 -53.01664,-2.08128 -45.47874,-0.25051 -51.99025,-0.097 -54.0846,1.2753 -2.87912,1.88647 -7.02095,8.25694 -8.98193,13.81494 -2.22385,6.30308 -0.88581,7.06389 12.05897,6.85667 9.57995,-0.15335 10.5488,-0.002 10.5488,1.64339 0,3.44244 -2.52962,5.17838 -10.5,7.20556 -12.51382,3.18276 -29.62007,12.36762 -27.97907,15.0228 0.36565,0.59164 14.1182,0.96614 35.47907,0.96614 21.47236,0 35.11258,0.37314 35.48185,0.97063 0.73397,1.1876 -1.88477,6.43228 -4.53503,9.08255 -1.79205,1.79205 -3.45262,1.94682 -20.8878,1.94682 -11.52644,0 -19.18249,-0.39077 -19.55794,-0.99825 -0.33932,-0.54903 0.0841,-1.99916 0.94099,-3.2225 3.23788,-4.62273 2.71699,-4.77925 -15.90494,-4.77925 l -17.46288,0 -4.03197,4.19608 c -3.99773,4.16045 -5.7657,7.41383 -4.64039,8.53915 0.32148,0.32147 17.19321,0.68359 37.49274,0.8047 20.29953,0.12111 37.40094,0.52471 38.00313,0.89688 0.7615,0.47064 0.60254,1.64906 -0.52202,3.86994 -3.50344,6.91893 -2.67633,6.69325 -24.53073,6.69325 -10.91475,0 -19.84501,-0.34987 -19.84501,-0.77749 0,-0.42763 0.72708,-1.81555 1.61573,-3.08427 1.00714,-1.4379 1.26205,-2.66046 0.67676,-3.24575 -0.53783,-0.53783 -8.81118,-0.82224 -19.36573,-0.66573 l -18.42676,0.27324 -2.35659,4.75103 c -4.05509,8.1753 -6.05363,7.74897 36.32521,7.74897 27.41546,0 37.53138,0.30711 37.53138,1.1394 0,1.45459 -5.89997,11.12285 -7.38104,12.09529 -1.88725,1.23913 -39.61896,0.92447 -39.61896,-0.3304 0,-0.60264 0.74239,-2.35248 1.64976,-3.88853 3.26677,-5.5302 2.05953,-6.01741 -14.86838,-6.00045 -8.40476,0.008 -15.85668,0.38039 -16.55982,0.8266 -0.70314,0.4462 -1.80122,3.62237 -2.44017,7.05814 -0.97617,5.24912 -0.9317,6.3924 0.27844,7.15809 0.79209,0.50118 16.10267,0.91813 34.0235,0.92655 17.92084,0.008 32.86758,0.29956 33.215,0.64697 0.79074,0.79074 -1.41737,4.62442 -18.06743,31.36834 -14.4677,23.23855 -23.84727,40.95137 -22.93883,43.31875 0.78553,2.04706 15.6304,3.07139 35.5826,2.45529 14.52407,-0.44849 16.18916,-0.70269 23.62533,-3.6068 18.1977,-7.1069 40.29434,-24.66859 62.19157,-49.42783 4.18896,-4.73647 4.1956,-4.73941 10.69098,-4.73941 3.57468,0 6.73099,0.3747 7.01403,0.83266 0.75326,1.21881 -14.71517,26.76678 -34.66745,57.25745 l -9.54738,14.59011 -56.64586,0.70927 c -63.94882,0.80072 -122.55607,-0.0581 -122.50154,-1.79519 0.0189,-0.60187 1.94868,-3.7943 4.28841,-7.0943 l 4.25406,-6 12.46159,-0.53839 c 6.85388,-0.29611 13.36159,-1.04488 14.46159,-1.66394 4.06343,-2.28681 7.69448,-7.38486 23.71603,-33.29767 24.06662,-38.9247 24.13697,-39.047 23.07141,-40.11256 -0.53177,-0.53177 -6.22659,-0.8285 -12.87062,-0.67062 l -11.91682,0.28318 0.13942,6.5 c 0.0767,3.575 0.89413,9.50716 1.81656,13.18259 l 1.67713,6.68259 -9.31655,16.24714 c -5.78744,10.09271 -11.22695,18.21586 -14.35981,21.44437 l -5.04326,5.19723 -13.21125,0.73483 -13.21126,0.73483 -2.8694,3.63821 c -9.02134,11.43844 -11.55603,19.22413 -6.87158,21.10705 1.27949,0.51429 41.31133,0.93173 92.80887,0.96777 71.0078,0.0497 90.9033,-0.20648 92.15424,-1.18661 z m -59.00762,-154.60184 c -0.99088,-0.62859 -0.22859,-2.85897 3.25,-9.50915 7.25831,-13.87604 6.33132,-15.63901 -8.22308,-15.63901 -4.89449,0 -9.18113,-0.28205 -9.52586,-0.62678 -0.7167,-0.71671 1.78486,-6.0181 4.06903,-8.62322 1.42238,-1.62224 5.13255,-1.75 50.82039,-1.75 28.69941,0 49.52203,0.38191 49.85107,0.91432 0.3108,0.50287 -0.9209,2.86537 -2.73709,5.25 l -3.30217,4.33568 -12.45389,0.5 c -10.81901,0.43436 -12.95026,0.8086 -16.23507,2.85083 -4.38045,2.72341 -9.2031,8.72248 -13.29537,16.53861 -1.64003,3.13243 -3.74753,5.72983 -4.9005,6.03965 -3.23562,0.86946 -35.89157,0.62363 -37.31746,-0.28093 z m 62.97572,84.11306 c 2.52175,-5.1042 2.85587,-6.51161 1.83724,-7.73899 -1.75117,-2.11002 -2.60799,-1.27582 -6.47305,6.30217 -1.87264,3.67158 -5.01144,9.13543 -6.9751,12.14188 -1.96367,3.00645 -3.5703,5.91736 -3.5703,6.46869 0,2.51879 12.36004,-11.46352 15.18121,-17.17375 z m 5.79334,-14.19977 c 2.00184,-4.83289 1.83686,-9.4253 -0.35472,-9.87362 -1.0341,-0.21154 -2.23167,0.18411 -2.66127,0.87922 -1.13063,1.82939 -2.18905,9.751 -1.46038,10.93001 1.17387,1.89935 3.26185,0.99649 4.47637,-1.93561 z m 1.82545,-14.26145 c 1.54776,-1.54776 1.57871,-12.44791 0.038,-13.40009 -3.27074,-2.02143 -6.28693,8.02432 -3.80287,12.66583 1.1974,2.23736 2.08802,2.41106 3.76482,0.73426 z m -0.95779,-17.48252 c 0.62589,-1.11842 0.44261,-3.38152 -0.54666,-6.75 -1.7442,-5.93899 -8.15072,-18.56748 -9.41942,-18.56748 -0.48187,0 -0.87613,0.19456 -0.87613,0.43236 0,1.00949 6.93561,24.65444 7.49921,25.56636 0.92173,1.4914 2.28228,1.21415 3.343,-0.68124 z"
           style="fill:#4c039f;fill-opacity:1" />
      </g>
      <rect
         y="987.36218"
         x="0"
         height="72.862"
         width="10"
         id="rect4157"
         style="fill:#ffffff;fill-opacity:1" />
      <rect
         style="fill:#ffffff;fill-opacity:1"
         id="rect4159"
         width="10"
         height="72.862"
         x="55"
         y="987.36218" />
      <path
         style="fill:#ffffff;fill-opacity:1"
         d="M 31.918554,1018.5887 A 5.3505534,5.2044322 0 0 0 26.65,1022.9194 l -26.65000038971672,0 0,1.9452 26.68808638971672,0 a 5.3505534,5.2044322 0 0 0 5.230468,4.133 5.3505534,5.2044322 0 0 0 5.233008,-4.133 l 27.848437,0 0,-1.9452 -27.805273,0 a 5.3505534,5.2044322 0 0 0 -5.276172,-4.3307 z"
         id="rect4167"
         inkscape:connector-curvature="0" />
      <rect
         y="987.36218"
         x="0"
         height="72.862"
         width="8"
         id="rect4163"
         style="fill:#4c039f;fill-opacity:1" />
      <rect
         style="fill:#4c039f;fill-opacity:1"
         id="rect4165"
         width="8"
         height="72.862"
         x="57"
         y="987.36218" />
      <text
         transform="scale(1.0265812,0.97410707)"
         sodipodi:linespacing="125%"
         id="text4171"
         y="1056.1495"
         x="22.683733"
         style="font-style:normal;font-weight:normal;font-size:14.12781143px;line-height:125%;font-family:sans-serif;letter-spacing:0px;word-spacing:0px;fill:#000000;fill-opacity:1;stroke:none;stroke-width:1px;stroke-linecap:butt;stroke-linejoin:miter;stroke-opacity:1"
         xml:space="preserve"><tspan
           y="1056.1495"
           x="22.683733"
           id="tspan4173"
           sodipodi:role="line">VS</tspan></text>
    </g>
  </g>
</svg>
